{"glyphs":{"0":{"ha":789,"x_min":0,"x_max":0,"o":"m 390 -19 b 724 483 604 -19 724 182 b 400 964 724 792 593 964 b 65 467 186 964 65 765 b 390 -19 65 156 196 -19 z m 392 36 b 217 483 279 36 217 215 b 400 911 217 757 289 911 b 572 467 511 911 572 733 b 392 36 572 190 500 36 z "},"1":{"ha":544,"x_min":0,"x_max":0,"o":"m 364 75 l 364 960 l 336 960 l 58 800 l 79 758 l 222 815 l 222 74 l 90 43 l 90 0 l 496 0 l 496 43 z "},"2":{"ha":628,"x_min":0,"x_max":0,"o":"m 22 0 l 578 0 l 578 286 l 529 286 l 489 97 l 146 97 b 554 746 425 401 554 581 b 317 963 554 875 460 963 b 58 778 208 963 108 899 l 96 753 b 286 890 140 835 211 890 b 411 735 361 890 411 832 b 22 24 411 544 253 308 z "},"3":{"ha":640,"x_min":0,"x_max":0,"o":"m 336 517 l 336 519 b 550 761 465 556 550 638 b 313 963 550 881 463 963 b 53 782 201 963 103 897 l 90 757 b 281 890 135 839 207 890 b 406 746 357 890 406 835 b 210 501 406 644 346 560 l 222 456 b 278 461 240 458 260 461 b 449 260 390 461 449 379 b 275 49 449 125 379 49 b 146 89 224 49 179 64 l 99 286 l 50 286 l 50 47 b 272 -19 117 4 201 -19 b 596 269 481 -19 596 96 b 336 517 596 410 499 506 z "},"4":{"ha":754,"x_min":0,"x_max":0,"o":"m 733 297 l 733 350 l 560 350 l 560 960 l 510 960 l 36 319 l 36 272 l 421 272 l 421 71 l 292 40 l 292 0 l 674 0 l 674 42 l 560 69 l 560 276 z m 131 350 l 418 751 l 421 751 l 421 350 z "},"5":{"ha":661,"x_min":0,"x_max":0,"o":"m 342 593 b 183 549 279 593 221 576 l 208 826 b 575 838 307 826 456 832 l 575 944 l 151 944 l 107 476 l 140 456 b 299 525 186 499 242 525 b 469 288 407 525 469 431 b 300 49 469 135 401 49 b 160 89 246 49 196 63 l 113 286 l 64 286 l 64 47 b 299 -19 121 13 207 -19 b 618 296 503 -19 618 107 b 342 593 618 486 507 593 z "},"6":{"ha":693,"x_min":0,"x_max":0,"o":"m 392 585 b 228 531 332 585 272 564 b 583 910 267 767 403 903 l 583 964 b 65 378 257 964 65 728 b 374 -19 65 124 188 -19 b 664 308 558 -19 664 113 b 392 585 664 483 556 585 z m 375 36 b 217 388 274 36 217 178 b 219 467 217 415 218 440 b 374 529 264 507 322 529 b 515 296 464 529 515 435 b 375 36 515 131 457 36 z "},"7":{"ha":608,"x_min":0,"x_max":0,"o":"m 168 0 l 303 0 b 588 906 347 268 456 604 l 588 944 l 50 944 l 50 644 l 106 644 l 138 832 l 493 832 b 168 0 347 544 221 215 z "},"8":{"ha":706,"x_min":0,"x_max":0,"o":"m 432 539 b 608 772 524 596 608 678 b 351 964 608 894 503 964 b 97 750 190 964 97 876 b 264 492 97 619 175 549 b 49 208 158 436 49 340 b 353 -19 49 74 171 -19 b 657 243 543 -19 657 100 b 432 539 657 396 542 471 z m 351 910 b 474 757 429 910 474 849 b 392 564 474 686 449 613 b 232 765 306 617 232 672 b 351 910 232 854 281 910 z m 353 36 b 197 228 253 36 197 125 b 308 464 197 308 229 403 b 508 225 408 401 508 346 b 353 36 508 115 443 36 z "},"9":{"ha":719,"x_min":0,"x_max":0,"o":"m 351 964 b 58 649 164 964 58 835 b 349 375 58 472 174 375 b 493 418 404 375 451 390 b 122 33 457 188 318 40 l 122 -19 b 654 565 453 -19 654 233 b 351 964 654 819 535 964 z m 361 431 b 207 661 261 431 207 529 b 350 908 207 818 264 908 b 503 546 449 908 503 763 b 500 483 503 525 501 503 b 361 431 457 449 410 431 z "}," ":{"ha":308,"x_min":0,"x_max":0,"o":""},"A":{"ha":892,"x_min":0,"x_max":0,"o":"m 794 68 l 522 964 l 386 944 l 101 72 l 6 44 l 6 0 l 293 0 l 293 44 l 192 72 l 263 311 l 565 311 l 638 69 l 539 44 l 539 0 l 883 0 l 883 44 z m 283 383 l 415 828 l 418 828 l 474 618 l 543 383 z "},"Á":{"ha":892,"x_min":0,"x_max":0,"o":"m 643 1014 b 693 1078 675 1014 693 1039 b 644 1139 693 1117 674 1139 b 594 1075 613 1139 594 1113 b 643 1014 594 1036 614 1014 z m 339 1079 b 286 1136 339 1122 315 1136 l 239 1136 l 239 1131 l 253 1128 l 253 1025 l 239 1022 l 239 1017 l 286 1017 b 339 1079 321 1017 339 1039 z m 431 1049 l 424 1049 l 419 1026 l 385 1026 l 385 1074 l 411 1074 l 414 1060 l 419 1060 l 419 1094 l 414 1094 l 411 1082 l 385 1082 l 385 1128 l 418 1128 l 422 1106 l 428 1106 l 428 1136 l 353 1136 l 353 1131 l 365 1128 l 365 1025 l 353 1022 l 353 1017 l 431 1017 z m 479 1022 l 465 1025 l 468 1122 l 469 1122 l 504 1014 l 514 1017 l 544 1122 l 546 1122 l 553 1025 l 540 1022 l 540 1017 l 585 1017 l 585 1022 l 572 1025 l 564 1126 l 578 1131 l 578 1136 l 540 1136 l 514 1044 l 506 1072 l 485 1136 l 446 1136 l 446 1131 l 461 1126 l 454 1026 l 440 1022 l 440 1017 l 479 1017 z m 643 1131 b 672 1075 661 1131 672 1108 b 644 1022 672 1042 661 1022 b 615 1078 625 1022 615 1044 b 643 1131 615 1111 626 1131 z m 271 1128 l 286 1128 b 318 1076 307 1128 318 1113 b 286 1024 318 1043 307 1024 l 271 1025 z m 794 67 l 522 964 l 386 944 l 101 72 l 6 44 l 6 0 l 293 0 l 293 44 l 190 72 l 263 311 l 565 311 l 638 69 l 539 44 l 539 0 l 883 0 l 883 44 z m 283 383 l 415 828 l 418 828 l 474 618 l 544 383 z "},"Ă":{"ha":892,"x_min":0,"x_max":0,"o":"m 624 1014 b 674 1078 656 1014 674 1039 b 625 1139 674 1117 654 1139 b 575 1075 593 1139 575 1113 b 624 1014 575 1036 594 1014 z m 319 1079 b 267 1136 319 1122 296 1136 l 219 1136 l 219 1131 l 233 1128 l 233 1025 l 219 1022 l 219 1017 l 267 1017 b 319 1079 301 1017 319 1039 z m 411 1049 l 404 1049 l 400 1026 l 365 1026 l 365 1074 l 392 1074 l 394 1060 l 400 1060 l 400 1094 l 394 1094 l 392 1082 l 365 1082 l 365 1128 l 399 1128 l 403 1106 l 408 1106 l 408 1136 l 333 1136 l 333 1131 l 346 1128 l 346 1025 l 333 1022 l 333 1017 l 411 1017 z m 460 1022 l 446 1025 l 449 1122 l 450 1122 l 485 1014 l 494 1017 l 525 1122 l 526 1122 l 533 1025 l 521 1022 l 521 1017 l 565 1017 l 565 1022 l 553 1025 l 544 1126 l 558 1131 l 558 1136 l 521 1136 l 494 1044 l 486 1072 l 465 1136 l 426 1136 l 426 1131 l 442 1126 l 435 1026 l 421 1022 l 421 1017 l 460 1017 z m 624 1131 b 653 1075 642 1131 653 1108 b 625 1022 653 1042 642 1022 b 596 1078 606 1022 596 1044 b 624 1131 596 1111 607 1131 z m 251 1128 l 267 1128 b 299 1076 288 1128 299 1113 b 267 1024 299 1043 288 1024 l 251 1025 z m 794 67 l 522 964 l 386 944 l 101 72 l 6 44 l 6 0 l 293 0 l 293 44 l 190 72 l 263 311 l 565 311 l 638 69 l 539 44 l 539 0 l 883 0 l 883 44 z m 283 383 l 415 828 l 418 828 l 474 618 l 544 383 z "},"Â":{"ha":892,"x_min":0,"x_max":0,"o":"m 624 1014 b 674 1078 656 1014 674 1039 b 625 1139 674 1117 654 1139 b 575 1075 593 1139 575 1113 b 624 1014 575 1036 594 1014 z m 319 1079 b 267 1136 319 1122 296 1136 l 219 1136 l 219 1131 l 233 1128 l 233 1025 l 219 1022 l 219 1017 l 267 1017 b 319 1079 301 1017 319 1039 z m 411 1049 l 404 1049 l 400 1026 l 365 1026 l 365 1074 l 392 1074 l 394 1060 l 400 1060 l 400 1094 l 394 1094 l 392 1082 l 365 1082 l 365 1128 l 399 1128 l 403 1106 l 408 1106 l 408 1136 l 333 1136 l 333 1131 l 346 1128 l 346 1025 l 333 1022 l 333 1017 l 411 1017 z m 460 1022 l 446 1025 l 449 1122 l 450 1122 l 485 1014 l 494 1017 l 525 1122 l 526 1122 l 533 1025 l 521 1022 l 521 1017 l 565 1017 l 565 1022 l 553 1025 l 544 1126 l 558 1131 l 558 1136 l 521 1136 l 494 1044 l 486 1072 l 465 1136 l 426 1136 l 426 1131 l 442 1126 l 435 1026 l 421 1022 l 421 1017 l 460 1017 z m 624 1131 b 653 1075 642 1131 653 1108 b 625 1022 653 1042 642 1022 b 596 1078 606 1022 596 1044 b 624 1131 596 1111 607 1131 z m 251 1128 l 267 1128 b 299 1076 288 1128 299 1113 b 267 1024 299 1043 288 1024 l 251 1025 z m 794 67 l 522 964 l 386 944 l 101 72 l 6 44 l 6 0 l 293 0 l 293 44 l 190 72 l 263 311 l 565 311 l 638 69 l 539 44 l 539 0 l 883 0 l 883 44 z m 283 383 l 415 828 l 418 828 l 474 618 l 544 383 z "},"Ä":{"ha":892,"x_min":0,"x_max":0,"o":"m 575 1061 b 625 1125 575 1099 593 1125 b 674 1064 654 1125 674 1103 b 624 1000 674 1025 656 1000 b 575 1061 594 1000 575 1022 z m 219 1008 l 233 1011 l 233 1114 l 219 1117 l 219 1122 l 267 1122 b 319 1065 296 1122 319 1108 b 267 1003 319 1025 301 1003 l 219 1003 z m 411 1035 l 411 1003 l 333 1003 l 333 1008 l 346 1011 l 346 1114 l 333 1117 l 333 1122 l 408 1122 l 408 1092 l 403 1092 l 399 1114 l 365 1114 l 365 1068 l 392 1068 l 394 1081 l 400 1081 l 400 1046 l 394 1046 l 392 1060 l 365 1060 l 365 1013 l 400 1013 l 404 1035 z m 565 1008 l 565 1003 l 521 1003 l 521 1008 l 533 1011 l 526 1108 l 525 1108 l 494 1003 l 485 1000 l 450 1108 l 449 1108 l 446 1011 l 460 1008 l 460 1003 l 421 1003 l 421 1008 l 435 1013 l 442 1113 l 426 1117 l 426 1122 l 465 1122 l 486 1058 l 494 1031 l 521 1122 l 558 1122 l 558 1117 l 544 1113 l 553 1011 z m 653 1061 b 624 1117 653 1094 642 1117 b 596 1064 607 1117 596 1097 b 625 1008 596 1031 606 1008 b 653 1061 642 1008 653 1028 z m 299 1063 b 267 1114 299 1099 288 1114 l 251 1114 l 251 1011 l 267 1010 b 299 1063 288 1010 299 1029 z m 794 68 l 522 964 l 386 944 l 101 72 l 6 44 l 6 0 l 293 0 l 293 44 l 192 72 l 263 311 l 565 311 l 638 69 l 539 44 l 539 0 l 883 0 l 883 44 z m 283 383 l 415 828 l 418 828 l 474 618 l 543 383 z "},"À":{"ha":892,"x_min":0,"x_max":0,"o":"m 624 1014 b 674 1078 656 1014 674 1039 b 625 1139 674 1117 654 1139 b 575 1075 593 1139 575 1113 b 624 1014 575 1036 594 1014 z m 219 1017 l 267 1017 b 319 1079 301 1017 319 1039 b 267 1136 319 1122 296 1136 l 219 1136 l 219 1131 l 233 1128 l 233 1025 l 219 1022 z m 333 1017 l 411 1017 l 411 1049 l 404 1049 l 400 1026 l 365 1026 l 365 1074 l 392 1074 l 394 1060 l 400 1060 l 400 1094 l 394 1094 l 392 1082 l 365 1082 l 365 1128 l 399 1128 l 403 1106 l 408 1106 l 408 1136 l 333 1136 l 333 1131 l 346 1128 l 346 1025 l 333 1022 z m 485 1014 l 494 1017 l 525 1122 l 526 1122 l 533 1025 l 521 1022 l 521 1017 l 565 1017 l 565 1022 l 553 1025 l 544 1126 l 558 1131 l 558 1136 l 521 1136 l 494 1044 l 486 1072 l 465 1136 l 426 1136 l 426 1131 l 442 1126 l 435 1026 l 421 1022 l 421 1017 l 460 1017 l 460 1022 l 446 1025 l 449 1122 l 450 1122 z m 625 1022 b 596 1078 606 1022 596 1044 b 624 1131 596 1111 607 1131 b 653 1075 642 1131 653 1108 b 625 1022 653 1042 642 1022 z m 267 1024 l 251 1025 l 251 1128 l 267 1128 b 299 1076 288 1128 299 1113 b 267 1024 299 1043 288 1024 z m 794 68 l 522 964 l 386 944 l 101 72 l 6 44 l 6 0 l 293 0 l 293 44 l 192 72 l 263 311 l 565 311 l 638 69 l 539 44 l 539 0 l 883 0 l 883 44 z m 283 383 l 415 828 l 418 828 l 474 618 l 543 383 z "},"Ā":{"ha":892,"x_min":0,"x_max":0,"o":"m 624 1014 b 674 1078 656 1014 674 1039 b 625 1139 674 1117 654 1139 b 575 1075 593 1139 575 1113 b 624 1014 575 1036 594 1014 z m 219 1017 l 267 1017 b 319 1079 301 1017 319 1039 b 267 1136 319 1122 296 1136 l 219 1136 l 219 1131 l 233 1128 l 233 1025 l 219 1022 z m 333 1017 l 411 1017 l 411 1049 l 404 1049 l 400 1026 l 365 1026 l 365 1074 l 392 1074 l 394 1060 l 400 1060 l 400 1094 l 394 1094 l 392 1082 l 365 1082 l 365 1128 l 399 1128 l 403 1106 l 408 1106 l 408 1136 l 333 1136 l 333 1131 l 346 1128 l 346 1025 l 333 1022 z m 485 1014 l 494 1017 l 525 1122 l 526 1122 l 533 1025 l 521 1022 l 521 1017 l 565 1017 l 565 1022 l 553 1025 l 544 1126 l 558 1131 l 558 1136 l 521 1136 l 494 1044 l 486 1072 l 465 1136 l 426 1136 l 426 1131 l 442 1126 l 435 1026 l 421 1022 l 421 1017 l 460 1017 l 460 1022 l 446 1025 l 449 1122 l 450 1122 z m 625 1022 b 596 1078 606 1022 596 1044 b 624 1131 596 1111 607 1131 b 653 1075 642 1131 653 1108 b 625 1022 653 1042 642 1022 z m 267 1024 l 251 1025 l 251 1128 l 267 1128 b 299 1076 288 1128 299 1113 b 267 1024 299 1043 288 1024 z m 794 68 l 522 964 l 386 944 l 101 72 l 6 44 l 6 0 l 293 0 l 293 44 l 192 72 l 263 311 l 565 311 l 638 69 l 539 44 l 539 0 l 883 0 l 883 44 z m 283 383 l 415 828 l 418 828 l 474 618 l 543 383 z "},"Ą":{"ha":892,"x_min":0,"x_max":0,"o":"m 643 1014 b 693 1078 675 1014 693 1039 b 644 1139 693 1117 674 1139 b 594 1075 613 1139 594 1113 b 643 1014 594 1036 614 1014 z m 339 1079 b 286 1136 339 1122 315 1136 l 239 1136 l 239 1131 l 253 1128 l 253 1025 l 239 1022 l 239 1017 l 286 1017 b 339 1079 321 1017 339 1039 z m 431 1049 l 424 1049 l 419 1026 l 385 1026 l 385 1074 l 411 1074 l 414 1060 l 419 1060 l 419 1094 l 414 1094 l 411 1082 l 385 1082 l 385 1128 l 418 1128 l 422 1106 l 428 1106 l 428 1136 l 353 1136 l 353 1131 l 365 1128 l 365 1025 l 353 1022 l 353 1017 l 431 1017 z m 479 1022 l 465 1025 l 468 1122 l 469 1122 l 504 1014 l 514 1017 l 544 1122 l 546 1122 l 553 1025 l 540 1022 l 540 1017 l 585 1017 l 585 1022 l 572 1025 l 564 1126 l 578 1131 l 578 1136 l 540 1136 l 514 1044 l 506 1072 l 485 1136 l 446 1136 l 446 1131 l 461 1126 l 454 1026 l 440 1022 l 440 1017 l 479 1017 z m 643 1131 b 672 1075 661 1131 672 1108 b 644 1022 672 1042 661 1022 b 615 1078 625 1022 615 1044 b 643 1131 615 1111 626 1131 z m 271 1128 l 286 1128 b 318 1076 307 1128 318 1113 b 286 1024 318 1043 307 1024 l 271 1025 z m 794 67 l 522 964 l 386 944 l 101 72 l 6 44 l 6 0 l 293 0 l 293 44 l 190 72 l 263 311 l 565 311 l 638 69 l 539 44 l 539 0 l 883 0 l 883 44 z m 283 383 l 415 828 l 418 828 l 474 618 l 544 383 z "},"Å":{"ha":892,"x_min":0,"x_max":0,"o":"m 625 1014 b 675 1078 657 1014 675 1039 b 626 1139 675 1117 656 1139 b 576 1075 594 1139 576 1113 b 625 1014 576 1036 596 1014 z m 221 1017 l 268 1017 b 321 1079 303 1017 321 1039 b 268 1136 321 1122 297 1136 l 221 1136 l 221 1131 l 235 1128 l 235 1025 l 221 1022 z m 335 1017 l 413 1017 l 413 1049 l 406 1049 l 401 1026 l 367 1026 l 367 1074 l 393 1074 l 396 1060 l 401 1060 l 401 1094 l 396 1094 l 393 1082 l 367 1082 l 367 1128 l 400 1128 l 404 1106 l 410 1106 l 410 1136 l 335 1136 l 335 1131 l 347 1128 l 347 1025 l 335 1022 z m 486 1014 l 496 1017 l 526 1122 l 528 1122 l 535 1025 l 522 1022 l 522 1017 l 567 1017 l 567 1022 l 554 1025 l 546 1126 l 560 1131 l 560 1136 l 522 1136 l 496 1044 l 488 1072 l 467 1136 l 428 1136 l 428 1131 l 443 1126 l 436 1026 l 422 1022 l 422 1017 l 461 1017 l 461 1022 l 447 1025 l 450 1122 l 451 1122 z m 626 1022 b 597 1078 607 1022 597 1044 b 625 1131 597 1111 608 1131 b 654 1075 643 1131 654 1108 b 626 1022 654 1042 643 1022 z m 268 1024 l 253 1025 l 253 1128 l 268 1128 b 300 1076 289 1128 300 1113 b 268 1024 300 1043 289 1024 z m 794 68 l 522 964 l 386 944 l 101 72 l 6 44 l 6 0 l 293 0 l 293 44 l 192 72 l 263 311 l 565 311 l 638 69 l 539 44 l 539 0 l 883 0 l 883 44 z m 283 383 l 415 828 l 418 828 l 474 618 l 543 383 z "},"Ã":{"ha":892,"x_min":0,"x_max":0,"o":"m 624 1014 b 674 1078 656 1014 674 1039 b 625 1139 674 1117 654 1139 b 575 1075 593 1139 575 1113 b 624 1014 575 1036 594 1014 z m 219 1017 l 267 1017 b 319 1079 301 1017 319 1039 b 267 1136 319 1122 296 1136 l 219 1136 l 219 1131 l 233 1128 l 233 1025 l 219 1022 z m 333 1017 l 411 1017 l 411 1049 l 404 1049 l 400 1026 l 365 1026 l 365 1074 l 392 1074 l 394 1060 l 400 1060 l 400 1094 l 394 1094 l 392 1082 l 365 1082 l 365 1128 l 399 1128 l 403 1106 l 408 1106 l 408 1136 l 333 1136 l 333 1131 l 346 1128 l 346 1025 l 333 1022 z m 485 1014 l 494 1017 l 525 1122 l 526 1122 l 533 1025 l 521 1022 l 521 1017 l 565 1017 l 565 1022 l 553 1025 l 544 1126 l 558 1131 l 558 1136 l 521 1136 l 494 1044 l 486 1072 l 465 1136 l 426 1136 l 426 1131 l 442 1126 l 435 1026 l 421 1022 l 421 1017 l 460 1017 l 460 1022 l 446 1025 l 449 1122 l 450 1122 z m 625 1022 b 596 1078 606 1022 596 1044 b 624 1131 596 1111 607 1131 b 653 1075 642 1131 653 1108 b 625 1022 653 1042 642 1022 z m 267 1024 l 251 1025 l 251 1128 l 267 1128 b 299 1076 288 1128 299 1113 b 267 1024 299 1043 288 1024 z m 794 68 l 522 964 l 386 944 l 101 72 l 6 44 l 6 0 l 293 0 l 293 44 l 192 72 l 263 311 l 565 311 l 638 69 l 539 44 l 539 0 l 883 0 l 883 44 z m 283 383 l 415 828 l 418 828 l 474 618 l 543 383 z "},"Æ":{"ha":732,"x_min":0,"x_max":0,"o":"m 508 910 b 363 1025 508 983 451 1025 b 224 915 274 1025 224 981 b 369 800 224 842 285 800 b 508 910 458 800 508 844 z m 489 915 b 363 847 489 869 439 847 b 243 910 288 847 243 874 b 369 978 243 951 293 978 b 489 915 444 978 489 951 z m 508 594 l 503 617 l 261 686 l 261 689 l 483 706 l 489 676 l 503 676 l 503 778 l 489 778 l 483 750 l 253 731 l 243 763 l 229 763 l 229 676 l 439 617 l 229 550 l 229 461 l 243 461 l 253 496 l 479 479 l 489 449 l 503 449 l 503 538 l 489 538 l 483 506 l 261 511 l 261 514 z m 503 249 l 503 426 l 429 426 l 429 411 l 479 401 l 479 322 l 372 322 l 372 382 l 403 388 l 403 401 l 325 401 l 325 388 l 353 382 l 353 322 l 249 322 l 249 399 l 300 408 l 300 419 l 229 419 l 229 249 l 243 249 l 249 278 l 483 278 l 489 249 z m 503 -11 l 503 97 b 360 217 503 175 451 217 b 229 97 261 217 229 164 l 229 -11 l 243 -11 l 249 21 l 483 21 l 489 -11 z m 486 97 l 483 63 l 249 63 l 249 97 b 365 169 249 144 285 169 b 486 97 442 169 486 144 z "},"Ǽ":{"ha":732,"x_min":0,"x_max":0,"o":"m 508 910 b 363 1025 508 983 451 1025 b 224 915 274 1025 224 981 b 369 800 224 842 285 800 b 508 910 458 800 508 844 z m 489 915 b 363 847 489 869 439 847 b 243 910 288 847 243 874 b 369 978 243 951 293 978 b 489 915 444 978 489 951 z m 508 594 l 503 617 l 261 686 l 261 689 l 483 706 l 489 676 l 503 676 l 503 778 l 489 778 l 483 750 l 253 731 l 243 763 l 229 763 l 229 676 l 439 617 l 229 550 l 229 461 l 243 461 l 253 496 l 479 479 l 489 449 l 503 449 l 503 538 l 489 538 l 483 506 l 261 511 l 261 514 z m 503 249 l 503 426 l 429 426 l 429 411 l 479 401 l 479 322 l 372 322 l 372 382 l 403 388 l 403 401 l 325 401 l 325 388 l 353 382 l 353 322 l 249 322 l 249 399 l 300 408 l 300 419 l 229 419 l 229 249 l 243 249 l 249 278 l 483 278 l 489 249 z m 503 -11 l 503 97 b 360 217 503 175 451 217 b 229 97 261 217 229 164 l 229 -11 l 243 -11 l 249 21 l 483 21 l 489 -11 z m 486 97 l 483 63 l 249 63 l 249 97 b 365 169 249 144 285 169 b 486 97 442 169 486 144 z "},"B":{"ha":775,"x_min":0,"x_max":0,"o":"m 50 0 l 403 0 b 750 268 625 0 750 107 b 571 500 750 389 678 472 l 571 504 b 700 719 653 549 700 628 b 431 944 700 867 611 944 l 50 944 l 50 900 l 154 875 l 154 69 l 50 44 z m 306 529 l 306 878 l 400 882 b 551 710 497 882 551 814 b 397 524 551 589 489 524 z m 401 64 l 306 72 l 306 458 l 397 458 b 596 263 524 458 596 381 b 401 64 596 136 518 64 z "},"C":{"ha":811,"x_min":0,"x_max":0,"o":"m 682 300 l 633 103 b 475 50 589 67 533 50 b 229 478 310 50 229 218 b 475 899 229 744 328 899 b 613 864 533 899 581 885 l 668 664 l 724 664 l 724 900 b 475 964 651 939 568 964 b 65 463 213 964 65 765 b 475 -19 65 156 229 -19 b 738 47 557 -19 657 7 l 738 300 z "},"Ć":{"ha":811,"x_min":0,"x_max":0,"o":"m 653 1014 b 703 1078 685 1014 703 1039 b 654 1139 703 1117 683 1139 b 604 1075 622 1139 604 1113 b 653 1014 604 1036 624 1014 z m 349 1079 b 296 1136 349 1122 325 1136 l 249 1136 l 249 1131 l 263 1128 l 263 1025 l 249 1022 l 249 1017 l 296 1017 b 349 1079 331 1017 349 1039 z m 440 1049 l 433 1049 l 429 1026 l 394 1026 l 394 1074 l 421 1074 l 424 1060 l 429 1060 l 429 1094 l 424 1094 l 421 1082 l 394 1082 l 394 1128 l 428 1128 l 432 1106 l 438 1106 l 438 1136 l 363 1136 l 363 1131 l 375 1128 l 375 1025 l 363 1022 l 363 1017 l 440 1017 z m 489 1022 l 475 1025 l 478 1122 l 479 1122 l 514 1014 l 524 1017 l 554 1122 l 556 1122 l 563 1025 l 550 1022 l 550 1017 l 594 1017 l 594 1022 l 582 1025 l 574 1126 l 588 1131 l 588 1136 l 550 1136 l 524 1044 l 515 1072 l 494 1136 l 456 1136 l 456 1131 l 471 1126 l 464 1026 l 450 1022 l 450 1017 l 489 1017 z m 653 1131 b 682 1075 671 1131 682 1108 b 654 1022 682 1042 671 1022 b 625 1078 635 1022 625 1044 b 653 1131 625 1111 636 1131 z m 281 1128 l 296 1128 b 328 1076 317 1128 328 1113 b 296 1024 328 1043 317 1024 l 281 1025 z m 682 300 l 633 103 b 475 50 589 67 533 50 b 229 478 310 50 229 218 b 475 899 229 744 328 899 b 613 864 533 899 581 885 l 668 664 l 724 664 l 724 900 b 475 964 651 939 568 964 b 65 463 213 964 65 765 b 475 -19 65 156 229 -19 b 738 47 557 -19 657 7 l 738 300 z "},"Č":{"ha":811,"x_min":0,"x_max":0,"o":"m 632 1014 b 682 1078 664 1014 682 1039 b 633 1139 682 1117 663 1139 b 583 1075 601 1139 583 1113 b 632 1014 583 1036 603 1014 z m 328 1079 b 275 1136 328 1122 304 1136 l 228 1136 l 228 1131 l 242 1128 l 242 1025 l 228 1022 l 228 1017 l 275 1017 b 328 1079 310 1017 328 1039 z m 419 1049 l 413 1049 l 408 1026 l 374 1026 l 374 1074 l 400 1074 l 403 1060 l 408 1060 l 408 1094 l 403 1094 l 400 1082 l 374 1082 l 374 1128 l 407 1128 l 411 1106 l 417 1106 l 417 1136 l 342 1136 l 342 1131 l 354 1128 l 354 1025 l 342 1022 l 342 1017 l 419 1017 z m 468 1022 l 454 1025 l 457 1122 l 458 1122 l 493 1014 l 503 1017 l 533 1122 l 535 1122 l 542 1025 l 529 1022 l 529 1017 l 574 1017 l 574 1022 l 561 1025 l 553 1126 l 567 1131 l 567 1136 l 529 1136 l 503 1044 l 494 1072 l 474 1136 l 435 1136 l 435 1131 l 450 1126 l 443 1026 l 429 1022 l 429 1017 l 468 1017 z m 632 1131 b 661 1075 650 1131 661 1108 b 633 1022 661 1042 650 1022 b 604 1078 614 1022 604 1044 b 632 1131 604 1111 615 1131 z m 260 1128 l 275 1128 b 307 1076 296 1128 307 1113 b 275 1024 307 1043 296 1024 l 260 1025 z m 682 300 l 633 103 b 475 50 589 67 533 50 b 229 478 310 50 229 218 b 475 899 229 744 328 899 b 613 864 533 899 581 885 l 668 664 l 724 664 l 724 900 b 475 964 651 939 568 964 b 65 463 213 964 65 765 b 475 -19 65 156 229 -19 b 738 47 557 -19 657 7 l 738 300 z "},"Ç":{"ha":811,"x_min":0,"x_max":0,"o":"m 650 1014 b 700 1078 682 1014 700 1039 b 651 1139 700 1117 681 1139 b 601 1075 619 1139 601 1113 b 650 1014 601 1036 621 1014 z m 346 1079 b 293 1136 346 1122 322 1136 l 246 1136 l 246 1131 l 260 1128 l 260 1025 l 246 1022 l 246 1017 l 293 1017 b 346 1079 328 1017 346 1039 z m 438 1049 l 431 1049 l 426 1026 l 392 1026 l 392 1074 l 418 1074 l 421 1060 l 426 1060 l 426 1094 l 421 1094 l 418 1082 l 392 1082 l 392 1128 l 425 1128 l 429 1106 l 435 1106 l 435 1136 l 360 1136 l 360 1131 l 372 1128 l 372 1025 l 360 1022 l 360 1017 l 438 1017 z m 486 1022 l 472 1025 l 475 1122 l 476 1122 l 511 1014 l 521 1017 l 551 1122 l 553 1122 l 560 1025 l 547 1022 l 547 1017 l 592 1017 l 592 1022 l 579 1025 l 571 1126 l 585 1131 l 585 1136 l 547 1136 l 521 1044 l 513 1072 l 492 1136 l 453 1136 l 453 1131 l 468 1126 l 461 1026 l 447 1022 l 447 1017 l 486 1017 z m 650 1131 b 679 1075 668 1131 679 1108 b 651 1022 679 1042 668 1022 b 622 1078 632 1022 622 1044 b 650 1131 622 1111 633 1131 z m 278 1128 l 293 1128 b 325 1076 314 1128 325 1113 b 293 1024 325 1043 314 1024 l 278 1025 z m 682 300 l 633 103 b 475 50 589 67 533 50 b 229 478 310 50 229 218 b 475 899 229 744 328 899 b 613 864 533 899 581 885 l 668 664 l 724 664 l 724 900 b 475 964 651 939 568 964 b 65 463 213 964 65 765 b 475 -19 65 156 229 -19 b 738 47 557 -19 657 7 l 738 300 z "},"Ĉ":{"ha":811,"x_min":0,"x_max":0,"o":"m 633 1014 b 683 1078 665 1014 683 1039 b 635 1139 683 1117 664 1139 b 585 1075 603 1139 585 1113 b 633 1014 585 1036 604 1014 z m 329 1079 b 276 1136 329 1122 306 1136 l 229 1136 l 229 1131 l 243 1128 l 243 1025 l 229 1022 l 229 1017 l 276 1017 b 329 1079 311 1017 329 1039 z m 421 1049 l 414 1049 l 410 1026 l 375 1026 l 375 1074 l 401 1074 l 404 1060 l 410 1060 l 410 1094 l 404 1094 l 401 1082 l 375 1082 l 375 1128 l 408 1128 l 413 1106 l 418 1106 l 418 1136 l 343 1136 l 343 1131 l 356 1128 l 356 1025 l 343 1022 l 343 1017 l 421 1017 z m 469 1022 l 456 1025 l 458 1122 l 460 1122 l 494 1014 l 504 1017 l 535 1122 l 536 1122 l 543 1025 l 531 1022 l 531 1017 l 575 1017 l 575 1022 l 563 1025 l 554 1126 l 568 1131 l 568 1136 l 531 1136 l 504 1044 l 496 1072 l 475 1136 l 436 1136 l 436 1131 l 451 1126 l 444 1026 l 431 1022 l 431 1017 l 469 1017 z m 633 1131 b 663 1075 651 1131 663 1108 b 635 1022 663 1042 651 1022 b 606 1078 615 1022 606 1044 b 633 1131 606 1111 617 1131 z m 261 1128 l 276 1128 b 308 1076 297 1128 308 1113 b 276 1024 308 1043 297 1024 l 261 1025 z m 682 300 l 633 103 b 475 50 589 67 533 50 b 229 478 310 50 229 218 b 475 899 229 744 328 899 b 613 864 533 899 581 885 l 668 664 l 724 664 l 724 900 b 475 964 651 939 568 964 b 65 463 213 964 65 765 b 475 -19 65 156 229 -19 b 738 47 557 -19 657 7 l 738 300 z "},"Ċ":{"ha":811,"x_min":0,"x_max":0,"o":"m 632 1014 b 682 1078 664 1014 682 1039 b 633 1139 682 1117 663 1139 b 583 1075 601 1139 583 1113 b 632 1014 583 1036 603 1014 z m 328 1079 b 275 1136 328 1122 304 1136 l 228 1136 l 228 1131 l 242 1128 l 242 1025 l 228 1022 l 228 1017 l 275 1017 b 328 1079 310 1017 328 1039 z m 419 1049 l 413 1049 l 408 1026 l 374 1026 l 374 1074 l 400 1074 l 403 1060 l 408 1060 l 408 1094 l 403 1094 l 400 1082 l 374 1082 l 374 1128 l 407 1128 l 411 1106 l 417 1106 l 417 1136 l 342 1136 l 342 1131 l 354 1128 l 354 1025 l 342 1022 l 342 1017 l 419 1017 z m 468 1022 l 454 1025 l 457 1122 l 458 1122 l 493 1014 l 503 1017 l 533 1122 l 535 1122 l 542 1025 l 529 1022 l 529 1017 l 574 1017 l 574 1022 l 561 1025 l 553 1126 l 567 1131 l 567 1136 l 529 1136 l 503 1044 l 494 1072 l 474 1136 l 435 1136 l 435 1131 l 450 1126 l 443 1026 l 429 1022 l 429 1017 l 468 1017 z m 632 1131 b 661 1075 650 1131 661 1108 b 633 1022 661 1042 650 1022 b 604 1078 614 1022 604 1044 b 632 1131 604 1111 615 1131 z m 260 1128 l 275 1128 b 307 1076 296 1128 307 1113 b 275 1024 307 1043 296 1024 l 260 1025 z m 682 300 l 633 103 b 475 50 589 67 533 50 b 229 478 310 50 229 218 b 475 899 229 744 328 899 b 613 864 533 899 581 885 l 668 664 l 724 664 l 724 900 b 475 964 651 939 568 964 b 65 463 213 964 65 765 b 475 -19 65 156 229 -19 b 738 47 557 -19 657 7 l 738 300 z "},"D":{"ha":893,"x_min":0,"x_max":0,"o":"m 50 0 l 425 0 b 835 493 693 0 835 182 b 424 944 835 831 657 944 l 50 944 l 50 900 l 154 875 l 154 69 l 50 44 z m 419 61 l 306 69 l 306 878 l 419 885 b 672 478 582 885 672 763 b 419 61 672 207 586 61 z "},"Ð":{"ha":893,"x_min":0,"x_max":0,"o":"m 622 1014 b 672 1078 654 1014 672 1039 b 624 1139 672 1117 653 1139 b 574 1075 592 1139 574 1113 b 622 1014 574 1036 593 1014 z m 218 1017 l 265 1017 b 318 1079 300 1017 318 1039 b 265 1136 318 1122 294 1136 l 218 1136 l 218 1131 l 232 1128 l 232 1025 l 218 1022 z m 332 1017 l 410 1017 l 410 1049 l 403 1049 l 399 1026 l 364 1026 l 364 1074 l 390 1074 l 393 1060 l 399 1060 l 399 1094 l 393 1094 l 390 1082 l 364 1082 l 364 1128 l 397 1128 l 401 1106 l 407 1106 l 407 1136 l 332 1136 l 332 1131 l 344 1128 l 344 1025 l 332 1022 z m 483 1014 l 493 1017 l 524 1122 l 525 1122 l 532 1025 l 519 1022 l 519 1017 l 564 1017 l 564 1022 l 551 1025 l 543 1126 l 557 1131 l 557 1136 l 519 1136 l 493 1044 l 485 1072 l 464 1136 l 425 1136 l 425 1131 l 440 1126 l 433 1026 l 419 1022 l 419 1017 l 458 1017 l 458 1022 l 444 1025 l 447 1122 l 449 1122 z m 624 1022 b 594 1078 604 1022 594 1044 b 622 1131 594 1111 606 1131 b 651 1075 640 1131 651 1108 b 624 1022 651 1042 640 1022 z m 265 1024 l 250 1025 l 250 1128 l 265 1128 b 297 1076 286 1128 297 1113 b 265 1024 297 1043 286 1024 z m 50 0 l 425 0 b 835 493 693 0 835 182 b 424 944 835 831 657 944 l 50 944 l 50 900 l 154 875 l 154 69 l 50 44 z m 419 61 l 306 69 l 306 878 l 419 885 b 672 478 582 885 672 763 b 419 61 672 207 586 61 z "},"Ď":{"ha":893,"x_min":0,"x_max":0,"o":"m 621 1014 b 671 1078 653 1014 671 1039 b 622 1139 671 1117 651 1139 b 572 1075 590 1139 572 1113 b 621 1014 572 1036 592 1014 z m 217 1017 l 264 1017 b 317 1079 299 1017 317 1039 b 264 1136 317 1122 293 1136 l 217 1136 l 217 1131 l 231 1128 l 231 1025 l 217 1022 z m 331 1017 l 408 1017 l 408 1049 l 401 1049 l 397 1026 l 363 1026 l 363 1074 l 389 1074 l 392 1060 l 397 1060 l 397 1094 l 392 1094 l 389 1082 l 363 1082 l 363 1128 l 396 1128 l 400 1106 l 406 1106 l 406 1136 l 331 1136 l 331 1131 l 343 1128 l 343 1025 l 331 1022 z m 482 1014 l 492 1017 l 522 1122 l 524 1122 l 531 1025 l 518 1022 l 518 1017 l 563 1017 l 563 1022 l 550 1025 l 542 1126 l 556 1131 l 556 1136 l 518 1136 l 492 1044 l 483 1072 l 463 1136 l 424 1136 l 424 1131 l 439 1126 l 432 1026 l 418 1022 l 418 1017 l 457 1017 l 457 1022 l 443 1025 l 446 1122 l 447 1122 z m 622 1022 b 593 1078 603 1022 593 1044 b 621 1131 593 1111 604 1131 b 650 1075 639 1131 650 1108 b 622 1022 650 1042 639 1022 z m 264 1024 l 249 1025 l 249 1128 l 264 1128 b 296 1076 285 1128 296 1113 b 264 1024 296 1043 285 1024 z m 50 0 l 425 0 b 835 493 693 0 835 182 b 424 944 835 831 657 944 l 50 944 l 50 900 l 154 875 l 154 69 l 50 44 z m 419 61 l 306 69 l 306 878 l 419 885 b 672 478 582 885 672 763 b 419 61 672 207 586 61 z "},"Đ":{"ha":893,"x_min":0,"x_max":0,"o":"m 622 1014 b 672 1078 654 1014 672 1039 b 624 1139 672 1117 653 1139 b 574 1075 592 1139 574 1113 b 622 1014 574 1036 593 1014 z m 218 1017 l 265 1017 b 318 1079 300 1017 318 1039 b 265 1136 318 1122 294 1136 l 218 1136 l 218 1131 l 232 1128 l 232 1025 l 218 1022 z m 332 1017 l 410 1017 l 410 1049 l 403 1049 l 399 1026 l 364 1026 l 364 1074 l 390 1074 l 393 1060 l 399 1060 l 399 1094 l 393 1094 l 390 1082 l 364 1082 l 364 1128 l 397 1128 l 401 1106 l 407 1106 l 407 1136 l 332 1136 l 332 1131 l 344 1128 l 344 1025 l 332 1022 z m 483 1014 l 493 1017 l 524 1122 l 525 1122 l 532 1025 l 519 1022 l 519 1017 l 564 1017 l 564 1022 l 551 1025 l 543 1126 l 557 1131 l 557 1136 l 519 1136 l 493 1044 l 485 1072 l 464 1136 l 425 1136 l 425 1131 l 440 1126 l 433 1026 l 419 1022 l 419 1017 l 458 1017 l 458 1022 l 444 1025 l 447 1122 l 449 1122 z m 624 1022 b 594 1078 604 1022 594 1044 b 622 1131 594 1111 606 1131 b 651 1075 640 1131 651 1108 b 624 1022 651 1042 640 1022 z m 265 1024 l 250 1025 l 250 1128 l 265 1128 b 297 1076 286 1128 297 1113 b 265 1024 297 1043 286 1024 z m 50 0 l 425 0 b 835 493 693 0 835 182 b 424 944 835 831 657 944 l 50 944 l 50 900 l 154 875 l 154 69 l 50 44 z m 419 61 l 306 69 l 306 878 l 419 885 b 672 478 582 885 672 763 b 419 61 672 207 586 61 z "},"E":{"ha":728,"x_min":0,"x_max":0,"o":"m 615 250 l 579 75 l 306 75 l 306 450 l 513 447 l 536 346 l 586 346 l 586 618 l 536 618 l 513 519 l 306 517 l 306 876 l 565 876 l 599 703 l 653 703 l 653 944 l 50 944 l 50 900 l 154 875 l 154 69 l 50 44 l 50 0 l 669 0 l 669 250 z "},"É":{"ha":728,"x_min":0,"x_max":0,"o":"m 564 1014 b 614 1078 596 1014 614 1039 b 565 1139 614 1117 594 1139 b 515 1075 533 1139 515 1113 b 564 1014 515 1036 535 1014 z m 260 1079 b 207 1136 260 1122 236 1136 l 160 1136 l 160 1131 l 174 1128 l 174 1025 l 160 1022 l 160 1017 l 207 1017 b 260 1079 242 1017 260 1039 z m 351 1049 l 344 1049 l 340 1026 l 306 1026 l 306 1074 l 332 1074 l 335 1060 l 340 1060 l 340 1094 l 335 1094 l 332 1082 l 306 1082 l 306 1128 l 339 1128 l 343 1106 l 349 1106 l 349 1136 l 274 1136 l 274 1131 l 286 1128 l 286 1025 l 274 1022 l 274 1017 l 351 1017 z m 400 1022 l 386 1025 l 389 1122 l 390 1122 l 425 1014 l 435 1017 l 465 1122 l 467 1122 l 474 1025 l 461 1022 l 461 1017 l 506 1017 l 506 1022 l 493 1025 l 485 1126 l 499 1131 l 499 1136 l 461 1136 l 435 1044 l 426 1072 l 406 1136 l 367 1136 l 367 1131 l 382 1126 l 375 1026 l 361 1022 l 361 1017 l 400 1017 z m 564 1131 b 593 1075 582 1131 593 1108 b 565 1022 593 1042 582 1022 b 536 1078 546 1022 536 1044 b 564 1131 536 1111 547 1131 z m 192 1128 l 207 1128 b 239 1076 228 1128 239 1113 b 207 1024 239 1043 228 1024 l 192 1025 z m 615 250 l 579 75 l 306 75 l 306 450 l 513 447 l 536 346 l 586 346 l 586 618 l 536 618 l 513 519 l 306 517 l 306 876 l 565 876 l 599 703 l 653 703 l 653 944 l 50 944 l 50 900 l 154 875 l 154 69 l 50 44 l 50 0 l 669 0 l 669 250 z "},"Ĕ":{"ha":728,"x_min":0,"x_max":0,"o":"m 564 1014 b 614 1078 596 1014 614 1039 b 565 1139 614 1117 594 1139 b 515 1075 533 1139 515 1113 b 564 1014 515 1036 535 1014 z m 260 1079 b 207 1136 260 1122 236 1136 l 160 1136 l 160 1131 l 174 1128 l 174 1025 l 160 1022 l 160 1017 l 207 1017 b 260 1079 242 1017 260 1039 z m 351 1049 l 344 1049 l 340 1026 l 306 1026 l 306 1074 l 332 1074 l 335 1060 l 340 1060 l 340 1094 l 335 1094 l 332 1082 l 306 1082 l 306 1128 l 339 1128 l 343 1106 l 349 1106 l 349 1136 l 274 1136 l 274 1131 l 286 1128 l 286 1025 l 274 1022 l 274 1017 l 351 1017 z m 400 1022 l 386 1025 l 389 1122 l 390 1122 l 425 1014 l 435 1017 l 465 1122 l 467 1122 l 474 1025 l 461 1022 l 461 1017 l 506 1017 l 506 1022 l 493 1025 l 485 1126 l 499 1131 l 499 1136 l 461 1136 l 435 1044 l 426 1072 l 406 1136 l 367 1136 l 367 1131 l 382 1126 l 375 1026 l 361 1022 l 361 1017 l 400 1017 z m 564 1131 b 593 1075 582 1131 593 1108 b 565 1022 593 1042 582 1022 b 536 1078 546 1022 536 1044 b 564 1131 536 1111 547 1131 z m 192 1128 l 207 1128 b 239 1076 228 1128 239 1113 b 207 1024 239 1043 228 1024 l 192 1025 z m 615 250 l 579 75 l 306 75 l 306 450 l 513 447 l 536 346 l 586 346 l 586 618 l 536 618 l 513 519 l 306 517 l 306 876 l 565 876 l 599 703 l 653 703 l 653 944 l 50 944 l 50 900 l 154 875 l 154 69 l 50 44 l 50 0 l 669 0 l 669 250 z "},"Ě":{"ha":728,"x_min":0,"x_max":0,"o":"m 564 1014 b 614 1078 596 1014 614 1039 b 565 1139 614 1117 594 1139 b 515 1075 533 1139 515 1113 b 564 1014 515 1036 535 1014 z m 260 1079 b 207 1136 260 1122 236 1136 l 160 1136 l 160 1131 l 174 1128 l 174 1025 l 160 1022 l 160 1017 l 207 1017 b 260 1079 242 1017 260 1039 z m 351 1049 l 344 1049 l 340 1026 l 306 1026 l 306 1074 l 332 1074 l 335 1060 l 340 1060 l 340 1094 l 335 1094 l 332 1082 l 306 1082 l 306 1128 l 339 1128 l 343 1106 l 349 1106 l 349 1136 l 274 1136 l 274 1131 l 286 1128 l 286 1025 l 274 1022 l 274 1017 l 351 1017 z m 400 1022 l 386 1025 l 389 1122 l 390 1122 l 425 1014 l 435 1017 l 465 1122 l 467 1122 l 474 1025 l 461 1022 l 461 1017 l 506 1017 l 506 1022 l 493 1025 l 485 1126 l 499 1131 l 499 1136 l 461 1136 l 435 1044 l 426 1072 l 406 1136 l 367 1136 l 367 1131 l 382 1126 l 375 1026 l 361 1022 l 361 1017 l 400 1017 z m 564 1131 b 593 1075 582 1131 593 1108 b 565 1022 593 1042 582 1022 b 536 1078 546 1022 536 1044 b 564 1131 536 1111 547 1131 z m 192 1128 l 207 1128 b 239 1076 228 1128 239 1113 b 207 1024 239 1043 228 1024 l 192 1025 z m 615 250 l 579 75 l 306 75 l 306 450 l 513 447 l 536 346 l 586 346 l 586 618 l 536 618 l 513 519 l 306 517 l 306 876 l 565 876 l 599 703 l 653 703 l 653 944 l 50 944 l 50 900 l 154 875 l 154 69 l 50 44 l 50 0 l 669 0 l 669 250 z "},"Ê":{"ha":728,"x_min":0,"x_max":0,"o":"m 564 1014 b 614 1078 596 1014 614 1039 b 565 1139 614 1117 594 1139 b 515 1075 533 1139 515 1113 b 564 1014 515 1036 535 1014 z m 260 1079 b 207 1136 260 1122 236 1136 l 160 1136 l 160 1131 l 174 1128 l 174 1025 l 160 1022 l 160 1017 l 207 1017 b 260 1079 242 1017 260 1039 z m 351 1049 l 344 1049 l 340 1026 l 306 1026 l 306 1074 l 332 1074 l 335 1060 l 340 1060 l 340 1094 l 335 1094 l 332 1082 l 306 1082 l 306 1128 l 339 1128 l 343 1106 l 349 1106 l 349 1136 l 274 1136 l 274 1131 l 286 1128 l 286 1025 l 274 1022 l 274 1017 l 351 1017 z m 400 1022 l 386 1025 l 389 1122 l 390 1122 l 425 1014 l 435 1017 l 465 1122 l 467 1122 l 474 1025 l 461 1022 l 461 1017 l 506 1017 l 506 1022 l 493 1025 l 485 1126 l 499 1131 l 499 1136 l 461 1136 l 435 1044 l 426 1072 l 406 1136 l 367 1136 l 367 1131 l 382 1126 l 375 1026 l 361 1022 l 361 1017 l 400 1017 z m 564 1131 b 593 1075 582 1131 593 1108 b 565 1022 593 1042 582 1022 b 536 1078 546 1022 536 1044 b 564 1131 536 1111 547 1131 z m 192 1128 l 207 1128 b 239 1076 228 1128 239 1113 b 207 1024 239 1043 228 1024 l 192 1025 z m 615 250 l 579 75 l 306 75 l 306 450 l 513 447 l 536 346 l 586 346 l 586 618 l 536 618 l 513 519 l 306 517 l 306 876 l 565 876 l 599 703 l 653 703 l 653 944 l 50 944 l 50 900 l 154 875 l 154 69 l 50 44 l 50 0 l 669 0 l 669 250 z "},"Ë":{"ha":728,"x_min":0,"x_max":0,"o":"m 544 1000 b 594 1064 576 1000 594 1025 b 546 1125 594 1103 575 1125 b 496 1061 514 1125 496 1099 b 544 1000 496 1022 515 1000 z m 240 1065 b 188 1122 240 1108 217 1122 l 140 1122 l 140 1117 l 154 1114 l 154 1011 l 140 1008 l 140 1003 l 188 1003 b 240 1065 222 1003 240 1025 z m 332 1035 l 325 1035 l 321 1013 l 286 1013 l 286 1060 l 313 1060 l 315 1046 l 321 1046 l 321 1081 l 315 1081 l 313 1068 l 286 1068 l 286 1114 l 319 1114 l 324 1092 l 329 1092 l 329 1122 l 254 1122 l 254 1117 l 267 1114 l 267 1011 l 254 1008 l 254 1003 l 332 1003 z m 381 1008 l 367 1011 l 369 1108 l 371 1108 l 406 1000 l 415 1003 l 446 1108 l 447 1108 l 454 1011 l 442 1008 l 442 1003 l 486 1003 l 486 1008 l 474 1011 l 465 1113 l 479 1117 l 479 1122 l 442 1122 l 415 1031 l 407 1058 l 386 1122 l 347 1122 l 347 1117 l 363 1113 l 356 1013 l 342 1008 l 342 1003 l 381 1003 z m 544 1117 b 574 1061 563 1117 574 1094 b 546 1008 574 1028 563 1008 b 517 1064 526 1008 517 1031 b 544 1117 517 1097 528 1117 z m 172 1114 l 188 1114 b 219 1063 208 1114 219 1099 b 188 1010 219 1029 208 1010 l 172 1011 z m 615 250 l 579 75 l 306 75 l 306 450 l 513 447 l 536 346 l 586 346 l 586 618 l 536 618 l 513 519 l 306 517 l 306 876 l 565 876 l 599 703 l 653 703 l 653 944 l 50 944 l 50 900 l 154 875 l 154 69 l 50 44 l 50 0 l 669 0 l 669 250 z "},"Ė":{"ha":728,"x_min":0,"x_max":0,"o":"m 543 1014 b 593 1078 575 1014 593 1039 b 544 1139 593 1117 574 1139 b 494 1075 513 1139 494 1113 b 543 1014 494 1036 514 1014 z m 239 1079 b 186 1136 239 1122 215 1136 l 139 1136 l 139 1131 l 153 1128 l 153 1025 l 139 1022 l 139 1017 l 186 1017 b 239 1079 221 1017 239 1039 z m 331 1049 l 324 1049 l 319 1026 l 285 1026 l 285 1074 l 311 1074 l 314 1060 l 319 1060 l 319 1094 l 314 1094 l 311 1082 l 285 1082 l 285 1128 l 318 1128 l 322 1106 l 328 1106 l 328 1136 l 253 1136 l 253 1131 l 265 1128 l 265 1025 l 253 1022 l 253 1017 l 331 1017 z m 379 1022 l 365 1025 l 368 1122 l 369 1122 l 404 1014 l 414 1017 l 444 1122 l 446 1122 l 453 1025 l 440 1022 l 440 1017 l 485 1017 l 485 1022 l 472 1025 l 464 1126 l 478 1131 l 478 1136 l 440 1136 l 414 1044 l 406 1072 l 385 1136 l 346 1136 l 346 1131 l 361 1126 l 354 1026 l 340 1022 l 340 1017 l 379 1017 z m 543 1131 b 572 1075 561 1131 572 1108 b 544 1022 572 1042 561 1022 b 515 1078 525 1022 515 1044 b 543 1131 515 1111 526 1131 z m 171 1128 l 186 1128 b 218 1076 207 1128 218 1113 b 186 1024 218 1043 207 1024 l 171 1025 z m 615 250 l 579 75 l 306 75 l 306 450 l 513 447 l 536 346 l 586 346 l 586 618 l 536 618 l 513 519 l 306 517 l 306 876 l 565 876 l 599 703 l 653 703 l 653 944 l 50 944 l 50 900 l 154 875 l 154 69 l 50 44 l 50 0 l 669 0 l 669 250 z "},"È":{"ha":728,"x_min":0,"x_max":0,"o":"m 543 1014 b 593 1078 575 1014 593 1039 b 544 1139 593 1117 574 1139 b 494 1075 513 1139 494 1113 b 543 1014 494 1036 514 1014 z m 239 1079 b 186 1136 239 1122 215 1136 l 139 1136 l 139 1131 l 153 1128 l 153 1025 l 139 1022 l 139 1017 l 186 1017 b 239 1079 221 1017 239 1039 z m 331 1049 l 324 1049 l 319 1026 l 285 1026 l 285 1074 l 311 1074 l 314 1060 l 319 1060 l 319 1094 l 314 1094 l 311 1082 l 285 1082 l 285 1128 l 318 1128 l 322 1106 l 328 1106 l 328 1136 l 253 1136 l 253 1131 l 265 1128 l 265 1025 l 253 1022 l 253 1017 l 331 1017 z m 379 1022 l 365 1025 l 368 1122 l 369 1122 l 404 1014 l 414 1017 l 444 1122 l 446 1122 l 453 1025 l 440 1022 l 440 1017 l 485 1017 l 485 1022 l 472 1025 l 464 1126 l 478 1131 l 478 1136 l 440 1136 l 414 1044 l 406 1072 l 385 1136 l 346 1136 l 346 1131 l 361 1126 l 354 1026 l 340 1022 l 340 1017 l 379 1017 z m 543 1131 b 572 1075 561 1131 572 1108 b 544 1022 572 1042 561 1022 b 515 1078 525 1022 515 1044 b 543 1131 515 1111 526 1131 z m 171 1128 l 186 1128 b 218 1076 207 1128 218 1113 b 186 1024 218 1043 207 1024 l 171 1025 z m 615 250 l 579 75 l 306 75 l 306 450 l 513 447 l 536 346 l 586 346 l 586 618 l 536 618 l 513 519 l 306 517 l 306 876 l 565 876 l 599 703 l 653 703 l 653 944 l 50 944 l 50 900 l 154 875 l 154 69 l 50 44 l 50 0 l 669 0 l 669 250 z "},"Ē":{"ha":728,"x_min":0,"x_max":0,"o":"m 544 1014 b 594 1078 576 1014 594 1039 b 546 1139 594 1117 575 1139 b 496 1075 514 1139 496 1113 b 544 1014 496 1036 515 1014 z m 240 1079 b 188 1136 240 1122 217 1136 l 140 1136 l 140 1131 l 154 1128 l 154 1025 l 140 1022 l 140 1017 l 188 1017 b 240 1079 222 1017 240 1039 z m 332 1049 l 325 1049 l 321 1026 l 286 1026 l 286 1074 l 313 1074 l 315 1060 l 321 1060 l 321 1094 l 315 1094 l 313 1082 l 286 1082 l 286 1128 l 319 1128 l 324 1106 l 329 1106 l 329 1136 l 254 1136 l 254 1131 l 267 1128 l 267 1025 l 254 1022 l 254 1017 l 332 1017 z m 381 1022 l 367 1025 l 369 1122 l 371 1122 l 406 1014 l 415 1017 l 446 1122 l 447 1122 l 454 1025 l 442 1022 l 442 1017 l 486 1017 l 486 1022 l 474 1025 l 465 1126 l 479 1131 l 479 1136 l 442 1136 l 415 1044 l 407 1072 l 386 1136 l 347 1136 l 347 1131 l 363 1126 l 356 1026 l 342 1022 l 342 1017 l 381 1017 z m 544 1131 b 574 1075 563 1131 574 1108 b 546 1022 574 1042 563 1022 b 517 1078 526 1022 517 1044 b 544 1131 517 1111 528 1131 z m 172 1128 l 188 1128 b 219 1076 208 1128 219 1113 b 188 1024 219 1043 208 1024 l 172 1025 z m 615 250 l 579 75 l 306 75 l 306 450 l 513 447 l 536 346 l 586 346 l 586 618 l 536 618 l 513 519 l 306 517 l 306 876 l 565 876 l 599 703 l 653 703 l 653 944 l 50 944 l 50 900 l 154 875 l 154 69 l 50 44 l 50 0 l 669 0 l 669 250 z "},"Ę":{"ha":728,"x_min":0,"x_max":0,"o":"m 564 1014 b 614 1078 596 1014 614 1039 b 565 1139 614 1117 594 1139 b 515 1075 533 1139 515 1113 b 564 1014 515 1036 535 1014 z m 260 1079 b 207 1136 260 1122 236 1136 l 160 1136 l 160 1131 l 174 1128 l 174 1025 l 160 1022 l 160 1017 l 207 1017 b 260 1079 242 1017 260 1039 z m 351 1049 l 344 1049 l 340 1026 l 306 1026 l 306 1074 l 332 1074 l 335 1060 l 340 1060 l 340 1094 l 335 1094 l 332 1082 l 306 1082 l 306 1128 l 339 1128 l 343 1106 l 349 1106 l 349 1136 l 274 1136 l 274 1131 l 286 1128 l 286 1025 l 274 1022 l 274 1017 l 351 1017 z m 400 1022 l 386 1025 l 389 1122 l 390 1122 l 425 1014 l 435 1017 l 465 1122 l 467 1122 l 474 1025 l 461 1022 l 461 1017 l 506 1017 l 506 1022 l 493 1025 l 485 1126 l 499 1131 l 499 1136 l 461 1136 l 435 1044 l 426 1072 l 406 1136 l 367 1136 l 367 1131 l 382 1126 l 375 1026 l 361 1022 l 361 1017 l 400 1017 z m 564 1131 b 593 1075 582 1131 593 1108 b 565 1022 593 1042 582 1022 b 536 1078 546 1022 536 1044 b 564 1131 536 1111 547 1131 z m 192 1128 l 207 1128 b 239 1076 228 1128 239 1113 b 207 1024 239 1043 228 1024 l 192 1025 z m 615 250 l 579 75 l 306 75 l 306 450 l 513 447 l 536 346 l 586 346 l 586 618 l 536 618 l 513 519 l 306 517 l 306 876 l 565 876 l 599 703 l 653 703 l 653 944 l 50 944 l 50 900 l 154 875 l 154 69 l 50 44 l 50 0 l 669 0 l 669 250 z "},"F":{"ha":699,"x_min":0,"x_max":0,"o":"m 651 944 l 50 944 l 50 900 l 154 875 l 154 69 l 50 44 l 50 0 l 431 0 l 431 44 l 306 74 l 306 433 l 511 431 l 535 326 l 585 326 l 585 604 l 535 604 l 511 503 l 306 500 l 306 876 l 564 876 l 597 703 l 651 703 z "},"G":{"ha":853,"x_min":0,"x_max":0,"o":"m 825 431 l 511 431 l 511 388 l 610 363 l 610 75 b 482 49 574 57 533 49 b 229 471 311 49 229 213 b 483 900 229 742 324 900 b 619 863 539 900 585 886 l 675 664 l 731 664 l 731 900 b 482 964 663 938 569 964 b 65 456 211 964 65 763 b 461 -19 65 153 233 -19 b 757 47 575 -19 679 11 l 757 363 l 825 388 z "},"Ğ":{"ha":853,"x_min":0,"x_max":0,"o":"m 643 1014 b 693 1078 675 1014 693 1039 b 644 1139 693 1117 674 1139 b 594 1075 613 1139 594 1113 b 643 1014 594 1036 614 1014 z m 339 1079 b 286 1136 339 1122 315 1136 l 239 1136 l 239 1131 l 253 1128 l 253 1025 l 239 1022 l 239 1017 l 286 1017 b 339 1079 321 1017 339 1039 z m 431 1049 l 424 1049 l 419 1026 l 385 1026 l 385 1074 l 411 1074 l 414 1060 l 419 1060 l 419 1094 l 414 1094 l 411 1082 l 385 1082 l 385 1128 l 418 1128 l 422 1106 l 428 1106 l 428 1136 l 353 1136 l 353 1131 l 365 1128 l 365 1025 l 353 1022 l 353 1017 l 431 1017 z m 479 1022 l 465 1025 l 468 1122 l 469 1122 l 504 1014 l 514 1017 l 544 1122 l 546 1122 l 553 1025 l 540 1022 l 540 1017 l 585 1017 l 585 1022 l 572 1025 l 564 1126 l 578 1131 l 578 1136 l 540 1136 l 514 1044 l 506 1072 l 485 1136 l 446 1136 l 446 1131 l 461 1126 l 454 1026 l 440 1022 l 440 1017 l 479 1017 z m 643 1131 b 672 1075 661 1131 672 1108 b 644 1022 672 1042 661 1022 b 615 1078 625 1022 615 1044 b 643 1131 615 1111 626 1131 z m 271 1128 l 286 1128 b 318 1076 307 1128 318 1113 b 286 1024 318 1043 307 1024 l 271 1025 z m 825 431 l 511 431 l 511 388 l 610 363 l 610 75 b 482 49 574 57 533 49 b 229 471 311 49 229 213 b 483 900 229 742 324 900 b 619 863 539 900 585 886 l 675 664 l 731 664 l 731 900 b 482 964 663 938 569 964 b 65 456 211 964 65 763 b 461 -19 65 153 233 -19 b 757 47 575 -19 679 11 l 757 363 l 825 388 z "},"Ĝ":{"ha":853,"x_min":0,"x_max":0,"o":"m 644 1014 b 694 1078 676 1014 694 1039 b 646 1139 694 1117 675 1139 b 596 1075 614 1139 596 1113 b 644 1014 596 1036 615 1014 z m 340 1079 b 288 1136 340 1122 317 1136 l 240 1136 l 240 1131 l 254 1128 l 254 1025 l 240 1022 l 240 1017 l 288 1017 b 340 1079 322 1017 340 1039 z m 432 1049 l 425 1049 l 421 1026 l 386 1026 l 386 1074 l 413 1074 l 415 1060 l 421 1060 l 421 1094 l 415 1094 l 413 1082 l 386 1082 l 386 1128 l 419 1128 l 424 1106 l 429 1106 l 429 1136 l 354 1136 l 354 1131 l 367 1128 l 367 1025 l 354 1022 l 354 1017 l 432 1017 z m 481 1022 l 467 1025 l 469 1122 l 471 1122 l 506 1014 l 515 1017 l 546 1122 l 547 1122 l 554 1025 l 542 1022 l 542 1017 l 586 1017 l 586 1022 l 574 1025 l 565 1126 l 579 1131 l 579 1136 l 542 1136 l 515 1044 l 507 1072 l 486 1136 l 447 1136 l 447 1131 l 463 1126 l 456 1026 l 442 1022 l 442 1017 l 481 1017 z m 644 1131 b 674 1075 663 1131 674 1108 b 646 1022 674 1042 663 1022 b 617 1078 626 1022 617 1044 b 644 1131 617 1111 628 1131 z m 272 1128 l 288 1128 b 319 1076 308 1128 319 1113 b 288 1024 319 1043 308 1024 l 272 1025 z m 825 431 l 511 431 l 511 388 l 610 363 l 610 75 b 482 49 574 57 533 49 b 229 471 311 49 229 213 b 483 900 229 742 324 900 b 619 863 539 900 585 886 l 675 664 l 731 664 l 731 900 b 482 964 663 938 569 964 b 65 456 211 964 65 763 b 461 -19 65 153 233 -19 b 757 47 575 -19 679 11 l 757 363 l 825 388 z "},"Ģ":{"ha":853,"x_min":0,"x_max":0,"o":"m 639 1014 b 689 1078 671 1014 689 1039 b 640 1139 689 1117 669 1139 b 590 1075 608 1139 590 1113 b 639 1014 590 1036 610 1014 z m 335 1079 b 282 1136 335 1122 311 1136 l 235 1136 l 235 1131 l 249 1128 l 249 1025 l 235 1022 l 235 1017 l 282 1017 b 335 1079 317 1017 335 1039 z m 426 1049 l 419 1049 l 415 1026 l 381 1026 l 381 1074 l 407 1074 l 410 1060 l 415 1060 l 415 1094 l 410 1094 l 407 1082 l 381 1082 l 381 1128 l 414 1128 l 418 1106 l 424 1106 l 424 1136 l 349 1136 l 349 1131 l 361 1128 l 361 1025 l 349 1022 l 349 1017 l 426 1017 z m 475 1022 l 461 1025 l 464 1122 l 465 1122 l 500 1014 l 510 1017 l 540 1122 l 542 1122 l 549 1025 l 536 1022 l 536 1017 l 581 1017 l 581 1022 l 568 1025 l 560 1126 l 574 1131 l 574 1136 l 536 1136 l 510 1044 l 501 1072 l 481 1136 l 442 1136 l 442 1131 l 457 1126 l 450 1026 l 436 1022 l 436 1017 l 475 1017 z m 639 1131 b 668 1075 657 1131 668 1108 b 640 1022 668 1042 657 1022 b 611 1078 621 1022 611 1044 b 639 1131 611 1111 622 1131 z m 267 1128 l 282 1128 b 314 1076 303 1128 314 1113 b 282 1024 314 1043 303 1024 l 267 1025 z m 825 431 l 511 431 l 511 388 l 610 363 l 610 75 b 482 49 574 57 533 49 b 229 471 311 49 229 213 b 483 900 229 742 324 900 b 619 863 539 900 585 886 l 675 664 l 731 664 l 731 900 b 482 964 663 938 569 964 b 65 456 211 964 65 763 b 461 -19 65 153 233 -19 b 757 47 575 -19 679 11 l 757 363 l 825 388 z "},"Ġ":{"ha":853,"x_min":0,"x_max":0,"o":"m 643 1014 b 693 1078 675 1014 693 1039 b 644 1139 693 1117 674 1139 b 594 1075 613 1139 594 1113 b 643 1014 594 1036 614 1014 z m 339 1079 b 286 1136 339 1122 315 1136 l 239 1136 l 239 1131 l 253 1128 l 253 1025 l 239 1022 l 239 1017 l 286 1017 b 339 1079 321 1017 339 1039 z m 431 1049 l 424 1049 l 419 1026 l 385 1026 l 385 1074 l 411 1074 l 414 1060 l 419 1060 l 419 1094 l 414 1094 l 411 1082 l 385 1082 l 385 1128 l 418 1128 l 422 1106 l 428 1106 l 428 1136 l 353 1136 l 353 1131 l 365 1128 l 365 1025 l 353 1022 l 353 1017 l 431 1017 z m 479 1022 l 465 1025 l 468 1122 l 469 1122 l 504 1014 l 514 1017 l 544 1122 l 546 1122 l 553 1025 l 540 1022 l 540 1017 l 585 1017 l 585 1022 l 572 1025 l 564 1126 l 578 1131 l 578 1136 l 540 1136 l 514 1044 l 506 1072 l 485 1136 l 446 1136 l 446 1131 l 461 1126 l 454 1026 l 440 1022 l 440 1017 l 479 1017 z m 643 1131 b 672 1075 661 1131 672 1108 b 644 1022 672 1042 661 1022 b 615 1078 625 1022 615 1044 b 643 1131 615 1111 626 1131 z m 271 1128 l 286 1128 b 318 1076 307 1128 318 1113 b 286 1024 318 1043 307 1024 l 271 1025 z m 825 431 l 511 431 l 511 388 l 610 363 l 610 75 b 482 49 574 57 533 49 b 229 471 311 49 229 213 b 483 900 229 742 324 900 b 619 863 539 900 585 886 l 675 664 l 731 664 l 731 900 b 482 964 663 938 569 964 b 65 456 211 964 65 763 b 461 -19 65 153 233 -19 b 757 47 575 -19 679 11 l 757 363 l 825 388 z "},"H":{"ha":956,"x_min":0,"x_max":0,"o":"m 906 900 l 906 944 l 547 944 l 547 900 l 650 875 l 650 519 l 306 519 l 306 875 l 408 900 l 408 944 l 50 944 l 50 900 l 154 875 l 154 69 l 50 44 l 50 0 l 408 0 l 408 44 l 306 69 l 306 447 l 650 447 l 650 69 l 547 44 l 547 0 l 906 0 l 906 44 l 801 69 l 801 875 z "},"Ħ":{"ha":956,"x_min":0,"x_max":0,"o":"m 656 1014 b 706 1078 688 1014 706 1039 b 657 1139 706 1117 686 1139 b 607 1075 625 1139 607 1113 b 656 1014 607 1036 626 1014 z m 351 1079 b 299 1136 351 1122 328 1136 l 251 1136 l 251 1131 l 265 1128 l 265 1025 l 251 1022 l 251 1017 l 299 1017 b 351 1079 333 1017 351 1039 z m 443 1049 l 436 1049 l 432 1026 l 397 1026 l 397 1074 l 424 1074 l 426 1060 l 432 1060 l 432 1094 l 426 1094 l 424 1082 l 397 1082 l 397 1128 l 431 1128 l 435 1106 l 440 1106 l 440 1136 l 365 1136 l 365 1131 l 378 1128 l 378 1025 l 365 1022 l 365 1017 l 443 1017 z m 492 1022 l 478 1025 l 481 1122 l 482 1122 l 517 1014 l 526 1017 l 557 1122 l 558 1122 l 565 1025 l 553 1022 l 553 1017 l 597 1017 l 597 1022 l 585 1025 l 576 1126 l 590 1131 l 590 1136 l 553 1136 l 526 1044 l 518 1072 l 497 1136 l 458 1136 l 458 1131 l 474 1126 l 467 1026 l 453 1022 l 453 1017 l 492 1017 z m 656 1131 b 685 1075 674 1131 685 1108 b 657 1022 685 1042 674 1022 b 628 1078 638 1022 628 1044 b 656 1131 628 1111 639 1131 z m 283 1128 l 299 1128 b 331 1076 319 1128 331 1113 b 299 1024 331 1043 319 1024 l 283 1025 z m 906 900 l 906 944 l 547 944 l 547 900 l 650 875 l 650 519 l 306 519 l 306 875 l 408 900 l 408 944 l 50 944 l 50 900 l 154 875 l 154 69 l 50 44 l 50 0 l 408 0 l 408 44 l 306 69 l 306 447 l 650 447 l 650 69 l 547 44 l 547 0 l 906 0 l 906 44 l 801 69 l 801 875 z "},"Ĥ":{"ha":956,"x_min":0,"x_max":0,"o":"m 656 1014 b 706 1078 688 1014 706 1039 b 657 1139 706 1117 686 1139 b 607 1075 625 1139 607 1113 b 656 1014 607 1036 626 1014 z m 351 1079 b 299 1136 351 1122 328 1136 l 251 1136 l 251 1131 l 265 1128 l 265 1025 l 251 1022 l 251 1017 l 299 1017 b 351 1079 333 1017 351 1039 z m 443 1049 l 436 1049 l 432 1026 l 397 1026 l 397 1074 l 424 1074 l 426 1060 l 432 1060 l 432 1094 l 426 1094 l 424 1082 l 397 1082 l 397 1128 l 431 1128 l 435 1106 l 440 1106 l 440 1136 l 365 1136 l 365 1131 l 378 1128 l 378 1025 l 365 1022 l 365 1017 l 443 1017 z m 492 1022 l 478 1025 l 481 1122 l 482 1122 l 517 1014 l 526 1017 l 557 1122 l 558 1122 l 565 1025 l 553 1022 l 553 1017 l 597 1017 l 597 1022 l 585 1025 l 576 1126 l 590 1131 l 590 1136 l 553 1136 l 526 1044 l 518 1072 l 497 1136 l 458 1136 l 458 1131 l 474 1126 l 467 1026 l 453 1022 l 453 1017 l 492 1017 z m 656 1131 b 685 1075 674 1131 685 1108 b 657 1022 685 1042 674 1022 b 628 1078 638 1022 628 1044 b 656 1131 628 1111 639 1131 z m 283 1128 l 299 1128 b 331 1076 319 1128 331 1113 b 299 1024 331 1043 319 1024 l 283 1025 z m 906 900 l 906 944 l 547 944 l 547 900 l 650 875 l 650 519 l 306 519 l 306 875 l 408 900 l 408 944 l 50 944 l 50 900 l 154 875 l 154 69 l 50 44 l 50 0 l 408 0 l 408 44 l 306 69 l 306 447 l 650 447 l 650 69 l 547 44 l 547 0 l 906 0 l 906 44 l 801 69 l 801 875 z "},"I":{"ha":463,"x_min":0,"x_max":0,"o":"m 413 900 l 413 944 l 50 944 l 50 900 l 156 875 l 156 69 l 50 44 l 50 0 l 413 0 l 413 44 l 307 69 l 307 875 z "},"Ĳ":{"ha":732,"x_min":0,"x_max":0,"o":"m 508 910 b 363 1025 508 983 451 1025 b 224 915 274 1025 224 981 b 369 800 224 842 285 800 b 508 910 458 800 508 844 z m 489 915 b 363 847 489 869 439 847 b 243 910 288 847 243 874 b 369 978 243 951 293 978 b 489 915 444 978 489 951 z m 508 594 l 503 617 l 261 686 l 261 689 l 483 706 l 489 676 l 503 676 l 503 778 l 489 778 l 483 750 l 253 731 l 243 763 l 229 763 l 229 676 l 439 617 l 229 550 l 229 461 l 243 461 l 253 496 l 479 479 l 489 449 l 503 449 l 503 538 l 489 538 l 483 506 l 261 511 l 261 514 z m 503 249 l 503 426 l 429 426 l 429 411 l 479 401 l 479 322 l 372 322 l 372 382 l 403 388 l 403 401 l 325 401 l 325 388 l 353 382 l 353 322 l 249 322 l 249 399 l 300 408 l 300 419 l 229 419 l 229 249 l 243 249 l 249 278 l 483 278 l 489 249 z m 503 -11 l 503 97 b 360 217 503 175 451 217 b 229 97 261 217 229 164 l 229 -11 l 243 -11 l 249 21 l 483 21 l 489 -11 z m 486 97 l 483 63 l 249 63 l 249 97 b 365 169 249 144 285 169 b 486 97 442 169 486 144 z "},"Í":{"ha":464,"x_min":0,"x_max":0,"o":"m 431 1139 b 381 1075 399 1139 381 1113 b 429 1014 381 1036 400 1014 b 479 1078 461 1014 479 1039 b 431 1139 479 1117 460 1139 z m 125 1079 b 72 1136 125 1122 101 1136 l 25 1136 l 25 1131 l 39 1128 l 39 1025 l 25 1022 l 25 1017 l 72 1017 b 125 1079 107 1017 125 1039 z m 217 1049 l 210 1049 l 206 1026 l 171 1026 l 171 1074 l 197 1074 l 200 1060 l 206 1060 l 206 1094 l 200 1094 l 197 1082 l 171 1082 l 171 1128 l 204 1128 l 208 1106 l 214 1106 l 214 1136 l 139 1136 l 139 1131 l 151 1128 l 151 1025 l 139 1022 l 139 1017 l 217 1017 z m 265 1022 l 251 1025 l 254 1122 l 256 1122 l 290 1014 l 300 1017 l 331 1122 l 332 1122 l 339 1025 l 326 1022 l 326 1017 l 371 1017 l 371 1022 l 358 1025 l 350 1126 l 364 1131 l 364 1136 l 326 1136 l 300 1044 l 292 1072 l 271 1136 l 232 1136 l 232 1131 l 247 1126 l 240 1026 l 226 1022 l 226 1017 l 265 1017 z m 431 1022 b 401 1078 411 1022 401 1044 b 429 1131 401 1111 413 1131 b 458 1075 447 1131 458 1108 b 431 1022 458 1042 447 1022 z m 57 1128 l 72 1128 b 104 1076 93 1128 104 1113 b 72 1024 104 1043 93 1024 l 57 1025 z m 413 944 l 50 944 l 50 900 l 156 875 l 156 69 l 50 44 l 50 0 l 413 0 l 413 44 l 307 69 l 307 875 l 413 900 z "},"Ĭ":{"ha":463,"x_min":0,"x_max":0,"o":"m 411 1139 b 361 1075 379 1139 361 1113 b 410 1014 361 1036 381 1014 b 460 1078 442 1014 460 1039 b 411 1139 460 1117 440 1139 z m 106 1079 b 53 1136 106 1122 82 1136 l 6 1136 l 6 1131 l 19 1128 l 19 1025 l 6 1022 l 6 1017 l 53 1017 b 106 1079 88 1017 106 1039 z m 197 1049 l 190 1049 l 186 1026 l 151 1026 l 151 1074 l 178 1074 l 181 1060 l 186 1060 l 186 1094 l 181 1094 l 178 1082 l 151 1082 l 151 1128 l 185 1128 l 189 1106 l 194 1106 l 194 1136 l 119 1136 l 119 1131 l 132 1128 l 132 1025 l 119 1022 l 119 1017 l 197 1017 z m 246 1022 l 232 1025 l 235 1122 l 236 1122 l 271 1014 l 281 1017 l 311 1122 l 313 1122 l 319 1025 l 307 1022 l 307 1017 l 351 1017 l 351 1022 l 339 1025 l 331 1126 l 344 1131 l 344 1136 l 307 1136 l 281 1044 l 272 1072 l 251 1136 l 213 1136 l 213 1131 l 228 1126 l 221 1026 l 207 1022 l 207 1017 l 246 1017 z m 411 1022 b 382 1078 392 1022 382 1044 b 410 1131 382 1111 393 1131 b 439 1075 428 1131 439 1108 b 411 1022 439 1042 428 1022 z m 38 1128 l 53 1128 b 85 1076 74 1128 85 1113 b 53 1024 85 1043 74 1024 l 38 1025 z m 413 944 l 50 944 l 50 900 l 156 875 l 156 69 l 50 44 l 50 0 l 413 0 l 413 44 l 307 69 l 307 875 l 413 900 z "},"Î":{"ha":463,"x_min":0,"x_max":0,"o":"m 411 1139 b 361 1075 379 1139 361 1113 b 410 1014 361 1036 381 1014 b 460 1078 442 1014 460 1039 b 411 1139 460 1117 440 1139 z m 106 1079 b 53 1136 106 1122 82 1136 l 6 1136 l 6 1131 l 19 1128 l 19 1025 l 6 1022 l 6 1017 l 53 1017 b 106 1079 88 1017 106 1039 z m 197 1049 l 190 1049 l 186 1026 l 151 1026 l 151 1074 l 178 1074 l 181 1060 l 186 1060 l 186 1094 l 181 1094 l 178 1082 l 151 1082 l 151 1128 l 185 1128 l 189 1106 l 194 1106 l 194 1136 l 119 1136 l 119 1131 l 132 1128 l 132 1025 l 119 1022 l 119 1017 l 197 1017 z m 246 1022 l 232 1025 l 235 1122 l 236 1122 l 271 1014 l 281 1017 l 311 1122 l 313 1122 l 319 1025 l 307 1022 l 307 1017 l 351 1017 l 351 1022 l 339 1025 l 331 1126 l 344 1131 l 344 1136 l 307 1136 l 281 1044 l 272 1072 l 251 1136 l 213 1136 l 213 1131 l 228 1126 l 221 1026 l 207 1022 l 207 1017 l 246 1017 z m 411 1022 b 382 1078 392 1022 382 1044 b 410 1131 382 1111 393 1131 b 439 1075 428 1131 439 1108 b 411 1022 439 1042 428 1022 z m 38 1128 l 53 1128 b 85 1076 74 1128 85 1113 b 53 1024 85 1043 74 1024 l 38 1025 z m 413 944 l 50 944 l 50 900 l 156 875 l 156 69 l 50 44 l 50 0 l 413 0 l 413 44 l 307 69 l 307 875 l 413 900 z "},"Ï":{"ha":463,"x_min":0,"x_max":0,"o":"m 361 1061 b 411 1125 361 1099 379 1125 b 460 1064 440 1125 460 1103 b 410 1000 460 1025 442 1000 b 361 1061 381 1000 361 1022 z m 6 1008 l 19 1011 l 19 1114 l 6 1117 l 6 1122 l 53 1122 b 106 1065 82 1122 106 1108 b 53 1003 106 1025 88 1003 l 6 1003 z m 197 1035 l 197 1003 l 119 1003 l 119 1008 l 132 1011 l 132 1114 l 119 1117 l 119 1122 l 194 1122 l 194 1092 l 189 1092 l 185 1114 l 151 1114 l 151 1068 l 178 1068 l 181 1081 l 186 1081 l 186 1046 l 181 1046 l 178 1060 l 151 1060 l 151 1013 l 186 1013 l 190 1035 z m 351 1008 l 351 1003 l 307 1003 l 307 1008 l 319 1011 l 313 1108 l 311 1108 l 281 1003 l 271 1000 l 236 1108 l 235 1108 l 232 1011 l 246 1008 l 246 1003 l 207 1003 l 207 1008 l 221 1013 l 228 1113 l 213 1117 l 213 1122 l 251 1122 l 272 1058 l 281 1031 l 307 1122 l 344 1122 l 344 1117 l 331 1113 l 339 1011 z m 439 1061 b 410 1117 439 1094 428 1117 b 382 1064 393 1117 382 1097 b 411 1008 382 1031 392 1008 b 439 1061 428 1008 439 1028 z m 85 1063 b 53 1114 85 1099 74 1114 l 38 1114 l 38 1011 l 53 1010 b 85 1063 74 1010 85 1029 z m 413 900 l 413 944 l 50 944 l 50 900 l 156 875 l 156 69 l 50 44 l 50 0 l 413 0 l 413 44 l 307 69 l 307 875 z "},"İ":{"ha":464,"x_min":0,"x_max":0,"o":"m 408 1014 b 458 1078 440 1014 458 1039 b 410 1139 458 1117 439 1139 b 360 1075 378 1139 360 1113 b 408 1014 360 1036 379 1014 z m 4 1017 l 51 1017 b 104 1079 86 1017 104 1039 b 51 1136 104 1122 81 1136 l 4 1136 l 4 1131 l 18 1128 l 18 1025 l 4 1022 z m 118 1017 l 196 1017 l 196 1049 l 189 1049 l 185 1026 l 150 1026 l 150 1074 l 176 1074 l 179 1060 l 185 1060 l 185 1094 l 179 1094 l 176 1082 l 150 1082 l 150 1128 l 183 1128 l 188 1106 l 193 1106 l 193 1136 l 118 1136 l 118 1131 l 131 1128 l 131 1025 l 118 1022 z m 269 1014 l 279 1017 l 310 1122 l 311 1122 l 318 1025 l 306 1022 l 306 1017 l 350 1017 l 350 1022 l 338 1025 l 329 1126 l 343 1131 l 343 1136 l 306 1136 l 279 1044 l 271 1072 l 250 1136 l 211 1136 l 211 1131 l 226 1126 l 219 1026 l 206 1022 l 206 1017 l 244 1017 l 244 1022 l 231 1025 l 233 1122 l 235 1122 z m 410 1022 b 381 1078 390 1022 381 1044 b 408 1131 381 1111 392 1131 b 438 1075 426 1131 438 1108 b 410 1022 438 1042 426 1022 z m 51 1024 l 36 1025 l 36 1128 l 51 1128 b 83 1076 72 1128 83 1113 b 51 1024 83 1043 72 1024 z m 413 900 l 413 944 l 50 944 l 50 900 l 156 875 l 156 69 l 50 44 l 50 0 l 413 0 l 413 44 l 307 69 l 307 875 z "},"Ì":{"ha":463,"x_min":0,"x_max":0,"o":"m 410 1014 b 460 1078 442 1014 460 1039 b 411 1139 460 1117 440 1139 b 361 1075 379 1139 361 1113 b 410 1014 361 1036 381 1014 z m 6 1017 l 53 1017 b 106 1079 88 1017 106 1039 b 53 1136 106 1122 82 1136 l 6 1136 l 6 1131 l 19 1128 l 19 1025 l 6 1022 z m 119 1017 l 197 1017 l 197 1049 l 190 1049 l 186 1026 l 151 1026 l 151 1074 l 178 1074 l 181 1060 l 186 1060 l 186 1094 l 181 1094 l 178 1082 l 151 1082 l 151 1128 l 185 1128 l 189 1106 l 194 1106 l 194 1136 l 119 1136 l 119 1131 l 132 1128 l 132 1025 l 119 1022 z m 271 1014 l 281 1017 l 311 1122 l 313 1122 l 319 1025 l 307 1022 l 307 1017 l 351 1017 l 351 1022 l 339 1025 l 331 1126 l 344 1131 l 344 1136 l 307 1136 l 281 1044 l 272 1072 l 251 1136 l 213 1136 l 213 1131 l 228 1126 l 221 1026 l 207 1022 l 207 1017 l 246 1017 l 246 1022 l 232 1025 l 235 1122 l 236 1122 z m 411 1022 b 382 1078 392 1022 382 1044 b 410 1131 382 1111 393 1131 b 439 1075 428 1131 439 1108 b 411 1022 439 1042 428 1022 z m 53 1024 l 38 1025 l 38 1128 l 53 1128 b 85 1076 74 1128 85 1113 b 53 1024 85 1043 74 1024 z m 413 900 l 413 944 l 50 944 l 50 900 l 156 875 l 156 69 l 50 44 l 50 0 l 413 0 l 413 44 l 307 69 l 307 875 z "},"Ī":{"ha":463,"x_min":0,"x_max":0,"o":"m 410 1014 b 460 1078 442 1014 460 1039 b 411 1139 460 1117 440 1139 b 361 1075 379 1139 361 1113 b 410 1014 361 1036 381 1014 z m 6 1017 l 53 1017 b 106 1079 88 1017 106 1039 b 53 1136 106 1122 82 1136 l 6 1136 l 6 1131 l 19 1128 l 19 1025 l 6 1022 z m 119 1017 l 197 1017 l 197 1049 l 190 1049 l 186 1026 l 151 1026 l 151 1074 l 178 1074 l 181 1060 l 186 1060 l 186 1094 l 181 1094 l 178 1082 l 151 1082 l 151 1128 l 185 1128 l 189 1106 l 194 1106 l 194 1136 l 119 1136 l 119 1131 l 132 1128 l 132 1025 l 119 1022 z m 271 1014 l 281 1017 l 311 1122 l 313 1122 l 319 1025 l 307 1022 l 307 1017 l 351 1017 l 351 1022 l 339 1025 l 331 1126 l 344 1131 l 344 1136 l 307 1136 l 281 1044 l 272 1072 l 251 1136 l 213 1136 l 213 1131 l 228 1126 l 221 1026 l 207 1022 l 207 1017 l 246 1017 l 246 1022 l 232 1025 l 235 1122 l 236 1122 z m 411 1022 b 382 1078 392 1022 382 1044 b 410 1131 382 1111 393 1131 b 439 1075 428 1131 439 1108 b 411 1022 439 1042 428 1022 z m 53 1024 l 38 1025 l 38 1128 l 53 1128 b 85 1076 74 1128 85 1113 b 53 1024 85 1043 74 1024 z m 413 900 l 413 944 l 50 944 l 50 900 l 156 875 l 156 69 l 50 44 l 50 0 l 413 0 l 413 44 l 307 69 l 307 875 z "},"Į":{"ha":463,"x_min":0,"x_max":0,"o":"m 426 1014 b 476 1078 458 1014 476 1039 b 428 1139 476 1117 457 1139 b 378 1075 396 1139 378 1113 b 426 1014 378 1036 397 1014 z m 22 1017 l 69 1017 b 122 1079 104 1017 122 1039 b 69 1136 122 1122 99 1136 l 22 1136 l 22 1131 l 36 1128 l 36 1025 l 22 1022 z m 136 1017 l 214 1017 l 214 1049 l 207 1049 l 203 1026 l 168 1026 l 168 1074 l 194 1074 l 197 1060 l 203 1060 l 203 1094 l 197 1094 l 194 1082 l 168 1082 l 168 1128 l 201 1128 l 206 1106 l 211 1106 l 211 1136 l 136 1136 l 136 1131 l 149 1128 l 149 1025 l 136 1022 z m 288 1014 l 297 1017 l 328 1122 l 329 1122 l 336 1025 l 324 1022 l 324 1017 l 368 1017 l 368 1022 l 356 1025 l 347 1126 l 361 1131 l 361 1136 l 324 1136 l 297 1044 l 289 1072 l 268 1136 l 229 1136 l 229 1131 l 244 1126 l 238 1026 l 224 1022 l 224 1017 l 263 1017 l 263 1022 l 249 1025 l 251 1122 l 253 1122 z m 428 1022 b 399 1078 408 1022 399 1044 b 426 1131 399 1111 410 1131 b 456 1075 444 1131 456 1108 b 428 1022 456 1042 444 1022 z m 69 1024 l 54 1025 l 54 1128 l 69 1128 b 101 1076 90 1128 101 1113 b 69 1024 101 1043 90 1024 z m 413 900 l 413 944 l 50 944 l 50 900 l 156 875 l 156 69 l 50 44 l 50 0 l 413 0 l 413 44 l 307 69 l 307 875 z "},"Ĩ":{"ha":464,"x_min":0,"x_max":0,"o":"m 407 1014 b 457 1078 439 1014 457 1039 b 408 1139 457 1117 438 1139 b 358 1075 376 1139 358 1113 b 407 1014 358 1036 378 1014 z m 3 1017 l 50 1017 b 103 1079 85 1017 103 1039 b 50 1136 103 1122 79 1136 l 3 1136 l 3 1131 l 17 1128 l 17 1025 l 3 1022 z m 117 1017 l 194 1017 l 194 1049 l 188 1049 l 183 1026 l 149 1026 l 149 1074 l 175 1074 l 178 1060 l 183 1060 l 183 1094 l 178 1094 l 175 1082 l 149 1082 l 149 1128 l 182 1128 l 186 1106 l 192 1106 l 192 1136 l 117 1136 l 117 1131 l 129 1128 l 129 1025 l 117 1022 z m 268 1014 l 278 1017 l 308 1122 l 310 1122 l 317 1025 l 304 1022 l 304 1017 l 349 1017 l 349 1022 l 336 1025 l 328 1126 l 342 1131 l 342 1136 l 304 1136 l 278 1044 l 269 1072 l 249 1136 l 210 1136 l 210 1131 l 225 1126 l 218 1026 l 204 1022 l 204 1017 l 243 1017 l 243 1022 l 229 1025 l 232 1122 l 233 1122 z m 408 1022 b 379 1078 389 1022 379 1044 b 407 1131 379 1111 390 1131 b 436 1075 425 1131 436 1108 b 408 1022 436 1042 425 1022 z m 50 1024 l 35 1025 l 35 1128 l 50 1128 b 82 1076 71 1128 82 1113 b 50 1024 82 1043 71 1024 z m 413 900 l 413 944 l 50 944 l 50 900 l 156 875 l 156 69 l 50 44 l 50 0 l 413 0 l 413 44 l 307 69 l 307 875 z "},"J":{"ha":490,"x_min":0,"x_max":0,"o":"m 443 944 l 65 944 l 65 900 l 188 874 l 188 144 b 40 -90 188 6 154 -78 l 43 -144 b 339 160 236 -137 339 -58 l 339 875 l 443 900 z "},"Ĵ":{"ha":490,"x_min":0,"x_max":0,"o":"m 433 1139 b 383 1075 401 1139 383 1113 b 432 1014 383 1036 403 1014 b 482 1078 464 1014 482 1039 b 433 1139 482 1117 463 1139 z m 128 1079 b 75 1136 128 1122 104 1136 l 28 1136 l 28 1131 l 42 1128 l 42 1025 l 28 1022 l 28 1017 l 75 1017 b 128 1079 110 1017 128 1039 z m 219 1049 l 213 1049 l 208 1026 l 174 1026 l 174 1074 l 200 1074 l 203 1060 l 208 1060 l 208 1094 l 203 1094 l 200 1082 l 174 1082 l 174 1128 l 207 1128 l 211 1106 l 217 1106 l 217 1136 l 142 1136 l 142 1131 l 154 1128 l 154 1025 l 142 1022 l 142 1017 l 219 1017 z m 268 1022 l 254 1025 l 257 1122 l 258 1122 l 293 1014 l 303 1017 l 333 1122 l 335 1122 l 342 1025 l 329 1022 l 329 1017 l 374 1017 l 374 1022 l 361 1025 l 353 1126 l 367 1131 l 367 1136 l 329 1136 l 303 1044 l 294 1072 l 274 1136 l 235 1136 l 235 1131 l 250 1126 l 243 1026 l 229 1022 l 229 1017 l 268 1017 z m 433 1022 b 404 1078 414 1022 404 1044 b 432 1131 404 1111 415 1131 b 461 1075 450 1131 461 1108 b 433 1022 461 1042 450 1022 z m 60 1128 l 75 1128 b 107 1076 96 1128 107 1113 b 75 1024 107 1043 96 1024 l 60 1025 z m 443 944 l 65 944 l 65 900 l 188 874 l 188 144 b 40 -90 188 6 154 -78 l 43 -144 b 339 160 236 -137 339 -58 l 339 875 l 443 900 z "},"K":{"ha":851,"x_min":0,"x_max":0,"o":"m 764 63 l 476 583 l 706 869 l 822 900 l 822 944 l 528 944 l 528 900 l 611 874 l 306 472 l 306 876 l 403 900 l 403 944 l 50 944 l 50 900 l 154 875 l 154 69 l 50 44 l 50 0 l 403 0 l 403 44 l 306 68 l 306 371 l 382 467 l 476 268 l 624 0 l 844 0 l 844 44 z "},"Ķ":{"ha":851,"x_min":0,"x_max":0,"o":"m 658 1014 b 708 1078 690 1014 708 1039 b 660 1139 708 1117 689 1139 b 610 1075 628 1139 610 1113 b 658 1014 610 1036 629 1014 z m 354 1079 b 301 1136 354 1122 331 1136 l 254 1136 l 254 1131 l 268 1128 l 268 1025 l 254 1022 l 254 1017 l 301 1017 b 354 1079 336 1017 354 1039 z m 446 1049 l 439 1049 l 435 1026 l 400 1026 l 400 1074 l 426 1074 l 429 1060 l 435 1060 l 435 1094 l 429 1094 l 426 1082 l 400 1082 l 400 1128 l 433 1128 l 438 1106 l 443 1106 l 443 1136 l 368 1136 l 368 1131 l 381 1128 l 381 1025 l 368 1022 l 368 1017 l 446 1017 z m 494 1022 l 481 1025 l 483 1122 l 485 1122 l 519 1014 l 529 1017 l 560 1122 l 561 1122 l 568 1025 l 556 1022 l 556 1017 l 600 1017 l 600 1022 l 588 1025 l 579 1126 l 593 1131 l 593 1136 l 556 1136 l 529 1044 l 521 1072 l 500 1136 l 461 1136 l 461 1131 l 476 1126 l 469 1026 l 456 1022 l 456 1017 l 494 1017 z m 658 1131 b 688 1075 676 1131 688 1108 b 660 1022 688 1042 676 1022 b 631 1078 640 1022 631 1044 b 658 1131 631 1111 642 1131 z m 286 1128 l 301 1128 b 333 1076 322 1128 333 1113 b 301 1024 333 1043 322 1024 l 286 1025 z m 764 63 l 476 583 l 706 869 l 822 900 l 822 944 l 528 944 l 528 900 l 611 874 l 306 472 l 306 876 l 403 900 l 403 944 l 50 944 l 50 900 l 154 875 l 154 69 l 50 44 l 50 0 l 403 0 l 403 44 l 306 68 l 306 371 l 382 467 l 476 268 l 624 0 l 844 0 l 844 44 z "},"L":{"ha":707,"x_min":0,"x_max":0,"o":"m 622 299 l 581 76 l 306 76 l 306 874 l 417 900 l 417 944 l 50 944 l 50 900 l 154 875 l 154 69 l 50 44 l 50 0 l 681 0 l 681 299 z "},"Ĺ":{"ha":707,"x_min":0,"x_max":0,"o":"m 428 1014 b 478 1078 460 1014 478 1039 b 429 1139 478 1117 458 1139 b 379 1075 397 1139 379 1113 b 428 1014 379 1036 399 1014 z m 124 1079 b 71 1136 124 1122 100 1136 l 24 1136 l 24 1131 l 38 1128 l 38 1025 l 24 1022 l 24 1017 l 71 1017 b 124 1079 106 1017 124 1039 z m 215 1049 l 208 1049 l 204 1026 l 169 1026 l 169 1074 l 196 1074 l 199 1060 l 204 1060 l 204 1094 l 199 1094 l 196 1082 l 169 1082 l 169 1128 l 203 1128 l 207 1106 l 213 1106 l 213 1136 l 138 1136 l 138 1131 l 150 1128 l 150 1025 l 138 1022 l 138 1017 l 215 1017 z m 264 1022 l 250 1025 l 253 1122 l 254 1122 l 289 1014 l 299 1017 l 329 1122 l 331 1122 l 338 1025 l 325 1022 l 325 1017 l 369 1017 l 369 1022 l 357 1025 l 349 1126 l 363 1131 l 363 1136 l 325 1136 l 299 1044 l 290 1072 l 269 1136 l 231 1136 l 231 1131 l 246 1126 l 239 1026 l 225 1022 l 225 1017 l 264 1017 z m 428 1131 b 457 1075 446 1131 457 1108 b 429 1022 457 1042 446 1022 b 400 1078 410 1022 400 1044 b 428 1131 400 1111 411 1131 z m 56 1128 l 71 1128 b 103 1076 92 1128 103 1113 b 71 1024 103 1043 92 1024 l 56 1025 z m 622 299 l 581 76 l 306 76 l 306 874 l 417 900 l 417 944 l 50 944 l 50 900 l 154 875 l 154 69 l 50 44 l 50 0 l 681 0 l 681 299 z "},"Ľ":{"ha":707,"x_min":0,"x_max":0,"o":"m 407 1014 b 457 1078 439 1014 457 1039 b 408 1139 457 1117 438 1139 b 358 1075 376 1139 358 1113 b 407 1014 358 1036 378 1014 z m 103 1079 b 50 1136 103 1122 79 1136 l 3 1136 l 3 1131 l 17 1128 l 17 1025 l 3 1022 l 3 1017 l 50 1017 b 103 1079 85 1017 103 1039 z m 194 1049 l 188 1049 l 183 1026 l 149 1026 l 149 1074 l 175 1074 l 178 1060 l 183 1060 l 183 1094 l 178 1094 l 175 1082 l 149 1082 l 149 1128 l 182 1128 l 186 1106 l 192 1106 l 192 1136 l 117 1136 l 117 1131 l 129 1128 l 129 1025 l 117 1022 l 117 1017 l 194 1017 z m 243 1022 l 229 1025 l 232 1122 l 233 1122 l 268 1014 l 278 1017 l 308 1122 l 310 1122 l 317 1025 l 304 1022 l 304 1017 l 349 1017 l 349 1022 l 336 1025 l 328 1126 l 342 1131 l 342 1136 l 304 1136 l 278 1044 l 269 1072 l 249 1136 l 210 1136 l 210 1131 l 225 1126 l 218 1026 l 204 1022 l 204 1017 l 243 1017 z m 407 1131 b 436 1075 425 1131 436 1108 b 408 1022 436 1042 425 1022 b 379 1078 389 1022 379 1044 b 407 1131 379 1111 390 1131 z m 35 1128 l 50 1128 b 82 1076 71 1128 82 1113 b 50 1024 82 1043 71 1024 l 35 1025 z m 622 299 l 581 76 l 306 76 l 306 874 l 417 900 l 417 944 l 50 944 l 50 900 l 154 875 l 154 69 l 50 44 l 50 0 l 681 0 l 681 299 z "},"Ļ":{"ha":707,"x_min":0,"x_max":0,"o":"m 549 1014 b 599 1078 581 1014 599 1039 b 550 1139 599 1117 579 1139 b 500 1075 518 1139 500 1113 b 549 1014 500 1036 519 1014 z m 244 1079 b 192 1136 244 1122 221 1136 l 144 1136 l 144 1131 l 158 1128 l 158 1025 l 144 1022 l 144 1017 l 192 1017 b 244 1079 226 1017 244 1039 z m 336 1049 l 329 1049 l 325 1026 l 290 1026 l 290 1074 l 317 1074 l 319 1060 l 325 1060 l 325 1094 l 319 1094 l 317 1082 l 290 1082 l 290 1128 l 324 1128 l 328 1106 l 333 1106 l 333 1136 l 258 1136 l 258 1131 l 271 1128 l 271 1025 l 258 1022 l 258 1017 l 336 1017 z m 385 1022 l 371 1025 l 374 1122 l 375 1122 l 410 1014 l 419 1017 l 450 1122 l 451 1122 l 458 1025 l 446 1022 l 446 1017 l 490 1017 l 490 1022 l 478 1025 l 469 1126 l 483 1131 l 483 1136 l 446 1136 l 419 1044 l 411 1072 l 390 1136 l 351 1136 l 351 1131 l 367 1126 l 360 1026 l 346 1022 l 346 1017 l 385 1017 z m 549 1131 b 578 1075 567 1131 578 1108 b 550 1022 578 1042 567 1022 b 521 1078 531 1022 521 1044 b 549 1131 521 1111 532 1131 z m 176 1128 l 192 1128 b 224 1076 213 1128 224 1113 b 192 1024 224 1043 213 1024 l 176 1025 z m 622 299 l 581 76 l 306 76 l 306 874 l 417 900 l 417 944 l 50 944 l 50 900 l 154 875 l 154 69 l 50 44 l 50 0 l 681 0 l 681 299 z "},"Ŀ":{"ha":707,"x_min":0,"x_max":0,"o":"m 428 1014 b 478 1078 460 1014 478 1039 b 429 1139 478 1117 458 1139 b 379 1075 397 1139 379 1113 b 428 1014 379 1036 399 1014 z m 124 1079 b 71 1136 124 1122 100 1136 l 24 1136 l 24 1131 l 38 1128 l 38 1025 l 24 1022 l 24 1017 l 71 1017 b 124 1079 106 1017 124 1039 z m 215 1049 l 208 1049 l 204 1026 l 169 1026 l 169 1074 l 196 1074 l 199 1060 l 204 1060 l 204 1094 l 199 1094 l 196 1082 l 169 1082 l 169 1128 l 203 1128 l 207 1106 l 213 1106 l 213 1136 l 138 1136 l 138 1131 l 150 1128 l 150 1025 l 138 1022 l 138 1017 l 215 1017 z m 264 1022 l 250 1025 l 253 1122 l 254 1122 l 289 1014 l 299 1017 l 329 1122 l 331 1122 l 338 1025 l 325 1022 l 325 1017 l 369 1017 l 369 1022 l 357 1025 l 349 1126 l 363 1131 l 363 1136 l 325 1136 l 299 1044 l 290 1072 l 269 1136 l 231 1136 l 231 1131 l 246 1126 l 239 1026 l 225 1022 l 225 1017 l 264 1017 z m 428 1131 b 457 1075 446 1131 457 1108 b 429 1022 457 1042 446 1022 b 400 1078 410 1022 400 1044 b 428 1131 400 1111 411 1131 z m 56 1128 l 71 1128 b 103 1076 92 1128 103 1113 b 71 1024 103 1043 92 1024 l 56 1025 z m 622 299 l 581 76 l 306 76 l 306 874 l 417 900 l 417 944 l 50 944 l 50 900 l 154 875 l 154 69 l 50 44 l 50 0 l 681 0 l 681 299 z "},"Ł":{"ha":707,"x_min":0,"x_max":0,"o":"m 428 1014 b 478 1078 460 1014 478 1039 b 429 1139 478 1117 458 1139 b 379 1075 397 1139 379 1113 b 428 1014 379 1036 399 1014 z m 124 1079 b 71 1136 124 1122 100 1136 l 24 1136 l 24 1131 l 38 1128 l 38 1025 l 24 1022 l 24 1017 l 71 1017 b 124 1079 106 1017 124 1039 z m 215 1049 l 208 1049 l 204 1026 l 169 1026 l 169 1074 l 196 1074 l 199 1060 l 204 1060 l 204 1094 l 199 1094 l 196 1082 l 169 1082 l 169 1128 l 203 1128 l 207 1106 l 213 1106 l 213 1136 l 138 1136 l 138 1131 l 150 1128 l 150 1025 l 138 1022 l 138 1017 l 215 1017 z m 264 1022 l 250 1025 l 253 1122 l 254 1122 l 289 1014 l 299 1017 l 329 1122 l 331 1122 l 338 1025 l 325 1022 l 325 1017 l 369 1017 l 369 1022 l 357 1025 l 349 1126 l 363 1131 l 363 1136 l 325 1136 l 299 1044 l 290 1072 l 269 1136 l 231 1136 l 231 1131 l 246 1126 l 239 1026 l 225 1022 l 225 1017 l 264 1017 z m 428 1131 b 457 1075 446 1131 457 1108 b 429 1022 457 1042 446 1022 b 400 1078 410 1022 400 1044 b 428 1131 400 1111 411 1131 z m 56 1128 l 71 1128 b 103 1076 92 1128 103 1113 b 71 1024 103 1043 92 1024 l 56 1025 z m 622 299 l 581 76 l 306 76 l 306 874 l 417 900 l 417 944 l 50 944 l 50 900 l 154 875 l 154 69 l 50 44 l 50 0 l 681 0 l 681 299 z "},"M":{"ha":1182,"x_min":0,"x_max":0,"o":"m 1056 68 l 993 871 l 1103 900 l 1103 944 l 807 944 l 597 218 l 594 218 l 533 438 l 371 944 l 63 944 l 63 900 l 178 868 l 132 75 l 19 44 l 19 0 l 324 0 l 324 44 l 211 74 l 242 836 l 247 836 l 521 -19 l 601 0 l 844 836 l 849 836 l 904 69 l 804 44 l 804 0 l 1158 0 l 1158 44 z "},"N":{"ha":921,"x_min":0,"x_max":0,"o":"m 885 944 l 589 944 l 589 900 l 697 874 l 710 229 l 706 229 l 629 381 l 342 944 l 40 944 l 40 900 l 153 871 l 151 75 l 40 44 l 40 0 l 354 0 l 354 44 l 239 76 l 225 833 l 228 833 l 314 667 l 665 -19 l 781 0 l 782 875 l 885 900 z "},"Ń":{"ha":921,"x_min":0,"x_max":0,"o":"m 669 1014 b 719 1078 701 1014 719 1039 b 671 1139 719 1117 700 1139 b 621 1075 639 1139 621 1113 b 669 1014 621 1036 640 1014 z m 365 1079 b 313 1136 365 1122 342 1136 l 265 1136 l 265 1131 l 279 1128 l 279 1025 l 265 1022 l 265 1017 l 313 1017 b 365 1079 347 1017 365 1039 z m 457 1049 l 450 1049 l 446 1026 l 411 1026 l 411 1074 l 438 1074 l 440 1060 l 446 1060 l 446 1094 l 440 1094 l 438 1082 l 411 1082 l 411 1128 l 444 1128 l 449 1106 l 454 1106 l 454 1136 l 379 1136 l 379 1131 l 392 1128 l 392 1025 l 379 1022 l 379 1017 l 457 1017 z m 506 1022 l 492 1025 l 494 1122 l 496 1122 l 531 1014 l 540 1017 l 571 1122 l 572 1122 l 579 1025 l 567 1022 l 567 1017 l 611 1017 l 611 1022 l 599 1025 l 590 1126 l 604 1131 l 604 1136 l 567 1136 l 540 1044 l 532 1072 l 511 1136 l 472 1136 l 472 1131 l 488 1126 l 481 1026 l 467 1022 l 467 1017 l 506 1017 z m 669 1131 b 699 1075 688 1131 699 1108 b 671 1022 699 1042 688 1022 b 642 1078 651 1022 642 1044 b 669 1131 642 1111 653 1131 z m 297 1128 l 313 1128 b 344 1076 333 1128 344 1113 b 313 1024 344 1043 333 1024 l 297 1025 z m 885 944 l 589 944 l 589 900 l 697 874 l 710 229 l 706 229 l 629 381 l 342 944 l 40 944 l 40 900 l 153 871 l 151 75 l 40 44 l 40 0 l 354 0 l 354 44 l 239 76 l 225 833 l 228 833 l 314 667 l 665 -19 l 781 0 l 782 875 l 885 900 z "},"Ň":{"ha":921,"x_min":0,"x_max":0,"o":"m 649 1014 b 699 1078 681 1014 699 1039 b 650 1139 699 1117 679 1139 b 600 1075 618 1139 600 1113 b 649 1014 600 1036 619 1014 z m 344 1079 b 292 1136 344 1122 321 1136 l 244 1136 l 244 1131 l 258 1128 l 258 1025 l 244 1022 l 244 1017 l 292 1017 b 344 1079 326 1017 344 1039 z m 436 1049 l 429 1049 l 425 1026 l 390 1026 l 390 1074 l 417 1074 l 419 1060 l 425 1060 l 425 1094 l 419 1094 l 417 1082 l 390 1082 l 390 1128 l 424 1128 l 428 1106 l 433 1106 l 433 1136 l 358 1136 l 358 1131 l 371 1128 l 371 1025 l 358 1022 l 358 1017 l 436 1017 z m 485 1022 l 471 1025 l 474 1122 l 475 1122 l 510 1014 l 519 1017 l 550 1122 l 551 1122 l 558 1025 l 546 1022 l 546 1017 l 590 1017 l 590 1022 l 578 1025 l 569 1126 l 583 1131 l 583 1136 l 546 1136 l 519 1044 l 511 1072 l 490 1136 l 451 1136 l 451 1131 l 467 1126 l 460 1026 l 446 1022 l 446 1017 l 485 1017 z m 649 1131 b 678 1075 667 1131 678 1108 b 650 1022 678 1042 667 1022 b 621 1078 631 1022 621 1044 b 649 1131 621 1111 632 1131 z m 276 1128 l 292 1128 b 324 1076 313 1128 324 1113 b 292 1024 324 1043 313 1024 l 276 1025 z m 885 944 l 589 944 l 589 900 l 697 874 l 710 229 l 706 229 l 629 381 l 342 944 l 40 944 l 40 900 l 153 871 l 151 75 l 40 44 l 40 0 l 354 0 l 354 44 l 239 76 l 225 833 l 228 833 l 314 667 l 665 -19 l 781 0 l 782 875 l 885 900 z "},"Ņ":{"ha":921,"x_min":0,"x_max":0,"o":"m 644 1014 b 694 1078 676 1014 694 1039 b 646 1139 694 1117 675 1139 b 596 1075 614 1139 596 1113 b 644 1014 596 1036 615 1014 z m 340 1079 b 288 1136 340 1122 317 1136 l 240 1136 l 240 1131 l 254 1128 l 254 1025 l 240 1022 l 240 1017 l 288 1017 b 340 1079 322 1017 340 1039 z m 432 1049 l 425 1049 l 421 1026 l 386 1026 l 386 1074 l 413 1074 l 415 1060 l 421 1060 l 421 1094 l 415 1094 l 413 1082 l 386 1082 l 386 1128 l 419 1128 l 424 1106 l 429 1106 l 429 1136 l 354 1136 l 354 1131 l 367 1128 l 367 1025 l 354 1022 l 354 1017 l 432 1017 z m 481 1022 l 467 1025 l 469 1122 l 471 1122 l 506 1014 l 515 1017 l 546 1122 l 547 1122 l 554 1025 l 542 1022 l 542 1017 l 586 1017 l 586 1022 l 574 1025 l 565 1126 l 579 1131 l 579 1136 l 542 1136 l 515 1044 l 507 1072 l 486 1136 l 447 1136 l 447 1131 l 463 1126 l 456 1026 l 442 1022 l 442 1017 l 481 1017 z m 644 1131 b 674 1075 663 1131 674 1108 b 646 1022 674 1042 663 1022 b 617 1078 626 1022 617 1044 b 644 1131 617 1111 628 1131 z m 272 1128 l 288 1128 b 319 1076 308 1128 319 1113 b 288 1024 319 1043 308 1024 l 272 1025 z m 885 944 l 589 944 l 589 900 l 697 874 l 710 229 l 706 229 l 629 381 l 342 944 l 40 944 l 40 900 l 153 871 l 151 75 l 40 44 l 40 0 l 354 0 l 354 44 l 239 76 l 225 833 l 228 833 l 314 667 l 665 -19 l 781 0 l 782 875 l 885 900 z "},"Ŋ":{"ha":921,"x_min":0,"x_max":0,"o":"m 669 1014 b 719 1078 701 1014 719 1039 b 671 1139 719 1117 700 1139 b 621 1075 639 1139 621 1113 b 669 1014 621 1036 640 1014 z m 365 1079 b 313 1136 365 1122 342 1136 l 265 1136 l 265 1131 l 279 1128 l 279 1025 l 265 1022 l 265 1017 l 313 1017 b 365 1079 347 1017 365 1039 z m 457 1049 l 450 1049 l 446 1026 l 411 1026 l 411 1074 l 438 1074 l 440 1060 l 446 1060 l 446 1094 l 440 1094 l 438 1082 l 411 1082 l 411 1128 l 444 1128 l 449 1106 l 454 1106 l 454 1136 l 379 1136 l 379 1131 l 392 1128 l 392 1025 l 379 1022 l 379 1017 l 457 1017 z m 506 1022 l 492 1025 l 494 1122 l 496 1122 l 531 1014 l 540 1017 l 571 1122 l 572 1122 l 579 1025 l 567 1022 l 567 1017 l 611 1017 l 611 1022 l 599 1025 l 590 1126 l 604 1131 l 604 1136 l 567 1136 l 540 1044 l 532 1072 l 511 1136 l 472 1136 l 472 1131 l 488 1126 l 481 1026 l 467 1022 l 467 1017 l 506 1017 z m 669 1131 b 699 1075 688 1131 699 1108 b 671 1022 699 1042 688 1022 b 642 1078 651 1022 642 1044 b 669 1131 642 1111 653 1131 z m 297 1128 l 313 1128 b 344 1076 333 1128 344 1113 b 313 1024 344 1043 333 1024 l 297 1025 z m 885 944 l 589 944 l 589 900 l 697 874 l 710 229 l 706 229 l 629 381 l 342 944 l 40 944 l 40 900 l 153 871 l 151 75 l 40 44 l 40 0 l 354 0 l 354 44 l 239 76 l 225 833 l 228 833 l 314 667 l 665 -19 l 781 0 l 782 875 l 885 900 z "},"Ñ":{"ha":921,"x_min":0,"x_max":0,"o":"m 650 1014 b 700 1078 682 1014 700 1039 b 651 1139 700 1117 681 1139 b 601 1075 619 1139 601 1113 b 650 1014 601 1036 621 1014 z m 346 1079 b 293 1136 346 1122 322 1136 l 246 1136 l 246 1131 l 260 1128 l 260 1025 l 246 1022 l 246 1017 l 293 1017 b 346 1079 328 1017 346 1039 z m 438 1049 l 431 1049 l 426 1026 l 392 1026 l 392 1074 l 418 1074 l 421 1060 l 426 1060 l 426 1094 l 421 1094 l 418 1082 l 392 1082 l 392 1128 l 425 1128 l 429 1106 l 435 1106 l 435 1136 l 360 1136 l 360 1131 l 372 1128 l 372 1025 l 360 1022 l 360 1017 l 438 1017 z m 486 1022 l 472 1025 l 475 1122 l 476 1122 l 511 1014 l 521 1017 l 551 1122 l 553 1122 l 560 1025 l 547 1022 l 547 1017 l 592 1017 l 592 1022 l 579 1025 l 571 1126 l 585 1131 l 585 1136 l 547 1136 l 521 1044 l 513 1072 l 492 1136 l 453 1136 l 453 1131 l 468 1126 l 461 1026 l 447 1022 l 447 1017 l 486 1017 z m 650 1131 b 679 1075 668 1131 679 1108 b 651 1022 679 1042 668 1022 b 622 1078 632 1022 622 1044 b 650 1131 622 1111 633 1131 z m 278 1128 l 293 1128 b 325 1076 314 1128 325 1113 b 293 1024 325 1043 314 1024 l 278 1025 z m 885 944 l 589 944 l 589 900 l 697 874 l 710 229 l 706 229 l 629 381 l 342 944 l 40 944 l 40 900 l 153 871 l 151 75 l 40 44 l 40 0 l 354 0 l 354 44 l 239 76 l 225 833 l 228 833 l 314 667 l 665 -19 l 781 0 l 782 875 l 885 900 z "},"O":{"ha":908,"x_min":0,"x_max":0,"o":"m 450 -19 b 843 482 704 -19 843 181 b 460 964 843 790 688 964 b 65 465 206 964 65 764 b 450 -19 65 156 222 -19 z m 458 50 b 229 481 310 50 229 221 b 450 897 229 747 319 897 b 681 467 599 897 681 726 b 458 50 681 199 590 50 z "},"Ó":{"ha":908,"x_min":0,"x_max":0,"o":"m 603 1075 b 653 1139 603 1113 621 1139 b 701 1078 682 1139 701 1117 b 651 1014 701 1039 683 1014 b 603 1075 622 1014 603 1036 z m 247 1022 l 261 1025 l 261 1128 l 247 1131 l 247 1136 l 294 1136 b 347 1079 324 1136 347 1122 b 294 1017 347 1039 329 1017 l 247 1017 z m 439 1049 l 439 1017 l 361 1017 l 361 1022 l 374 1025 l 374 1128 l 361 1131 l 361 1136 l 436 1136 l 436 1106 l 431 1106 l 426 1128 l 393 1128 l 393 1082 l 419 1082 l 422 1094 l 428 1094 l 428 1060 l 422 1060 l 419 1074 l 393 1074 l 393 1026 l 428 1026 l 432 1049 z m 593 1022 l 593 1017 l 549 1017 l 549 1022 l 561 1025 l 554 1122 l 553 1122 l 522 1017 l 513 1014 l 478 1122 l 476 1122 l 474 1025 l 488 1022 l 488 1017 l 449 1017 l 449 1022 l 463 1026 l 469 1126 l 454 1131 l 454 1136 l 493 1136 l 514 1072 l 522 1044 l 549 1136 l 586 1136 l 586 1131 l 572 1126 l 581 1025 z m 681 1075 b 651 1131 681 1108 669 1131 b 624 1078 635 1131 624 1111 b 653 1022 624 1044 633 1022 b 681 1075 669 1022 681 1042 z m 326 1076 b 294 1128 326 1113 315 1128 l 279 1128 l 279 1025 l 294 1024 b 326 1076 315 1024 326 1043 z m 450 -19 b 843 482 704 -19 843 181 b 460 964 843 790 688 964 b 65 465 206 964 65 764 b 450 -19 65 156 222 -19 z m 458 50 b 229 481 310 50 229 221 b 450 897 229 747 319 897 b 681 467 599 897 681 726 b 458 50 681 199 590 50 z "},"Ŏ":{"ha":908,"x_min":0,"x_max":0,"o":"m 603 1075 b 653 1139 603 1113 621 1139 b 701 1078 682 1139 701 1117 b 651 1014 701 1039 683 1014 b 603 1075 622 1014 603 1036 z m 247 1022 l 261 1025 l 261 1128 l 247 1131 l 247 1136 l 294 1136 b 347 1079 324 1136 347 1122 b 294 1017 347 1039 329 1017 l 247 1017 z m 439 1049 l 439 1017 l 361 1017 l 361 1022 l 374 1025 l 374 1128 l 361 1131 l 361 1136 l 436 1136 l 436 1106 l 431 1106 l 426 1128 l 393 1128 l 393 1082 l 419 1082 l 422 1094 l 428 1094 l 428 1060 l 422 1060 l 419 1074 l 393 1074 l 393 1026 l 428 1026 l 432 1049 z m 593 1022 l 593 1017 l 549 1017 l 549 1022 l 561 1025 l 554 1122 l 553 1122 l 522 1017 l 513 1014 l 478 1122 l 476 1122 l 474 1025 l 488 1022 l 488 1017 l 449 1017 l 449 1022 l 463 1026 l 469 1126 l 454 1131 l 454 1136 l 493 1136 l 514 1072 l 522 1044 l 549 1136 l 586 1136 l 586 1131 l 572 1126 l 581 1025 z m 681 1075 b 651 1131 681 1108 669 1131 b 624 1078 635 1131 624 1111 b 653 1022 624 1044 633 1022 b 681 1075 669 1022 681 1042 z m 326 1076 b 294 1128 326 1113 315 1128 l 279 1128 l 279 1025 l 294 1024 b 326 1076 315 1024 326 1043 z m 450 -19 b 843 482 704 -19 843 181 b 460 964 843 790 688 964 b 65 465 206 964 65 764 b 450 -19 65 156 222 -19 z m 458 50 b 229 481 310 50 229 221 b 450 897 229 747 319 897 b 681 467 599 897 681 726 b 458 50 681 199 590 50 z "},"Ô":{"ha":908,"x_min":0,"x_max":0,"o":"m 632 1014 b 682 1078 664 1014 682 1039 b 633 1139 682 1117 663 1139 b 583 1075 601 1139 583 1113 b 632 1014 583 1036 603 1014 z m 228 1017 l 275 1017 b 328 1079 310 1017 328 1039 b 275 1136 328 1122 304 1136 l 228 1136 l 228 1131 l 242 1128 l 242 1025 l 228 1022 z m 342 1017 l 419 1017 l 419 1049 l 413 1049 l 408 1026 l 374 1026 l 374 1074 l 400 1074 l 403 1060 l 408 1060 l 408 1094 l 403 1094 l 400 1082 l 374 1082 l 374 1128 l 407 1128 l 411 1106 l 417 1106 l 417 1136 l 342 1136 l 342 1131 l 354 1128 l 354 1025 l 342 1022 z m 493 1014 l 503 1017 l 533 1122 l 535 1122 l 542 1025 l 529 1022 l 529 1017 l 574 1017 l 574 1022 l 561 1025 l 553 1126 l 567 1131 l 567 1136 l 529 1136 l 503 1044 l 494 1072 l 474 1136 l 435 1136 l 435 1131 l 450 1126 l 443 1026 l 429 1022 l 429 1017 l 468 1017 l 468 1022 l 454 1025 l 457 1122 l 458 1122 z m 633 1022 b 604 1078 614 1022 604 1044 b 632 1131 604 1111 615 1131 b 661 1075 650 1131 661 1108 b 633 1022 661 1042 650 1022 z m 275 1024 l 260 1025 l 260 1128 l 275 1128 b 307 1076 296 1128 307 1113 b 275 1024 307 1043 296 1024 z m 450 -19 b 843 482 704 -19 843 181 b 460 964 843 790 688 964 b 65 465 206 964 65 764 b 450 -19 65 156 222 -19 z m 458 50 b 229 481 310 50 229 221 b 450 897 229 747 319 897 b 681 467 599 897 681 726 b 458 50 681 199 590 50 z "},"Ö":{"ha":908,"x_min":0,"x_max":0,"o":"m 583 1061 b 633 1125 583 1099 601 1125 b 682 1064 663 1125 682 1103 b 632 1000 682 1025 664 1000 b 583 1061 603 1000 583 1022 z m 228 1008 l 242 1011 l 242 1114 l 228 1117 l 228 1122 l 275 1122 b 328 1065 304 1122 328 1108 b 275 1003 328 1025 310 1003 l 228 1003 z m 419 1035 l 419 1003 l 342 1003 l 342 1008 l 354 1011 l 354 1114 l 342 1117 l 342 1122 l 417 1122 l 417 1092 l 411 1092 l 407 1114 l 374 1114 l 374 1068 l 400 1068 l 403 1081 l 408 1081 l 408 1046 l 403 1046 l 400 1060 l 374 1060 l 374 1013 l 408 1013 l 413 1035 z m 574 1008 l 574 1003 l 529 1003 l 529 1008 l 542 1011 l 535 1108 l 533 1108 l 503 1003 l 493 1000 l 458 1108 l 457 1108 l 454 1011 l 468 1008 l 468 1003 l 429 1003 l 429 1008 l 443 1013 l 450 1113 l 435 1117 l 435 1122 l 474 1122 l 494 1058 l 503 1031 l 529 1122 l 567 1122 l 567 1117 l 553 1113 l 561 1011 z m 661 1061 b 632 1117 661 1094 650 1117 b 604 1064 615 1117 604 1097 b 633 1008 604 1031 614 1008 b 661 1061 650 1008 661 1028 z m 307 1063 b 275 1114 307 1099 296 1114 l 260 1114 l 260 1011 l 275 1010 b 307 1063 296 1010 307 1029 z m 450 -19 b 843 482 704 -19 843 181 b 460 964 843 790 688 964 b 65 465 206 964 65 764 b 450 -19 65 156 222 -19 z m 458 50 b 229 481 310 50 229 221 b 450 897 229 747 319 897 b 681 467 599 897 681 726 b 458 50 681 199 590 50 z "},"Ò":{"ha":908,"x_min":0,"x_max":0,"o":"m 632 1014 b 682 1078 664 1014 682 1039 b 633 1139 682 1117 663 1139 b 583 1075 601 1139 583 1113 b 632 1014 583 1036 603 1014 z m 228 1017 l 275 1017 b 328 1079 310 1017 328 1039 b 275 1136 328 1122 304 1136 l 228 1136 l 228 1131 l 242 1128 l 242 1025 l 228 1022 z m 342 1017 l 419 1017 l 419 1049 l 413 1049 l 408 1026 l 374 1026 l 374 1074 l 400 1074 l 403 1060 l 408 1060 l 408 1094 l 403 1094 l 400 1082 l 374 1082 l 374 1128 l 407 1128 l 411 1106 l 417 1106 l 417 1136 l 342 1136 l 342 1131 l 354 1128 l 354 1025 l 342 1022 z m 493 1014 l 503 1017 l 533 1122 l 535 1122 l 542 1025 l 529 1022 l 529 1017 l 574 1017 l 574 1022 l 561 1025 l 553 1126 l 567 1131 l 567 1136 l 529 1136 l 503 1044 l 494 1072 l 474 1136 l 435 1136 l 435 1131 l 450 1126 l 443 1026 l 429 1022 l 429 1017 l 468 1017 l 468 1022 l 454 1025 l 457 1122 l 458 1122 z m 633 1022 b 604 1078 614 1022 604 1044 b 632 1131 604 1111 615 1131 b 661 1075 650 1131 661 1108 b 633 1022 661 1042 650 1022 z m 275 1024 l 260 1025 l 260 1128 l 275 1128 b 307 1076 296 1128 307 1113 b 275 1024 307 1043 296 1024 z m 450 -19 b 843 482 704 -19 843 181 b 460 964 843 790 688 964 b 65 465 206 964 65 764 b 450 -19 65 156 222 -19 z m 458 50 b 229 481 310 50 229 221 b 450 897 229 747 319 897 b 681 467 599 897 681 726 b 458 50 681 199 590 50 z "},"Ő":{"ha":908,"x_min":0,"x_max":0,"o":"m 631 1014 b 681 1078 663 1014 681 1039 b 632 1139 681 1117 661 1139 b 582 1075 600 1139 582 1113 b 631 1014 582 1036 601 1014 z m 226 1017 l 274 1017 b 326 1079 308 1017 326 1039 b 274 1136 326 1122 303 1136 l 226 1136 l 226 1131 l 240 1128 l 240 1025 l 226 1022 z m 340 1017 l 418 1017 l 418 1049 l 411 1049 l 407 1026 l 372 1026 l 372 1074 l 399 1074 l 401 1060 l 407 1060 l 407 1094 l 401 1094 l 399 1082 l 372 1082 l 372 1128 l 406 1128 l 410 1106 l 415 1106 l 415 1136 l 340 1136 l 340 1131 l 353 1128 l 353 1025 l 340 1022 z m 492 1014 l 501 1017 l 532 1122 l 533 1122 l 540 1025 l 528 1022 l 528 1017 l 572 1017 l 572 1022 l 560 1025 l 551 1126 l 565 1131 l 565 1136 l 528 1136 l 501 1044 l 493 1072 l 472 1136 l 433 1136 l 433 1131 l 449 1126 l 442 1026 l 428 1022 l 428 1017 l 467 1017 l 467 1022 l 453 1025 l 456 1122 l 457 1122 z m 632 1022 b 603 1078 613 1022 603 1044 b 631 1131 603 1111 614 1131 b 660 1075 649 1131 660 1108 b 632 1022 660 1042 649 1022 z m 274 1024 l 258 1025 l 258 1128 l 274 1128 b 306 1076 294 1128 306 1113 b 274 1024 306 1043 294 1024 z m 450 -19 b 843 482 704 -19 843 181 b 460 964 843 790 688 964 b 65 465 206 964 65 764 b 450 -19 65 156 222 -19 z m 458 50 b 229 481 310 50 229 221 b 450 897 229 747 319 897 b 681 467 599 897 681 726 b 458 50 681 199 590 50 z "},"Ō":{"ha":908,"x_min":0,"x_max":0,"o":"m 632 1014 b 682 1078 664 1014 682 1039 b 633 1139 682 1117 663 1139 b 583 1075 601 1139 583 1113 b 632 1014 583 1036 603 1014 z m 228 1017 l 275 1017 b 328 1079 310 1017 328 1039 b 275 1136 328 1122 304 1136 l 228 1136 l 228 1131 l 242 1128 l 242 1025 l 228 1022 z m 342 1017 l 419 1017 l 419 1049 l 413 1049 l 408 1026 l 374 1026 l 374 1074 l 400 1074 l 403 1060 l 408 1060 l 408 1094 l 403 1094 l 400 1082 l 374 1082 l 374 1128 l 407 1128 l 411 1106 l 417 1106 l 417 1136 l 342 1136 l 342 1131 l 354 1128 l 354 1025 l 342 1022 z m 493 1014 l 503 1017 l 533 1122 l 535 1122 l 542 1025 l 529 1022 l 529 1017 l 574 1017 l 574 1022 l 561 1025 l 553 1126 l 567 1131 l 567 1136 l 529 1136 l 503 1044 l 494 1072 l 474 1136 l 435 1136 l 435 1131 l 450 1126 l 443 1026 l 429 1022 l 429 1017 l 468 1017 l 468 1022 l 454 1025 l 457 1122 l 458 1122 z m 633 1022 b 604 1078 614 1022 604 1044 b 632 1131 604 1111 615 1131 b 661 1075 650 1131 661 1108 b 633 1022 661 1042 650 1022 z m 275 1024 l 260 1025 l 260 1128 l 275 1128 b 307 1076 296 1128 307 1113 b 275 1024 307 1043 296 1024 z m 450 -19 b 843 482 704 -19 843 181 b 460 964 843 790 688 964 b 65 465 206 964 65 764 b 450 -19 65 156 222 -19 z m 458 50 b 229 481 310 50 229 221 b 450 897 229 747 319 897 b 681 467 599 897 681 726 b 458 50 681 199 590 50 z "},"Ø":{"ha":908,"x_min":0,"x_max":0,"o":"m 603 1075 b 653 1139 603 1113 621 1139 b 701 1078 682 1139 701 1117 b 651 1014 701 1039 683 1014 b 603 1075 622 1014 603 1036 z m 247 1022 l 261 1025 l 261 1128 l 247 1131 l 247 1136 l 294 1136 b 347 1079 324 1136 347 1122 b 294 1017 347 1039 329 1017 l 247 1017 z m 439 1049 l 439 1017 l 361 1017 l 361 1022 l 374 1025 l 374 1128 l 361 1131 l 361 1136 l 436 1136 l 436 1106 l 431 1106 l 426 1128 l 393 1128 l 393 1082 l 419 1082 l 422 1094 l 428 1094 l 428 1060 l 422 1060 l 419 1074 l 393 1074 l 393 1026 l 428 1026 l 432 1049 z m 593 1022 l 593 1017 l 549 1017 l 549 1022 l 561 1025 l 554 1122 l 553 1122 l 522 1017 l 513 1014 l 478 1122 l 476 1122 l 474 1025 l 488 1022 l 488 1017 l 449 1017 l 449 1022 l 463 1026 l 469 1126 l 454 1131 l 454 1136 l 493 1136 l 514 1072 l 522 1044 l 549 1136 l 586 1136 l 586 1131 l 572 1126 l 581 1025 z m 681 1075 b 651 1131 681 1108 669 1131 b 624 1078 635 1131 624 1111 b 653 1022 624 1044 633 1022 b 681 1075 669 1022 681 1042 z m 326 1076 b 294 1128 326 1113 315 1128 l 279 1128 l 279 1025 l 294 1024 b 326 1076 315 1024 326 1043 z m 450 -19 b 843 482 704 -19 843 181 b 460 964 843 790 688 964 b 65 465 206 964 65 764 b 450 -19 65 156 222 -19 z m 458 50 b 229 481 310 50 229 221 b 450 897 229 747 319 897 b 681 467 599 897 681 726 b 458 50 681 199 590 50 z "},"Ǿ":{"ha":908,"x_min":0,"x_max":0,"o":"m 603 1075 b 653 1139 603 1113 621 1139 b 701 1078 682 1139 701 1117 b 651 1014 701 1039 683 1014 b 603 1075 622 1014 603 1036 z m 247 1022 l 261 1025 l 261 1128 l 247 1131 l 247 1136 l 294 1136 b 347 1079 324 1136 347 1122 b 294 1017 347 1039 329 1017 l 247 1017 z m 439 1049 l 439 1017 l 361 1017 l 361 1022 l 374 1025 l 374 1128 l 361 1131 l 361 1136 l 436 1136 l 436 1106 l 431 1106 l 426 1128 l 393 1128 l 393 1082 l 419 1082 l 422 1094 l 428 1094 l 428 1060 l 422 1060 l 419 1074 l 393 1074 l 393 1026 l 428 1026 l 432 1049 z m 593 1022 l 593 1017 l 549 1017 l 549 1022 l 561 1025 l 554 1122 l 553 1122 l 522 1017 l 513 1014 l 478 1122 l 476 1122 l 474 1025 l 488 1022 l 488 1017 l 449 1017 l 449 1022 l 463 1026 l 469 1126 l 454 1131 l 454 1136 l 493 1136 l 514 1072 l 522 1044 l 549 1136 l 586 1136 l 586 1131 l 572 1126 l 581 1025 z m 681 1075 b 651 1131 681 1108 669 1131 b 624 1078 635 1131 624 1111 b 653 1022 624 1044 633 1022 b 681 1075 669 1022 681 1042 z m 326 1076 b 294 1128 326 1113 315 1128 l 279 1128 l 279 1025 l 294 1024 b 326 1076 315 1024 326 1043 z m 450 -19 b 843 482 704 -19 843 181 b 460 964 843 790 688 964 b 65 465 206 964 65 764 b 450 -19 65 156 222 -19 z m 458 50 b 229 481 310 50 229 221 b 450 897 229 747 319 897 b 681 467 599 897 681 726 b 458 50 681 199 590 50 z "},"Õ":{"ha":908,"x_min":0,"x_max":0,"o":"m 632 1014 b 682 1078 664 1014 682 1039 b 633 1139 682 1117 663 1139 b 583 1075 601 1139 583 1113 b 632 1014 583 1036 603 1014 z m 228 1017 l 275 1017 b 328 1079 310 1017 328 1039 b 275 1136 328 1122 304 1136 l 228 1136 l 228 1131 l 242 1128 l 242 1025 l 228 1022 z m 342 1017 l 419 1017 l 419 1049 l 413 1049 l 408 1026 l 374 1026 l 374 1074 l 400 1074 l 403 1060 l 408 1060 l 408 1094 l 403 1094 l 400 1082 l 374 1082 l 374 1128 l 407 1128 l 411 1106 l 417 1106 l 417 1136 l 342 1136 l 342 1131 l 354 1128 l 354 1025 l 342 1022 z m 493 1014 l 503 1017 l 533 1122 l 535 1122 l 542 1025 l 529 1022 l 529 1017 l 574 1017 l 574 1022 l 561 1025 l 553 1126 l 567 1131 l 567 1136 l 529 1136 l 503 1044 l 494 1072 l 474 1136 l 435 1136 l 435 1131 l 450 1126 l 443 1026 l 429 1022 l 429 1017 l 468 1017 l 468 1022 l 454 1025 l 457 1122 l 458 1122 z m 633 1022 b 604 1078 614 1022 604 1044 b 632 1131 604 1111 615 1131 b 661 1075 650 1131 661 1108 b 633 1022 661 1042 650 1022 z m 275 1024 l 260 1025 l 260 1128 l 275 1128 b 307 1076 296 1128 307 1113 b 275 1024 307 1043 296 1024 z m 450 -19 b 843 482 704 -19 843 181 b 460 964 843 790 688 964 b 65 465 206 964 65 764 b 450 -19 65 156 222 -19 z m 458 50 b 229 481 310 50 229 221 b 450 897 229 747 319 897 b 681 467 599 897 681 726 b 458 50 681 199 590 50 z "},"Œ":{"ha":908,"x_min":0,"x_max":0,"o":"m 603 1075 b 653 1139 603 1113 621 1139 b 701 1078 682 1139 701 1117 b 651 1014 701 1039 683 1014 b 603 1075 622 1014 603 1036 z m 247 1022 l 261 1025 l 261 1128 l 247 1131 l 247 1136 l 294 1136 b 347 1079 324 1136 347 1122 b 294 1017 347 1039 329 1017 l 247 1017 z m 439 1049 l 439 1017 l 361 1017 l 361 1022 l 374 1025 l 374 1128 l 361 1131 l 361 1136 l 436 1136 l 436 1106 l 431 1106 l 426 1128 l 393 1128 l 393 1082 l 419 1082 l 422 1094 l 428 1094 l 428 1060 l 422 1060 l 419 1074 l 393 1074 l 393 1026 l 428 1026 l 432 1049 z m 593 1022 l 593 1017 l 549 1017 l 549 1022 l 561 1025 l 554 1122 l 553 1122 l 522 1017 l 513 1014 l 478 1122 l 476 1122 l 474 1025 l 488 1022 l 488 1017 l 449 1017 l 449 1022 l 463 1026 l 469 1126 l 454 1131 l 454 1136 l 493 1136 l 514 1072 l 522 1044 l 549 1136 l 586 1136 l 586 1131 l 572 1126 l 581 1025 z m 681 1075 b 651 1131 681 1108 669 1131 b 624 1078 635 1131 624 1111 b 653 1022 624 1044 633 1022 b 681 1075 669 1022 681 1042 z m 326 1076 b 294 1128 326 1113 315 1128 l 279 1128 l 279 1025 l 294 1024 b 326 1076 315 1024 326 1043 z m 450 -19 b 843 482 704 -19 843 181 b 460 964 843 790 688 964 b 65 465 206 964 65 764 b 450 -19 65 156 222 -19 z m 458 50 b 229 481 310 50 229 221 b 450 897 229 747 319 897 b 681 467 599 897 681 726 b 458 50 681 199 590 50 z "},"P":{"ha":756,"x_min":0,"x_max":0,"o":"m 381 379 b 725 692 611 379 725 504 b 443 944 725 854 615 944 l 50 944 l 50 900 l 154 875 l 154 69 l 50 44 l 50 0 l 414 0 l 414 44 l 306 69 l 306 379 z m 401 883 b 571 685 518 883 571 806 b 389 447 571 533 507 447 l 306 453 l 306 872 z "},"Þ":{"ha":732,"x_min":0,"x_max":0,"o":"m 508 910 b 363 1025 508 983 451 1025 b 224 915 274 1025 224 981 b 369 800 224 842 285 800 b 508 910 458 800 508 844 z m 489 915 b 363 847 489 869 439 847 b 243 910 288 847 243 874 b 369 978 243 951 293 978 b 489 915 444 978 489 951 z m 508 594 l 503 617 l 261 686 l 261 689 l 483 706 l 489 676 l 503 676 l 503 778 l 489 778 l 483 750 l 253 731 l 243 763 l 229 763 l 229 676 l 439 617 l 229 550 l 229 461 l 243 461 l 253 496 l 479 479 l 489 449 l 503 449 l 503 538 l 489 538 l 483 506 l 261 511 l 261 514 z m 503 249 l 503 426 l 429 426 l 429 411 l 479 401 l 479 322 l 372 322 l 372 382 l 403 388 l 403 401 l 325 401 l 325 388 l 353 382 l 353 322 l 249 322 l 249 399 l 300 408 l 300 419 l 229 419 l 229 249 l 243 249 l 249 278 l 483 278 l 489 249 z m 503 -11 l 503 97 b 360 217 503 175 451 217 b 229 97 261 217 229 164 l 229 -11 l 243 -11 l 249 21 l 483 21 l 489 -11 z m 486 97 l 483 63 l 249 63 l 249 97 b 365 169 249 144 285 169 b 486 97 442 169 486 144 z "},"Q":{"ha":908,"x_min":0,"x_max":0,"o":"m 824 -104 b 533 -11 707 -104 606 -79 b 843 482 735 28 843 215 b 460 964 843 790 688 964 b 65 465 206 964 65 764 b 381 -14 65 189 190 19 b 778 -164 476 -110 613 -164 b 867 -160 806 -164 838 -162 l 867 -103 b 824 -104 851 -104 838 -104 z m 229 481 b 450 897 229 747 319 897 b 681 467 599 897 681 726 b 458 50 681 200 590 50 b 229 481 310 50 229 221 z "},"R":{"ha":846,"x_min":0,"x_max":0,"o":"m 747 63 l 547 436 b 719 696 658 486 719 588 b 433 944 719 860 606 944 l 50 944 l 50 900 l 154 875 l 154 69 l 50 44 l 50 0 l 408 0 l 408 44 l 306 69 l 306 403 l 379 403 b 408 404 389 403 399 403 l 485 228 l 606 0 l 840 0 l 840 44 z m 306 482 l 306 876 l 394 883 b 565 688 504 882 565 803 b 388 475 565 557 490 475 z "},"Ŕ":{"ha":846,"x_min":0,"x_max":0,"o":"m 600 1014 b 650 1078 632 1014 650 1039 b 601 1139 650 1117 631 1139 b 551 1075 569 1139 551 1113 b 600 1014 551 1036 571 1014 z m 296 1079 b 243 1136 296 1122 272 1136 l 196 1136 l 196 1131 l 210 1128 l 210 1025 l 196 1022 l 196 1017 l 243 1017 b 296 1079 278 1017 296 1039 z m 388 1049 l 381 1049 l 376 1026 l 342 1026 l 342 1074 l 368 1074 l 371 1060 l 376 1060 l 376 1094 l 371 1094 l 368 1082 l 342 1082 l 342 1128 l 375 1128 l 379 1106 l 385 1106 l 385 1136 l 310 1136 l 310 1131 l 322 1128 l 322 1025 l 310 1022 l 310 1017 l 388 1017 z m 436 1022 l 422 1025 l 425 1122 l 426 1122 l 461 1014 l 471 1017 l 501 1122 l 503 1122 l 510 1025 l 497 1022 l 497 1017 l 542 1017 l 542 1022 l 529 1025 l 521 1126 l 535 1131 l 535 1136 l 497 1136 l 471 1044 l 463 1072 l 442 1136 l 403 1136 l 403 1131 l 418 1126 l 411 1026 l 397 1022 l 397 1017 l 436 1017 z m 600 1131 b 629 1075 618 1131 629 1108 b 601 1022 629 1042 618 1022 b 572 1078 582 1022 572 1044 b 600 1131 572 1111 583 1131 z m 228 1128 l 243 1128 b 275 1076 264 1128 275 1113 b 243 1024 275 1043 264 1024 l 228 1025 z m 747 63 l 547 436 b 719 696 658 486 719 588 b 433 944 719 860 606 944 l 50 944 l 50 900 l 154 875 l 154 69 l 50 44 l 50 0 l 408 0 l 408 44 l 306 69 l 306 403 l 379 403 b 408 404 389 403 399 403 l 485 228 l 606 0 l 840 0 l 840 44 z m 306 482 l 306 876 l 394 883 b 565 688 504 882 565 803 b 388 475 565 557 490 475 z "},"Ř":{"ha":846,"x_min":0,"x_max":0,"o":"m 581 1014 b 631 1078 613 1014 631 1039 b 582 1139 631 1117 611 1139 b 532 1075 550 1139 532 1113 b 581 1014 532 1036 551 1014 z m 276 1079 b 224 1136 276 1122 253 1136 l 176 1136 l 176 1131 l 190 1128 l 190 1025 l 176 1022 l 176 1017 l 224 1017 b 276 1079 258 1017 276 1039 z m 368 1049 l 361 1049 l 357 1026 l 322 1026 l 322 1074 l 349 1074 l 351 1060 l 357 1060 l 357 1094 l 351 1094 l 349 1082 l 322 1082 l 322 1128 l 356 1128 l 360 1106 l 365 1106 l 365 1136 l 290 1136 l 290 1131 l 303 1128 l 303 1025 l 290 1022 l 290 1017 l 368 1017 z m 417 1022 l 403 1025 l 406 1122 l 407 1122 l 442 1014 l 451 1017 l 482 1122 l 483 1122 l 490 1025 l 478 1022 l 478 1017 l 522 1017 l 522 1022 l 510 1025 l 501 1126 l 515 1131 l 515 1136 l 478 1136 l 451 1044 l 443 1072 l 422 1136 l 383 1136 l 383 1131 l 399 1126 l 392 1026 l 378 1022 l 378 1017 l 417 1017 z m 581 1131 b 610 1075 599 1131 610 1108 b 582 1022 610 1042 599 1022 b 553 1078 563 1022 553 1044 b 581 1131 553 1111 564 1131 z m 208 1128 l 224 1128 b 256 1076 244 1128 256 1113 b 224 1024 256 1043 244 1024 l 208 1025 z m 747 63 l 547 436 b 719 696 658 486 719 588 b 433 944 719 860 606 944 l 50 944 l 50 900 l 154 875 l 154 69 l 50 44 l 50 0 l 408 0 l 408 44 l 306 69 l 306 403 l 379 403 b 408 404 389 403 399 403 l 485 228 l 606 0 l 840 0 l 840 44 z m 306 482 l 306 876 l 394 883 b 565 688 504 882 565 803 b 388 475 565 557 490 475 z "},"Ŗ":{"ha":846,"x_min":0,"x_max":0,"o":"m 629 1014 b 679 1078 661 1014 679 1039 b 631 1139 679 1117 660 1139 b 581 1075 599 1139 581 1113 b 629 1014 581 1036 600 1014 z m 325 1079 b 272 1136 325 1122 301 1136 l 225 1136 l 225 1131 l 239 1128 l 239 1025 l 225 1022 l 225 1017 l 272 1017 b 325 1079 307 1017 325 1039 z m 417 1049 l 410 1049 l 406 1026 l 371 1026 l 371 1074 l 397 1074 l 400 1060 l 406 1060 l 406 1094 l 400 1094 l 397 1082 l 371 1082 l 371 1128 l 404 1128 l 408 1106 l 414 1106 l 414 1136 l 339 1136 l 339 1131 l 351 1128 l 351 1025 l 339 1022 l 339 1017 l 417 1017 z m 465 1022 l 451 1025 l 454 1122 l 456 1122 l 490 1014 l 500 1017 l 531 1122 l 532 1122 l 539 1025 l 526 1022 l 526 1017 l 571 1017 l 571 1022 l 558 1025 l 550 1126 l 564 1131 l 564 1136 l 526 1136 l 500 1044 l 492 1072 l 471 1136 l 432 1136 l 432 1131 l 447 1126 l 440 1026 l 426 1022 l 426 1017 l 465 1017 z m 629 1131 b 658 1075 647 1131 658 1108 b 631 1022 658 1042 647 1022 b 601 1078 611 1022 601 1044 b 629 1131 601 1111 613 1131 z m 257 1128 l 272 1128 b 304 1076 293 1128 304 1113 b 272 1024 304 1043 293 1024 l 257 1025 z m 747 63 l 547 436 b 719 696 658 486 719 588 b 433 944 719 860 606 944 l 50 944 l 50 900 l 154 875 l 154 69 l 50 44 l 50 0 l 408 0 l 408 44 l 306 69 l 306 403 l 379 403 b 408 404 389 403 399 403 l 485 228 l 606 0 l 840 0 l 840 44 z m 306 482 l 306 876 l 394 883 b 565 688 504 882 565 803 b 388 475 565 557 490 475 z "},"S":{"ha":675,"x_min":0,"x_max":0,"o":"m 401 542 b 226 750 310 594 226 653 b 367 901 226 843 282 901 b 481 868 417 901 457 886 l 525 679 l 576 679 l 576 900 b 364 964 538 928 454 964 b 76 726 181 964 76 856 b 306 426 76 571 188 492 b 479 219 397 375 479 325 b 315 53 479 113 414 53 b 161 97 250 53 193 75 l 118 300 l 65 300 l 65 47 b 317 -21 126 14 224 -21 b 632 246 518 -21 632 89 b 401 542 632 414 511 481 z "},"Ś":{"ha":675,"x_min":0,"x_max":0,"o":"m 544 1014 b 594 1078 576 1014 594 1039 b 546 1139 594 1117 575 1139 b 496 1075 514 1139 496 1113 b 544 1014 496 1036 515 1014 z m 240 1079 b 188 1136 240 1122 217 1136 l 140 1136 l 140 1131 l 154 1128 l 154 1025 l 140 1022 l 140 1017 l 188 1017 b 240 1079 222 1017 240 1039 z m 332 1049 l 325 1049 l 321 1026 l 286 1026 l 286 1074 l 313 1074 l 315 1060 l 321 1060 l 321 1094 l 315 1094 l 313 1082 l 286 1082 l 286 1128 l 319 1128 l 324 1106 l 329 1106 l 329 1136 l 254 1136 l 254 1131 l 267 1128 l 267 1025 l 254 1022 l 254 1017 l 332 1017 z m 381 1022 l 367 1025 l 369 1122 l 371 1122 l 406 1014 l 415 1017 l 446 1122 l 447 1122 l 454 1025 l 442 1022 l 442 1017 l 486 1017 l 486 1022 l 474 1025 l 465 1126 l 479 1131 l 479 1136 l 442 1136 l 415 1044 l 407 1072 l 386 1136 l 347 1136 l 347 1131 l 363 1126 l 356 1026 l 342 1022 l 342 1017 l 381 1017 z m 544 1131 b 574 1075 563 1131 574 1108 b 546 1022 574 1042 563 1022 b 517 1078 526 1022 517 1044 b 544 1131 517 1111 528 1131 z m 172 1128 l 188 1128 b 219 1076 208 1128 219 1113 b 188 1024 219 1043 208 1024 l 172 1025 z m 401 542 b 226 750 310 594 226 653 b 367 901 226 843 282 901 b 481 868 417 901 457 886 l 525 679 l 576 679 l 576 900 b 364 964 538 928 454 964 b 76 726 181 964 76 856 b 306 426 76 571 188 492 b 479 219 397 375 479 325 b 315 53 479 113 414 53 b 161 97 250 53 193 75 l 118 300 l 65 300 l 65 47 b 317 -21 126 14 224 -21 b 632 246 518 -21 632 89 b 401 542 632 414 511 481 z "},"Š":{"ha":675,"x_min":0,"x_max":0,"o":"m 524 1014 b 574 1078 556 1014 574 1039 b 525 1139 574 1117 554 1139 b 475 1075 493 1139 475 1113 b 524 1014 475 1036 494 1014 z m 219 1079 b 167 1136 219 1122 196 1136 l 119 1136 l 119 1131 l 133 1128 l 133 1025 l 119 1022 l 119 1017 l 167 1017 b 219 1079 201 1017 219 1039 z m 311 1049 l 304 1049 l 300 1026 l 265 1026 l 265 1074 l 292 1074 l 294 1060 l 300 1060 l 300 1094 l 294 1094 l 292 1082 l 265 1082 l 265 1128 l 299 1128 l 303 1106 l 308 1106 l 308 1136 l 233 1136 l 233 1131 l 246 1128 l 246 1025 l 233 1022 l 233 1017 l 311 1017 z m 360 1022 l 346 1025 l 349 1122 l 350 1122 l 385 1014 l 394 1017 l 425 1122 l 426 1122 l 433 1025 l 421 1022 l 421 1017 l 465 1017 l 465 1022 l 453 1025 l 444 1126 l 458 1131 l 458 1136 l 421 1136 l 394 1044 l 386 1072 l 365 1136 l 326 1136 l 326 1131 l 342 1126 l 335 1026 l 321 1022 l 321 1017 l 360 1017 z m 524 1131 b 553 1075 542 1131 553 1108 b 525 1022 553 1042 542 1022 b 496 1078 506 1022 496 1044 b 524 1131 496 1111 507 1131 z m 151 1128 l 167 1128 b 199 1076 188 1128 199 1113 b 167 1024 199 1043 188 1024 l 151 1025 z m 401 542 b 226 750 310 594 226 653 b 367 901 226 843 282 901 b 481 868 417 901 457 886 l 525 679 l 576 679 l 576 900 b 364 964 538 928 454 964 b 76 726 181 964 76 856 b 306 426 76 571 188 492 b 479 219 397 375 479 325 b 315 53 479 113 414 53 b 161 97 250 53 193 75 l 118 300 l 65 300 l 65 47 b 317 -21 126 14 224 -21 b 632 246 518 -21 632 89 b 401 542 632 414 511 481 z "},"Ş":{"ha":675,"x_min":0,"x_max":0,"o":"m 501 1014 b 551 1078 533 1014 551 1039 b 503 1139 551 1117 532 1139 b 453 1075 471 1139 453 1113 b 501 1014 453 1036 472 1014 z m 197 1079 b 144 1136 197 1122 174 1136 l 97 1136 l 97 1131 l 111 1128 l 111 1025 l 97 1022 l 97 1017 l 144 1017 b 197 1079 179 1017 197 1039 z m 289 1049 l 282 1049 l 278 1026 l 243 1026 l 243 1074 l 269 1074 l 272 1060 l 278 1060 l 278 1094 l 272 1094 l 269 1082 l 243 1082 l 243 1128 l 276 1128 l 281 1106 l 286 1106 l 286 1136 l 211 1136 l 211 1131 l 224 1128 l 224 1025 l 211 1022 l 211 1017 l 289 1017 z m 338 1022 l 324 1025 l 326 1122 l 328 1122 l 363 1014 l 372 1017 l 403 1122 l 404 1122 l 411 1025 l 399 1022 l 399 1017 l 443 1017 l 443 1022 l 431 1025 l 422 1126 l 436 1131 l 436 1136 l 399 1136 l 372 1044 l 364 1072 l 343 1136 l 304 1136 l 304 1131 l 319 1126 l 313 1026 l 299 1022 l 299 1017 l 338 1017 z m 501 1131 b 531 1075 519 1131 531 1108 b 503 1022 531 1042 519 1022 b 474 1078 483 1022 474 1044 b 501 1131 474 1111 485 1131 z m 129 1128 l 144 1128 b 176 1076 165 1128 176 1113 b 144 1024 176 1043 165 1024 l 129 1025 z m 401 542 b 226 750 310 594 226 653 b 367 901 226 843 282 901 b 481 868 417 901 457 886 l 525 679 l 576 679 l 576 900 b 364 964 538 928 454 964 b 76 726 181 964 76 856 b 306 426 76 571 188 492 b 479 219 397 375 479 325 b 315 53 479 113 414 53 b 161 97 250 53 193 75 l 118 300 l 65 300 l 65 47 b 317 -21 126 14 224 -21 b 632 246 518 -21 632 89 b 401 542 632 414 511 481 z "},"Ŝ":{"ha":675,"x_min":0,"x_max":0,"o":"m 525 1014 b 575 1078 557 1014 575 1039 b 526 1139 575 1117 556 1139 b 476 1075 494 1139 476 1113 b 525 1014 476 1036 496 1014 z m 221 1079 b 168 1136 221 1122 197 1136 l 121 1136 l 121 1131 l 135 1128 l 135 1025 l 121 1022 l 121 1017 l 168 1017 b 221 1079 203 1017 221 1039 z m 313 1049 l 306 1049 l 301 1026 l 267 1026 l 267 1074 l 293 1074 l 296 1060 l 301 1060 l 301 1094 l 296 1094 l 293 1082 l 267 1082 l 267 1128 l 300 1128 l 304 1106 l 310 1106 l 310 1136 l 235 1136 l 235 1131 l 247 1128 l 247 1025 l 235 1022 l 235 1017 l 313 1017 z m 361 1022 l 347 1025 l 350 1122 l 351 1122 l 386 1014 l 396 1017 l 426 1122 l 428 1122 l 435 1025 l 422 1022 l 422 1017 l 467 1017 l 467 1022 l 454 1025 l 446 1126 l 460 1131 l 460 1136 l 422 1136 l 396 1044 l 388 1072 l 367 1136 l 328 1136 l 328 1131 l 343 1126 l 336 1026 l 322 1022 l 322 1017 l 361 1017 z m 525 1131 b 554 1075 543 1131 554 1108 b 526 1022 554 1042 543 1022 b 497 1078 507 1022 497 1044 b 525 1131 497 1111 508 1131 z m 153 1128 l 168 1128 b 200 1076 189 1128 200 1113 b 168 1024 200 1043 189 1024 l 153 1025 z m 401 542 b 226 750 310 594 226 653 b 367 901 226 843 282 901 b 481 868 417 901 457 886 l 525 679 l 576 679 l 576 900 b 364 964 538 928 454 964 b 76 726 181 964 76 856 b 306 426 76 571 188 492 b 479 219 397 375 479 325 b 315 53 479 113 414 53 b 161 97 250 53 193 75 l 118 300 l 65 300 l 65 47 b 317 -21 126 14 224 -21 b 632 246 518 -21 632 89 b 401 542 632 414 511 481 z "},"Ș":{"ha":675,"x_min":0,"x_max":0,"o":"m 503 1014 b 553 1078 535 1014 553 1039 b 504 1139 553 1117 533 1139 b 454 1075 472 1139 454 1113 b 503 1014 454 1036 474 1014 z m 199 1079 b 146 1136 199 1122 175 1136 l 99 1136 l 99 1131 l 113 1128 l 113 1025 l 99 1022 l 99 1017 l 146 1017 b 199 1079 181 1017 199 1039 z m 290 1049 l 283 1049 l 279 1026 l 244 1026 l 244 1074 l 271 1074 l 274 1060 l 279 1060 l 279 1094 l 274 1094 l 271 1082 l 244 1082 l 244 1128 l 278 1128 l 282 1106 l 288 1106 l 288 1136 l 213 1136 l 213 1131 l 225 1128 l 225 1025 l 213 1022 l 213 1017 l 290 1017 z m 339 1022 l 325 1025 l 328 1122 l 329 1122 l 364 1014 l 374 1017 l 404 1122 l 406 1122 l 413 1025 l 400 1022 l 400 1017 l 444 1017 l 444 1022 l 432 1025 l 424 1126 l 438 1131 l 438 1136 l 400 1136 l 374 1044 l 365 1072 l 344 1136 l 306 1136 l 306 1131 l 321 1126 l 314 1026 l 300 1022 l 300 1017 l 339 1017 z m 503 1131 b 532 1075 521 1131 532 1108 b 504 1022 532 1042 521 1022 b 475 1078 485 1022 475 1044 b 503 1131 475 1111 486 1131 z m 131 1128 l 146 1128 b 178 1076 167 1128 178 1113 b 146 1024 178 1043 167 1024 l 131 1025 z m 401 542 b 226 750 310 594 226 653 b 367 901 226 843 282 901 b 481 868 417 901 457 886 l 525 679 l 576 679 l 576 900 b 364 964 538 928 454 964 b 76 726 181 964 76 856 b 306 426 76 571 188 492 b 479 219 397 375 479 325 b 315 53 479 113 414 53 b 161 97 250 53 193 75 l 118 300 l 65 300 l 65 47 b 317 -21 126 14 224 -21 b 632 246 518 -21 632 89 b 401 542 632 414 511 481 z "},"ẞ":{"ha":732,"x_min":0,"x_max":0,"o":"m 508 910 b 363 1025 508 983 451 1025 b 224 915 274 1025 224 981 b 369 800 224 842 285 800 b 508 910 458 800 508 844 z m 489 915 b 363 847 489 869 439 847 b 243 910 288 847 243 874 b 369 978 243 951 293 978 b 489 915 444 978 489 951 z m 508 594 l 503 617 l 261 686 l 261 689 l 483 706 l 489 676 l 503 676 l 503 778 l 489 778 l 483 750 l 253 731 l 243 763 l 229 763 l 229 676 l 439 617 l 229 550 l 229 461 l 243 461 l 253 496 l 479 479 l 489 449 l 503 449 l 503 538 l 489 538 l 483 506 l 261 511 l 261 514 z m 503 249 l 503 426 l 429 426 l 429 411 l 479 401 l 479 322 l 372 322 l 372 382 l 403 388 l 403 401 l 325 401 l 325 388 l 353 382 l 353 322 l 249 322 l 249 399 l 300 408 l 300 419 l 229 419 l 229 249 l 243 249 l 249 278 l 483 278 l 489 249 z m 503 -11 l 503 97 b 360 217 503 175 451 217 b 229 97 261 217 229 164 l 229 -11 l 243 -11 l 249 21 l 483 21 l 489 -11 z m 486 97 l 483 63 l 249 63 l 249 97 b 365 169 249 144 285 169 b 486 97 442 169 486 144 z "},"T":{"ha":742,"x_min":0,"x_max":0,"o":"m 715 944 l 26 944 l 26 665 l 76 665 l 119 871 l 296 871 l 296 75 l 175 46 l 175 0 l 567 0 l 567 46 l 446 75 l 446 871 l 622 871 l 665 665 l 715 665 z "},"Ŧ":{"ha":742,"x_min":0,"x_max":0,"o":"m 547 1014 b 597 1078 579 1014 597 1039 b 549 1139 597 1117 578 1139 b 499 1075 517 1139 499 1113 b 547 1014 499 1036 518 1014 z m 243 1079 b 190 1136 243 1122 219 1136 l 143 1136 l 143 1131 l 157 1128 l 157 1025 l 143 1022 l 143 1017 l 190 1017 b 243 1079 225 1017 243 1039 z m 335 1049 l 328 1049 l 324 1026 l 289 1026 l 289 1074 l 315 1074 l 318 1060 l 324 1060 l 324 1094 l 318 1094 l 315 1082 l 289 1082 l 289 1128 l 322 1128 l 326 1106 l 332 1106 l 332 1136 l 257 1136 l 257 1131 l 269 1128 l 269 1025 l 257 1022 l 257 1017 l 335 1017 z m 383 1022 l 369 1025 l 372 1122 l 374 1122 l 408 1014 l 418 1017 l 449 1122 l 450 1122 l 457 1025 l 444 1022 l 444 1017 l 489 1017 l 489 1022 l 476 1025 l 468 1126 l 482 1131 l 482 1136 l 444 1136 l 418 1044 l 410 1072 l 389 1136 l 350 1136 l 350 1131 l 365 1126 l 358 1026 l 344 1022 l 344 1017 l 383 1017 z m 547 1131 b 576 1075 565 1131 576 1108 b 549 1022 576 1042 565 1022 b 519 1078 529 1022 519 1044 b 547 1131 519 1111 531 1131 z m 175 1128 l 190 1128 b 222 1076 211 1128 222 1113 b 190 1024 222 1043 211 1024 l 175 1025 z m 715 944 l 26 944 l 26 665 l 76 665 l 119 871 l 296 871 l 296 75 l 175 46 l 175 0 l 567 0 l 567 46 l 446 75 l 446 871 l 622 871 l 665 665 l 715 665 z "},"Ť":{"ha":742,"x_min":0,"x_max":0,"o":"m 547 1014 b 597 1078 579 1014 597 1039 b 549 1139 597 1117 578 1139 b 499 1075 517 1139 499 1113 b 547 1014 499 1036 518 1014 z m 243 1079 b 190 1136 243 1122 219 1136 l 143 1136 l 143 1131 l 157 1128 l 157 1025 l 143 1022 l 143 1017 l 190 1017 b 243 1079 225 1017 243 1039 z m 335 1049 l 328 1049 l 324 1026 l 289 1026 l 289 1074 l 315 1074 l 318 1060 l 324 1060 l 324 1094 l 318 1094 l 315 1082 l 289 1082 l 289 1128 l 322 1128 l 326 1106 l 332 1106 l 332 1136 l 257 1136 l 257 1131 l 269 1128 l 269 1025 l 257 1022 l 257 1017 l 335 1017 z m 383 1022 l 369 1025 l 372 1122 l 374 1122 l 408 1014 l 418 1017 l 449 1122 l 450 1122 l 457 1025 l 444 1022 l 444 1017 l 489 1017 l 489 1022 l 476 1025 l 468 1126 l 482 1131 l 482 1136 l 444 1136 l 418 1044 l 410 1072 l 389 1136 l 350 1136 l 350 1131 l 365 1126 l 358 1026 l 344 1022 l 344 1017 l 383 1017 z m 547 1131 b 576 1075 565 1131 576 1108 b 549 1022 576 1042 565 1022 b 519 1078 529 1022 519 1044 b 547 1131 519 1111 531 1131 z m 175 1128 l 190 1128 b 222 1076 211 1128 222 1113 b 190 1024 222 1043 211 1024 l 175 1025 z m 715 944 l 26 944 l 26 665 l 76 665 l 119 871 l 296 871 l 296 75 l 175 46 l 175 0 l 567 0 l 567 46 l 446 75 l 446 871 l 622 871 l 665 665 l 715 665 z "},"Ţ":{"ha":742,"x_min":0,"x_max":0,"o":"m 547 1014 b 597 1078 579 1014 597 1039 b 549 1139 597 1117 578 1139 b 499 1075 517 1139 499 1113 b 547 1014 499 1036 518 1014 z m 243 1079 b 190 1136 243 1122 219 1136 l 143 1136 l 143 1131 l 157 1128 l 157 1025 l 143 1022 l 143 1017 l 190 1017 b 243 1079 225 1017 243 1039 z m 335 1049 l 328 1049 l 324 1026 l 289 1026 l 289 1074 l 315 1074 l 318 1060 l 324 1060 l 324 1094 l 318 1094 l 315 1082 l 289 1082 l 289 1128 l 322 1128 l 326 1106 l 332 1106 l 332 1136 l 257 1136 l 257 1131 l 269 1128 l 269 1025 l 257 1022 l 257 1017 l 335 1017 z m 383 1022 l 369 1025 l 372 1122 l 374 1122 l 408 1014 l 418 1017 l 449 1122 l 450 1122 l 457 1025 l 444 1022 l 444 1017 l 489 1017 l 489 1022 l 476 1025 l 468 1126 l 482 1131 l 482 1136 l 444 1136 l 418 1044 l 410 1072 l 389 1136 l 350 1136 l 350 1131 l 365 1126 l 358 1026 l 344 1022 l 344 1017 l 383 1017 z m 547 1131 b 576 1075 565 1131 576 1108 b 549 1022 576 1042 565 1022 b 519 1078 529 1022 519 1044 b 547 1131 519 1111 531 1131 z m 175 1128 l 190 1128 b 222 1076 211 1128 222 1113 b 190 1024 222 1043 211 1024 l 175 1025 z m 715 944 l 26 944 l 26 665 l 76 665 l 119 871 l 296 871 l 296 75 l 175 46 l 175 0 l 567 0 l 567 46 l 446 75 l 446 871 l 622 871 l 665 665 l 715 665 z "},"Ț":{"ha":742,"x_min":0,"x_max":0,"o":"m 547 1014 b 597 1078 579 1014 597 1039 b 549 1139 597 1117 578 1139 b 499 1075 517 1139 499 1113 b 547 1014 499 1036 518 1014 z m 243 1079 b 190 1136 243 1122 219 1136 l 143 1136 l 143 1131 l 157 1128 l 157 1025 l 143 1022 l 143 1017 l 190 1017 b 243 1079 225 1017 243 1039 z m 335 1049 l 328 1049 l 324 1026 l 289 1026 l 289 1074 l 315 1074 l 318 1060 l 324 1060 l 324 1094 l 318 1094 l 315 1082 l 289 1082 l 289 1128 l 322 1128 l 326 1106 l 332 1106 l 332 1136 l 257 1136 l 257 1131 l 269 1128 l 269 1025 l 257 1022 l 257 1017 l 335 1017 z m 383 1022 l 369 1025 l 372 1122 l 374 1122 l 408 1014 l 418 1017 l 449 1122 l 450 1122 l 457 1025 l 444 1022 l 444 1017 l 489 1017 l 489 1022 l 476 1025 l 468 1126 l 482 1131 l 482 1136 l 444 1136 l 418 1044 l 410 1072 l 389 1136 l 350 1136 l 350 1131 l 365 1126 l 358 1026 l 344 1022 l 344 1017 l 383 1017 z m 547 1131 b 576 1075 565 1131 576 1108 b 549 1022 576 1042 565 1022 b 519 1078 529 1022 519 1044 b 547 1131 519 1111 531 1131 z m 175 1128 l 190 1128 b 222 1076 211 1128 222 1113 b 190 1024 222 1043 211 1024 l 175 1025 z m 715 944 l 26 944 l 26 665 l 76 665 l 119 871 l 296 871 l 296 75 l 175 46 l 175 0 l 567 0 l 567 46 l 446 75 l 446 871 l 622 871 l 665 665 l 715 665 z "},"U":{"ha":901,"x_min":0,"x_max":0,"o":"m 874 944 l 567 944 l 567 900 l 689 864 l 689 272 b 488 44 689 122 607 44 b 286 299 360 44 286 133 l 286 871 l 401 900 l 401 944 l 35 944 l 35 900 l 136 872 l 136 282 b 468 -21 136 81 272 -21 b 775 289 668 -21 775 99 l 775 867 l 874 900 z "},"Ú":{"ha":901,"x_min":0,"x_max":0,"o":"m 679 1014 b 729 1078 711 1014 729 1039 b 681 1139 729 1117 710 1139 b 631 1075 649 1139 631 1113 b 679 1014 631 1036 650 1014 z m 375 1079 b 322 1136 375 1122 351 1136 l 275 1136 l 275 1131 l 289 1128 l 289 1025 l 275 1022 l 275 1017 l 322 1017 b 375 1079 357 1017 375 1039 z m 467 1049 l 460 1049 l 456 1026 l 421 1026 l 421 1074 l 447 1074 l 450 1060 l 456 1060 l 456 1094 l 450 1094 l 447 1082 l 421 1082 l 421 1128 l 454 1128 l 458 1106 l 464 1106 l 464 1136 l 389 1136 l 389 1131 l 401 1128 l 401 1025 l 389 1022 l 389 1017 l 467 1017 z m 515 1022 l 501 1025 l 504 1122 l 506 1122 l 540 1014 l 550 1017 l 581 1122 l 582 1122 l 589 1025 l 576 1022 l 576 1017 l 621 1017 l 621 1022 l 608 1025 l 600 1126 l 614 1131 l 614 1136 l 576 1136 l 550 1044 l 542 1072 l 521 1136 l 482 1136 l 482 1131 l 497 1126 l 490 1026 l 476 1022 l 476 1017 l 515 1017 z m 679 1131 b 708 1075 697 1131 708 1108 b 681 1022 708 1042 697 1022 b 651 1078 661 1022 651 1044 b 679 1131 651 1111 663 1131 z m 307 1128 l 322 1128 b 354 1076 343 1128 354 1113 b 322 1024 354 1043 343 1024 l 307 1025 z m 874 944 l 567 944 l 567 900 l 689 864 l 689 272 b 488 44 689 122 607 44 b 286 299 360 44 286 133 l 286 871 l 401 900 l 401 944 l 35 944 l 35 900 l 136 872 l 136 282 b 468 -21 136 81 272 -21 b 775 289 668 -21 775 99 l 775 867 l 874 900 z "},"Ŭ":{"ha":901,"x_min":0,"x_max":0,"o":"m 660 1014 b 710 1078 692 1014 710 1039 b 661 1139 710 1117 690 1139 b 611 1075 629 1139 611 1113 b 660 1014 611 1036 631 1014 z m 356 1079 b 303 1136 356 1122 332 1136 l 256 1136 l 256 1131 l 269 1128 l 269 1025 l 256 1022 l 256 1017 l 303 1017 b 356 1079 338 1017 356 1039 z m 447 1049 l 440 1049 l 436 1026 l 401 1026 l 401 1074 l 428 1074 l 431 1060 l 436 1060 l 436 1094 l 431 1094 l 428 1082 l 401 1082 l 401 1128 l 435 1128 l 439 1106 l 444 1106 l 444 1136 l 369 1136 l 369 1131 l 382 1128 l 382 1025 l 369 1022 l 369 1017 l 447 1017 z m 496 1022 l 482 1025 l 485 1122 l 486 1122 l 521 1014 l 531 1017 l 561 1122 l 563 1122 l 569 1025 l 557 1022 l 557 1017 l 601 1017 l 601 1022 l 589 1025 l 581 1126 l 594 1131 l 594 1136 l 557 1136 l 531 1044 l 522 1072 l 501 1136 l 463 1136 l 463 1131 l 478 1126 l 471 1026 l 457 1022 l 457 1017 l 496 1017 z m 660 1131 b 689 1075 678 1131 689 1108 b 661 1022 689 1042 678 1022 b 632 1078 642 1022 632 1044 b 660 1131 632 1111 643 1131 z m 288 1128 l 303 1128 b 335 1076 324 1128 335 1113 b 303 1024 335 1043 324 1024 l 288 1025 z m 874 944 l 567 944 l 567 900 l 689 864 l 689 272 b 488 44 689 122 607 44 b 286 299 360 44 286 133 l 286 871 l 401 900 l 401 944 l 35 944 l 35 900 l 136 872 l 136 282 b 468 -21 136 81 272 -21 b 775 289 668 -21 775 99 l 775 867 l 874 900 z "},"Û":{"ha":901,"x_min":0,"x_max":0,"o":"m 660 1014 b 710 1078 692 1014 710 1039 b 661 1139 710 1117 690 1139 b 611 1075 629 1139 611 1113 b 660 1014 611 1036 631 1014 z m 356 1079 b 303 1136 356 1122 332 1136 l 256 1136 l 256 1131 l 269 1128 l 269 1025 l 256 1022 l 256 1017 l 303 1017 b 356 1079 338 1017 356 1039 z m 447 1049 l 440 1049 l 436 1026 l 401 1026 l 401 1074 l 428 1074 l 431 1060 l 436 1060 l 436 1094 l 431 1094 l 428 1082 l 401 1082 l 401 1128 l 435 1128 l 439 1106 l 444 1106 l 444 1136 l 369 1136 l 369 1131 l 382 1128 l 382 1025 l 369 1022 l 369 1017 l 447 1017 z m 496 1022 l 482 1025 l 485 1122 l 486 1122 l 521 1014 l 531 1017 l 561 1122 l 563 1122 l 569 1025 l 557 1022 l 557 1017 l 601 1017 l 601 1022 l 589 1025 l 581 1126 l 594 1131 l 594 1136 l 557 1136 l 531 1044 l 522 1072 l 501 1136 l 463 1136 l 463 1131 l 478 1126 l 471 1026 l 457 1022 l 457 1017 l 496 1017 z m 660 1131 b 689 1075 678 1131 689 1108 b 661 1022 689 1042 678 1022 b 632 1078 642 1022 632 1044 b 660 1131 632 1111 643 1131 z m 288 1128 l 303 1128 b 335 1076 324 1128 335 1113 b 303 1024 335 1043 324 1024 l 288 1025 z m 874 944 l 567 944 l 567 900 l 689 864 l 689 272 b 488 44 689 122 607 44 b 286 299 360 44 286 133 l 286 871 l 401 900 l 401 944 l 35 944 l 35 900 l 136 872 l 136 282 b 468 -21 136 81 272 -21 b 775 289 668 -21 775 99 l 775 867 l 874 900 z "},"Ü":{"ha":901,"x_min":0,"x_max":0,"o":"m 611 1061 b 661 1125 611 1099 629 1125 b 710 1064 690 1125 710 1103 b 660 1000 710 1025 692 1000 b 611 1061 631 1000 611 1022 z m 256 1008 l 269 1011 l 269 1114 l 256 1117 l 256 1122 l 303 1122 b 356 1065 332 1122 356 1108 b 303 1003 356 1025 338 1003 l 256 1003 z m 447 1035 l 447 1003 l 369 1003 l 369 1008 l 382 1011 l 382 1114 l 369 1117 l 369 1122 l 444 1122 l 444 1092 l 439 1092 l 435 1114 l 401 1114 l 401 1068 l 428 1068 l 431 1081 l 436 1081 l 436 1046 l 431 1046 l 428 1060 l 401 1060 l 401 1013 l 436 1013 l 440 1035 z m 601 1008 l 601 1003 l 557 1003 l 557 1008 l 569 1011 l 563 1108 l 561 1108 l 531 1003 l 521 1000 l 486 1108 l 485 1108 l 482 1011 l 496 1008 l 496 1003 l 457 1003 l 457 1008 l 471 1013 l 478 1113 l 463 1117 l 463 1122 l 501 1122 l 522 1058 l 531 1031 l 557 1122 l 594 1122 l 594 1117 l 581 1113 l 589 1011 z m 689 1061 b 660 1117 689 1094 678 1117 b 632 1064 643 1117 632 1097 b 661 1008 632 1031 642 1008 b 689 1061 678 1008 689 1028 z m 335 1063 b 303 1114 335 1099 324 1114 l 288 1114 l 288 1011 l 303 1010 b 335 1063 324 1010 335 1029 z m 874 944 l 567 944 l 567 900 l 689 864 l 689 272 b 488 44 689 122 607 44 b 286 299 360 44 286 133 l 286 871 l 401 900 l 401 944 l 35 944 l 35 900 l 136 872 l 136 282 b 468 -21 136 81 272 -21 b 775 289 668 -21 775 99 l 775 867 l 874 900 z "},"Ù":{"ha":901,"x_min":0,"x_max":0,"o":"m 660 1014 b 710 1078 692 1014 710 1039 b 661 1139 710 1117 690 1139 b 611 1075 629 1139 611 1113 b 660 1014 611 1036 631 1014 z m 256 1017 l 303 1017 b 356 1079 338 1017 356 1039 b 303 1136 356 1122 332 1136 l 256 1136 l 256 1131 l 269 1128 l 269 1025 l 256 1022 z m 369 1017 l 447 1017 l 447 1049 l 440 1049 l 436 1026 l 401 1026 l 401 1074 l 428 1074 l 431 1060 l 436 1060 l 436 1094 l 431 1094 l 428 1082 l 401 1082 l 401 1128 l 435 1128 l 439 1106 l 444 1106 l 444 1136 l 369 1136 l 369 1131 l 382 1128 l 382 1025 l 369 1022 z m 521 1014 l 531 1017 l 561 1122 l 563 1122 l 569 1025 l 557 1022 l 557 1017 l 601 1017 l 601 1022 l 589 1025 l 581 1126 l 594 1131 l 594 1136 l 557 1136 l 531 1044 l 522 1072 l 501 1136 l 463 1136 l 463 1131 l 478 1126 l 471 1026 l 457 1022 l 457 1017 l 496 1017 l 496 1022 l 482 1025 l 485 1122 l 486 1122 z m 661 1022 b 632 1078 642 1022 632 1044 b 660 1131 632 1111 643 1131 b 689 1075 678 1131 689 1108 b 661 1022 689 1042 678 1022 z m 303 1024 l 288 1025 l 288 1128 l 303 1128 b 335 1076 324 1128 335 1113 b 303 1024 335 1043 324 1024 z m 874 944 l 567 944 l 567 900 l 689 864 l 689 272 b 488 44 689 122 607 44 b 286 299 360 44 286 133 l 286 871 l 401 900 l 401 944 l 35 944 l 35 900 l 136 872 l 136 282 b 468 -21 136 81 272 -21 b 775 289 668 -21 775 99 l 775 867 l 874 900 z "},"Ű":{"ha":901,"x_min":0,"x_max":0,"o":"m 658 1014 b 708 1078 690 1014 708 1039 b 660 1139 708 1117 689 1139 b 610 1075 628 1139 610 1113 b 658 1014 610 1036 629 1014 z m 254 1017 l 301 1017 b 354 1079 336 1017 354 1039 b 301 1136 354 1122 331 1136 l 254 1136 l 254 1131 l 268 1128 l 268 1025 l 254 1022 z m 368 1017 l 446 1017 l 446 1049 l 439 1049 l 435 1026 l 400 1026 l 400 1074 l 426 1074 l 429 1060 l 435 1060 l 435 1094 l 429 1094 l 426 1082 l 400 1082 l 400 1128 l 433 1128 l 438 1106 l 443 1106 l 443 1136 l 368 1136 l 368 1131 l 381 1128 l 381 1025 l 368 1022 z m 519 1014 l 529 1017 l 560 1122 l 561 1122 l 568 1025 l 556 1022 l 556 1017 l 600 1017 l 600 1022 l 588 1025 l 579 1126 l 593 1131 l 593 1136 l 556 1136 l 529 1044 l 521 1072 l 500 1136 l 461 1136 l 461 1131 l 476 1126 l 469 1026 l 456 1022 l 456 1017 l 494 1017 l 494 1022 l 481 1025 l 483 1122 l 485 1122 z m 660 1022 b 631 1078 640 1022 631 1044 b 658 1131 631 1111 642 1131 b 688 1075 676 1131 688 1108 b 660 1022 688 1042 676 1022 z m 301 1024 l 286 1025 l 286 1128 l 301 1128 b 333 1076 322 1128 333 1113 b 301 1024 333 1043 322 1024 z m 874 944 l 567 944 l 567 900 l 689 864 l 689 272 b 488 44 689 122 607 44 b 286 299 360 44 286 133 l 286 871 l 401 900 l 401 944 l 35 944 l 35 900 l 136 872 l 136 282 b 468 -21 136 81 272 -21 b 775 289 668 -21 775 99 l 775 867 l 874 900 z "},"Ū":{"ha":901,"x_min":0,"x_max":0,"o":"m 660 1014 b 710 1078 692 1014 710 1039 b 661 1139 710 1117 690 1139 b 611 1075 629 1139 611 1113 b 660 1014 611 1036 631 1014 z m 256 1017 l 303 1017 b 356 1079 338 1017 356 1039 b 303 1136 356 1122 332 1136 l 256 1136 l 256 1131 l 269 1128 l 269 1025 l 256 1022 z m 369 1017 l 447 1017 l 447 1049 l 440 1049 l 436 1026 l 401 1026 l 401 1074 l 428 1074 l 431 1060 l 436 1060 l 436 1094 l 431 1094 l 428 1082 l 401 1082 l 401 1128 l 435 1128 l 439 1106 l 444 1106 l 444 1136 l 369 1136 l 369 1131 l 382 1128 l 382 1025 l 369 1022 z m 521 1014 l 531 1017 l 561 1122 l 563 1122 l 569 1025 l 557 1022 l 557 1017 l 601 1017 l 601 1022 l 589 1025 l 581 1126 l 594 1131 l 594 1136 l 557 1136 l 531 1044 l 522 1072 l 501 1136 l 463 1136 l 463 1131 l 478 1126 l 471 1026 l 457 1022 l 457 1017 l 496 1017 l 496 1022 l 482 1025 l 485 1122 l 486 1122 z m 661 1022 b 632 1078 642 1022 632 1044 b 660 1131 632 1111 643 1131 b 689 1075 678 1131 689 1108 b 661 1022 689 1042 678 1022 z m 303 1024 l 288 1025 l 288 1128 l 303 1128 b 335 1076 324 1128 335 1113 b 303 1024 335 1043 324 1024 z m 874 944 l 567 944 l 567 900 l 689 864 l 689 272 b 488 44 689 122 607 44 b 286 299 360 44 286 133 l 286 871 l 401 900 l 401 944 l 35 944 l 35 900 l 136 872 l 136 282 b 468 -21 136 81 272 -21 b 775 289 668 -21 775 99 l 775 867 l 874 900 z "},"Ų":{"ha":901,"x_min":0,"x_max":0,"o":"m 679 1014 b 729 1078 711 1014 729 1039 b 681 1139 729 1117 710 1139 b 631 1075 649 1139 631 1113 b 679 1014 631 1036 650 1014 z m 375 1079 b 322 1136 375 1122 351 1136 l 275 1136 l 275 1131 l 289 1128 l 289 1025 l 275 1022 l 275 1017 l 322 1017 b 375 1079 357 1017 375 1039 z m 467 1049 l 460 1049 l 456 1026 l 421 1026 l 421 1074 l 447 1074 l 450 1060 l 456 1060 l 456 1094 l 450 1094 l 447 1082 l 421 1082 l 421 1128 l 454 1128 l 458 1106 l 464 1106 l 464 1136 l 389 1136 l 389 1131 l 401 1128 l 401 1025 l 389 1022 l 389 1017 l 467 1017 z m 515 1022 l 501 1025 l 504 1122 l 506 1122 l 540 1014 l 550 1017 l 581 1122 l 582 1122 l 589 1025 l 576 1022 l 576 1017 l 621 1017 l 621 1022 l 608 1025 l 600 1126 l 614 1131 l 614 1136 l 576 1136 l 550 1044 l 542 1072 l 521 1136 l 482 1136 l 482 1131 l 497 1126 l 490 1026 l 476 1022 l 476 1017 l 515 1017 z m 679 1131 b 708 1075 697 1131 708 1108 b 681 1022 708 1042 697 1022 b 651 1078 661 1022 651 1044 b 679 1131 651 1111 663 1131 z m 307 1128 l 322 1128 b 354 1076 343 1128 354 1113 b 322 1024 354 1043 343 1024 l 307 1025 z m 874 944 l 567 944 l 567 900 l 689 864 l 689 272 b 488 44 689 122 607 44 b 286 299 360 44 286 133 l 286 871 l 401 900 l 401 944 l 35 944 l 35 900 l 136 872 l 136 282 b 468 -21 136 81 272 -21 b 775 289 668 -21 775 99 l 775 867 l 874 900 z "},"Ů":{"ha":901,"x_min":0,"x_max":0,"o":"m 661 1014 b 711 1078 693 1014 711 1039 b 663 1139 711 1117 692 1139 b 613 1075 631 1139 613 1113 b 661 1014 613 1036 632 1014 z m 257 1017 l 304 1017 b 357 1079 339 1017 357 1039 b 304 1136 357 1122 333 1136 l 257 1136 l 257 1131 l 271 1128 l 271 1025 l 257 1022 z m 371 1017 l 449 1017 l 449 1049 l 442 1049 l 438 1026 l 403 1026 l 403 1074 l 429 1074 l 432 1060 l 438 1060 l 438 1094 l 432 1094 l 429 1082 l 403 1082 l 403 1128 l 436 1128 l 440 1106 l 446 1106 l 446 1136 l 371 1136 l 371 1131 l 383 1128 l 383 1025 l 371 1022 z m 522 1014 l 532 1017 l 563 1122 l 564 1122 l 571 1025 l 558 1022 l 558 1017 l 603 1017 l 603 1022 l 590 1025 l 582 1126 l 596 1131 l 596 1136 l 558 1136 l 532 1044 l 524 1072 l 503 1136 l 464 1136 l 464 1131 l 479 1126 l 472 1026 l 458 1022 l 458 1017 l 497 1017 l 497 1022 l 483 1025 l 486 1122 l 488 1122 z m 663 1022 b 633 1078 643 1022 633 1044 b 661 1131 633 1111 644 1131 b 690 1075 679 1131 690 1108 b 663 1022 690 1042 679 1022 z m 304 1024 l 289 1025 l 289 1128 l 304 1128 b 336 1076 325 1128 336 1113 b 304 1024 336 1043 325 1024 z m 874 944 l 567 944 l 567 900 l 689 864 l 689 272 b 488 44 689 122 607 44 b 286 299 360 44 286 133 l 286 871 l 401 900 l 401 944 l 35 944 l 35 900 l 136 872 l 136 282 b 468 -21 136 81 272 -21 b 775 289 668 -21 775 99 l 775 867 l 874 900 z "},"Ũ":{"ha":901,"x_min":0,"x_max":0,"o":"m 660 1014 b 710 1078 692 1014 710 1039 b 661 1139 710 1117 690 1139 b 611 1075 629 1139 611 1113 b 660 1014 611 1036 631 1014 z m 256 1017 l 303 1017 b 356 1079 338 1017 356 1039 b 303 1136 356 1122 332 1136 l 256 1136 l 256 1131 l 269 1128 l 269 1025 l 256 1022 z m 369 1017 l 447 1017 l 447 1049 l 440 1049 l 436 1026 l 401 1026 l 401 1074 l 428 1074 l 431 1060 l 436 1060 l 436 1094 l 431 1094 l 428 1082 l 401 1082 l 401 1128 l 435 1128 l 439 1106 l 444 1106 l 444 1136 l 369 1136 l 369 1131 l 382 1128 l 382 1025 l 369 1022 z m 521 1014 l 531 1017 l 561 1122 l 563 1122 l 569 1025 l 557 1022 l 557 1017 l 601 1017 l 601 1022 l 589 1025 l 581 1126 l 594 1131 l 594 1136 l 557 1136 l 531 1044 l 522 1072 l 501 1136 l 463 1136 l 463 1131 l 478 1126 l 471 1026 l 457 1022 l 457 1017 l 496 1017 l 496 1022 l 482 1025 l 485 1122 l 486 1122 z m 661 1022 b 632 1078 642 1022 632 1044 b 660 1131 632 1111 643 1131 b 689 1075 678 1131 689 1108 b 661 1022 689 1042 678 1022 z m 303 1024 l 288 1025 l 288 1128 l 303 1128 b 335 1076 324 1128 335 1113 b 303 1024 335 1043 324 1024 z m 874 944 l 567 944 l 567 900 l 689 864 l 689 272 b 488 44 689 122 607 44 b 286 299 360 44 286 133 l 286 871 l 401 900 l 401 944 l 35 944 l 35 900 l 136 872 l 136 282 b 468 -21 136 81 272 -21 b 775 289 668 -21 775 99 l 775 867 l 874 900 z "},"V":{"ha":856,"x_min":0,"x_max":0,"o":"m 857 944 l 565 944 l 565 900 l 682 869 l 472 188 l 468 188 l 411 400 l 256 875 l 367 900 l 367 944 l 8 944 l 8 900 l 93 879 l 390 -19 l 479 0 l 769 872 l 857 900 z "},"W":{"ha":1258,"x_min":0,"x_max":0,"o":"m 1260 944 l 967 944 l 967 900 l 1082 869 l 919 186 l 915 186 l 868 432 l 742 950 l 599 929 l 418 186 l 415 186 l 371 419 l 257 875 l 367 900 l 367 944 l 8 944 l 8 900 l 96 878 l 338 -19 l 440 0 l 629 781 l 632 781 l 833 -19 l 936 0 l 1168 871 l 1260 900 z "},"Ẃ":{"ha":1258,"x_min":0,"x_max":0,"o":"m 867 1014 b 917 1078 899 1014 917 1039 b 868 1139 917 1117 897 1139 b 818 1075 836 1139 818 1113 b 867 1014 818 1036 838 1014 z m 563 1079 b 510 1136 563 1122 539 1136 l 463 1136 l 463 1131 l 476 1128 l 476 1025 l 463 1022 l 463 1017 l 510 1017 b 563 1079 544 1017 563 1039 z m 654 1049 l 647 1049 l 643 1026 l 608 1026 l 608 1074 l 635 1074 l 638 1060 l 643 1060 l 643 1094 l 638 1094 l 635 1082 l 608 1082 l 608 1128 l 642 1128 l 646 1106 l 651 1106 l 651 1136 l 576 1136 l 576 1131 l 589 1128 l 589 1025 l 576 1022 l 576 1017 l 654 1017 z m 703 1022 l 689 1025 l 692 1122 l 693 1122 l 728 1014 l 738 1017 l 768 1122 l 769 1122 l 776 1025 l 764 1022 l 764 1017 l 808 1017 l 808 1022 l 796 1025 l 788 1126 l 801 1131 l 801 1136 l 764 1136 l 738 1044 l 729 1072 l 708 1136 l 669 1136 l 669 1131 l 685 1126 l 678 1026 l 664 1022 l 664 1017 l 703 1017 z m 867 1131 b 896 1075 885 1131 896 1108 b 868 1022 896 1042 885 1022 b 839 1078 849 1022 839 1044 b 867 1131 839 1111 850 1131 z m 494 1128 l 510 1128 b 542 1076 531 1128 542 1113 b 510 1024 542 1043 531 1024 l 494 1025 z m 1260 944 l 967 944 l 967 900 l 1082 869 l 919 186 l 915 186 l 868 432 l 742 950 l 599 929 l 418 186 l 415 186 l 371 419 l 257 875 l 367 900 l 367 944 l 8 944 l 8 900 l 97 879 l 338 -19 l 440 0 l 629 781 l 632 781 l 833 -19 l 936 0 l 1168 872 l 1260 900 z "},"Ŵ":{"ha":1258,"x_min":0,"x_max":0,"o":"m 849 1014 b 899 1078 881 1014 899 1039 b 850 1139 899 1117 879 1139 b 800 1075 818 1139 800 1113 b 849 1014 800 1036 819 1014 z m 544 1079 b 492 1136 544 1122 521 1136 l 444 1136 l 444 1131 l 458 1128 l 458 1025 l 444 1022 l 444 1017 l 492 1017 b 544 1079 526 1017 544 1039 z m 636 1049 l 629 1049 l 625 1026 l 590 1026 l 590 1074 l 617 1074 l 619 1060 l 625 1060 l 625 1094 l 619 1094 l 617 1082 l 590 1082 l 590 1128 l 624 1128 l 628 1106 l 633 1106 l 633 1136 l 558 1136 l 558 1131 l 571 1128 l 571 1025 l 558 1022 l 558 1017 l 636 1017 z m 685 1022 l 671 1025 l 674 1122 l 675 1122 l 710 1014 l 719 1017 l 750 1122 l 751 1122 l 758 1025 l 746 1022 l 746 1017 l 790 1017 l 790 1022 l 778 1025 l 769 1126 l 783 1131 l 783 1136 l 746 1136 l 719 1044 l 711 1072 l 690 1136 l 651 1136 l 651 1131 l 667 1126 l 660 1026 l 646 1022 l 646 1017 l 685 1017 z m 849 1131 b 878 1075 867 1131 878 1108 b 850 1022 878 1042 867 1022 b 821 1078 831 1022 821 1044 b 849 1131 821 1111 832 1131 z m 476 1128 l 492 1128 b 524 1076 513 1128 524 1113 b 492 1024 524 1043 513 1024 l 476 1025 z m 1260 944 l 967 944 l 967 900 l 1082 869 l 919 186 l 915 186 l 868 432 l 742 950 l 599 929 l 418 186 l 415 186 l 371 419 l 257 875 l 367 900 l 367 944 l 8 944 l 8 900 l 97 879 l 338 -19 l 440 0 l 629 781 l 632 781 l 833 -19 l 936 0 l 1168 872 l 1260 900 z "},"Ẅ":{"ha":1258,"x_min":0,"x_max":0,"o":"m 800 1061 b 850 1125 800 1099 818 1125 b 899 1064 879 1125 899 1103 b 849 1000 899 1025 881 1000 b 800 1061 819 1000 800 1022 z m 444 1008 l 458 1011 l 458 1114 l 444 1117 l 444 1122 l 492 1122 b 544 1065 521 1122 544 1108 b 492 1003 544 1025 526 1003 l 444 1003 z m 636 1035 l 636 1003 l 558 1003 l 558 1008 l 571 1011 l 571 1114 l 558 1117 l 558 1122 l 633 1122 l 633 1092 l 628 1092 l 624 1114 l 590 1114 l 590 1068 l 617 1068 l 619 1081 l 625 1081 l 625 1046 l 619 1046 l 617 1060 l 590 1060 l 590 1013 l 625 1013 l 629 1035 z m 790 1008 l 790 1003 l 746 1003 l 746 1008 l 758 1011 l 751 1108 l 750 1108 l 719 1003 l 710 1000 l 675 1108 l 674 1108 l 671 1011 l 685 1008 l 685 1003 l 646 1003 l 646 1008 l 660 1013 l 667 1113 l 651 1117 l 651 1122 l 690 1122 l 711 1058 l 719 1031 l 746 1122 l 783 1122 l 783 1117 l 769 1113 l 778 1011 z m 878 1061 b 849 1117 878 1094 867 1117 b 821 1064 832 1117 821 1097 b 850 1008 821 1031 831 1008 b 878 1061 867 1008 878 1028 z m 524 1063 b 492 1114 524 1099 513 1114 l 476 1114 l 476 1011 l 492 1010 b 524 1063 513 1010 524 1029 z m 1260 944 l 967 944 l 967 900 l 1082 869 l 919 186 l 915 186 l 868 432 l 742 950 l 599 929 l 418 186 l 415 186 l 371 419 l 257 875 l 367 900 l 367 944 l 8 944 l 8 900 l 96 878 l 338 -19 l 440 0 l 629 781 l 632 781 l 833 -19 l 936 0 l 1168 871 l 1260 900 z "},"Ẁ":{"ha":1258,"x_min":0,"x_max":0,"o":"m 847 1014 b 897 1078 879 1014 897 1039 b 849 1139 897 1117 878 1139 b 799 1075 817 1139 799 1113 b 847 1014 799 1036 818 1014 z m 443 1017 l 490 1017 b 543 1079 525 1017 543 1039 b 490 1136 543 1122 519 1136 l 443 1136 l 443 1131 l 457 1128 l 457 1025 l 443 1022 z m 557 1017 l 635 1017 l 635 1049 l 628 1049 l 624 1026 l 589 1026 l 589 1074 l 615 1074 l 618 1060 l 624 1060 l 624 1094 l 618 1094 l 615 1082 l 589 1082 l 589 1128 l 622 1128 l 626 1106 l 632 1106 l 632 1136 l 557 1136 l 557 1131 l 569 1128 l 569 1025 l 557 1022 z m 708 1014 l 718 1017 l 749 1122 l 750 1122 l 757 1025 l 744 1022 l 744 1017 l 789 1017 l 789 1022 l 776 1025 l 768 1126 l 782 1131 l 782 1136 l 744 1136 l 718 1044 l 710 1072 l 689 1136 l 650 1136 l 650 1131 l 665 1126 l 658 1026 l 644 1022 l 644 1017 l 683 1017 l 683 1022 l 669 1025 l 672 1122 l 674 1122 z m 849 1022 b 819 1078 829 1022 819 1044 b 847 1131 819 1111 831 1131 b 876 1075 865 1131 876 1108 b 849 1022 876 1042 865 1022 z m 490 1024 l 475 1025 l 475 1128 l 490 1128 b 522 1076 511 1128 522 1113 b 490 1024 522 1043 511 1024 z m 1260 944 l 967 944 l 967 900 l 1082 869 l 919 186 l 915 186 l 868 432 l 742 950 l 599 929 l 418 186 l 415 186 l 371 419 l 257 875 l 367 900 l 367 944 l 8 944 l 8 900 l 96 878 l 338 -19 l 440 0 l 629 781 l 632 781 l 833 -19 l 936 0 l 1168 871 l 1260 900 z "},"X":{"ha":869,"x_min":0,"x_max":0,"o":"m 771 65 l 501 517 l 504 521 l 733 874 l 831 900 l 831 944 l 553 944 l 553 900 l 644 872 l 465 582 l 461 576 l 292 879 l 378 900 l 378 944 l 32 944 l 32 900 l 114 879 l 363 468 l 122 76 l 10 44 l 10 0 l 314 0 l 314 44 l 214 74 l 403 403 l 589 67 l 492 44 l 492 0 l 860 0 l 860 44 z "},"Y":{"ha":806,"x_min":0,"x_max":0,"o":"m 729 875 l 800 900 l 800 944 l 513 944 l 513 900 l 640 869 l 444 464 l 440 464 l 379 611 l 254 879 l 347 900 l 347 944 l 6 944 l 6 900 l 85 879 l 333 360 l 333 71 l 221 44 l 221 0 l 594 0 l 594 44 l 485 71 l 485 396 z "},"Ý":{"ha":806,"x_min":0,"x_max":0,"o":"m 628 1014 b 678 1078 660 1014 678 1039 b 629 1139 678 1117 658 1139 b 579 1075 597 1139 579 1113 b 628 1014 579 1036 599 1014 z m 324 1079 b 271 1136 324 1122 300 1136 l 224 1136 l 224 1131 l 238 1128 l 238 1025 l 224 1022 l 224 1017 l 271 1017 b 324 1079 306 1017 324 1039 z m 415 1049 l 408 1049 l 404 1026 l 369 1026 l 369 1074 l 396 1074 l 399 1060 l 404 1060 l 404 1094 l 399 1094 l 396 1082 l 369 1082 l 369 1128 l 403 1128 l 407 1106 l 413 1106 l 413 1136 l 338 1136 l 338 1131 l 350 1128 l 350 1025 l 338 1022 l 338 1017 l 415 1017 z m 464 1022 l 450 1025 l 453 1122 l 454 1122 l 489 1014 l 499 1017 l 529 1122 l 531 1122 l 538 1025 l 525 1022 l 525 1017 l 569 1017 l 569 1022 l 557 1025 l 549 1126 l 563 1131 l 563 1136 l 525 1136 l 499 1044 l 490 1072 l 469 1136 l 431 1136 l 431 1131 l 446 1126 l 439 1026 l 425 1022 l 425 1017 l 464 1017 z m 628 1131 b 657 1075 646 1131 657 1108 b 629 1022 657 1042 646 1022 b 600 1078 610 1022 600 1044 b 628 1131 600 1111 611 1131 z m 256 1128 l 271 1128 b 303 1076 292 1128 303 1113 b 271 1024 303 1043 292 1024 l 256 1025 z m 729 876 l 800 900 l 800 944 l 513 944 l 513 900 l 642 869 l 444 464 l 440 464 l 379 611 l 254 879 l 347 900 l 347 944 l 6 944 l 6 900 l 85 881 l 333 360 l 333 69 l 221 44 l 221 0 l 594 0 l 594 44 l 485 71 l 485 396 z "},"Ŷ":{"ha":806,"x_min":0,"x_max":0,"o":"m 610 1014 b 660 1078 642 1014 660 1039 b 611 1139 660 1117 640 1139 b 561 1075 579 1139 561 1113 b 610 1014 561 1036 581 1014 z m 306 1079 b 253 1136 306 1122 282 1136 l 206 1136 l 206 1131 l 219 1128 l 219 1025 l 206 1022 l 206 1017 l 253 1017 b 306 1079 288 1017 306 1039 z m 397 1049 l 390 1049 l 386 1026 l 351 1026 l 351 1074 l 378 1074 l 381 1060 l 386 1060 l 386 1094 l 381 1094 l 378 1082 l 351 1082 l 351 1128 l 385 1128 l 389 1106 l 394 1106 l 394 1136 l 319 1136 l 319 1131 l 332 1128 l 332 1025 l 319 1022 l 319 1017 l 397 1017 z m 446 1022 l 432 1025 l 435 1122 l 436 1122 l 471 1014 l 481 1017 l 511 1122 l 513 1122 l 519 1025 l 507 1022 l 507 1017 l 551 1017 l 551 1022 l 539 1025 l 531 1126 l 544 1131 l 544 1136 l 507 1136 l 481 1044 l 472 1072 l 451 1136 l 413 1136 l 413 1131 l 428 1126 l 421 1026 l 407 1022 l 407 1017 l 446 1017 z m 610 1131 b 639 1075 628 1131 639 1108 b 611 1022 639 1042 628 1022 b 582 1078 592 1022 582 1044 b 610 1131 582 1111 593 1131 z m 238 1128 l 253 1128 b 285 1076 274 1128 285 1113 b 253 1024 285 1043 274 1024 l 238 1025 z m 729 876 l 800 900 l 800 944 l 513 944 l 513 900 l 642 869 l 444 464 l 440 464 l 379 611 l 254 879 l 347 900 l 347 944 l 6 944 l 6 900 l 85 881 l 333 360 l 333 69 l 221 44 l 221 0 l 594 0 l 594 44 l 485 71 l 485 396 z "},"Ÿ":{"ha":806,"x_min":0,"x_max":0,"o":"m 561 1061 b 611 1125 561 1099 579 1125 b 660 1064 640 1125 660 1103 b 610 1000 660 1025 642 1000 b 561 1061 581 1000 561 1022 z m 206 1008 l 219 1011 l 219 1114 l 206 1117 l 206 1122 l 253 1122 b 306 1065 282 1122 306 1108 b 253 1003 306 1025 288 1003 l 206 1003 z m 397 1035 l 397 1003 l 319 1003 l 319 1008 l 332 1011 l 332 1114 l 319 1117 l 319 1122 l 394 1122 l 394 1092 l 389 1092 l 385 1114 l 351 1114 l 351 1068 l 378 1068 l 381 1081 l 386 1081 l 386 1046 l 381 1046 l 378 1060 l 351 1060 l 351 1013 l 386 1013 l 390 1035 z m 551 1008 l 551 1003 l 507 1003 l 507 1008 l 519 1011 l 513 1108 l 511 1108 l 481 1003 l 471 1000 l 436 1108 l 435 1108 l 432 1011 l 446 1008 l 446 1003 l 407 1003 l 407 1008 l 421 1013 l 428 1113 l 413 1117 l 413 1122 l 451 1122 l 472 1058 l 481 1031 l 507 1122 l 544 1122 l 544 1117 l 531 1113 l 539 1011 z m 639 1061 b 610 1117 639 1094 628 1117 b 582 1064 593 1117 582 1097 b 611 1008 582 1031 592 1008 b 639 1061 628 1008 639 1028 z m 285 1063 b 253 1114 285 1099 274 1114 l 238 1114 l 238 1011 l 253 1010 b 285 1063 274 1010 285 1029 z m 729 875 l 800 900 l 800 944 l 513 944 l 513 900 l 640 869 l 444 464 l 440 464 l 379 611 l 254 879 l 347 900 l 347 944 l 6 944 l 6 900 l 85 879 l 333 360 l 333 71 l 221 44 l 221 0 l 594 0 l 594 44 l 485 71 l 485 396 z "},"Ỳ":{"ha":806,"x_min":0,"x_max":0,"o":"m 608 1014 b 658 1078 640 1014 658 1039 b 610 1139 658 1117 639 1139 b 560 1075 578 1139 560 1113 b 608 1014 560 1036 579 1014 z m 204 1017 l 251 1017 b 304 1079 286 1017 304 1039 b 251 1136 304 1122 281 1136 l 204 1136 l 204 1131 l 218 1128 l 218 1025 l 204 1022 z m 318 1017 l 396 1017 l 396 1049 l 389 1049 l 385 1026 l 350 1026 l 350 1074 l 376 1074 l 379 1060 l 385 1060 l 385 1094 l 379 1094 l 376 1082 l 350 1082 l 350 1128 l 383 1128 l 388 1106 l 393 1106 l 393 1136 l 318 1136 l 318 1131 l 331 1128 l 331 1025 l 318 1022 z m 469 1014 l 479 1017 l 510 1122 l 511 1122 l 518 1025 l 506 1022 l 506 1017 l 550 1017 l 550 1022 l 538 1025 l 529 1126 l 543 1131 l 543 1136 l 506 1136 l 479 1044 l 471 1072 l 450 1136 l 411 1136 l 411 1131 l 426 1126 l 419 1026 l 406 1022 l 406 1017 l 444 1017 l 444 1022 l 431 1025 l 433 1122 l 435 1122 z m 610 1022 b 581 1078 590 1022 581 1044 b 608 1131 581 1111 592 1131 b 638 1075 626 1131 638 1108 b 610 1022 638 1042 626 1022 z m 251 1024 l 236 1025 l 236 1128 l 251 1128 b 283 1076 272 1128 283 1113 b 251 1024 283 1043 272 1024 z m 729 875 l 800 900 l 800 944 l 513 944 l 513 900 l 640 869 l 444 464 l 440 464 l 379 611 l 254 879 l 347 900 l 347 944 l 6 944 l 6 900 l 85 879 l 333 360 l 333 71 l 221 44 l 221 0 l 594 0 l 594 44 l 485 71 l 485 396 z "},"Z":{"ha":758,"x_min":0,"x_max":0,"o":"m 57 0 l 694 0 l 694 300 l 638 300 l 594 85 l 232 74 l 699 886 l 699 944 l 97 944 l 97 674 l 153 674 l 190 868 l 532 875 l 57 56 z "},"Ź":{"ha":758,"x_min":0,"x_max":0,"o":"m 543 1075 b 593 1139 543 1113 561 1139 b 642 1078 622 1139 642 1117 b 592 1014 642 1039 624 1014 b 543 1075 563 1014 543 1036 z m 188 1022 l 201 1025 l 201 1128 l 188 1131 l 188 1136 l 235 1136 b 288 1079 264 1136 288 1122 b 235 1017 288 1039 269 1017 l 188 1017 z m 379 1049 l 379 1017 l 301 1017 l 301 1022 l 314 1025 l 314 1128 l 301 1131 l 301 1136 l 376 1136 l 376 1106 l 371 1106 l 367 1128 l 333 1128 l 333 1082 l 360 1082 l 363 1094 l 368 1094 l 368 1060 l 363 1060 l 360 1074 l 333 1074 l 333 1026 l 368 1026 l 372 1049 z m 533 1022 l 533 1017 l 489 1017 l 489 1022 l 501 1025 l 494 1122 l 493 1122 l 463 1017 l 453 1014 l 418 1122 l 417 1122 l 414 1025 l 428 1022 l 428 1017 l 389 1017 l 389 1022 l 403 1026 l 410 1126 l 394 1131 l 394 1136 l 433 1136 l 454 1072 l 463 1044 l 489 1136 l 526 1136 l 526 1131 l 513 1126 l 521 1025 z m 621 1075 b 592 1131 621 1108 610 1131 b 564 1078 575 1131 564 1111 b 593 1022 564 1044 574 1022 b 621 1075 610 1022 621 1042 z m 267 1076 b 235 1128 267 1113 256 1128 l 219 1128 l 219 1025 l 235 1024 b 267 1076 256 1024 267 1043 z m 57 0 l 694 0 l 694 300 l 638 300 l 594 85 l 232 74 l 699 886 l 699 944 l 97 944 l 97 674 l 153 674 l 190 868 l 532 875 l 57 56 z "},"Ž":{"ha":758,"x_min":0,"x_max":0,"o":"m 571 1014 b 621 1078 603 1014 621 1039 b 572 1139 621 1117 601 1139 b 522 1075 540 1139 522 1113 b 571 1014 522 1036 542 1014 z m 167 1017 l 214 1017 b 267 1079 249 1017 267 1039 b 214 1136 267 1122 243 1136 l 167 1136 l 167 1131 l 181 1128 l 181 1025 l 167 1022 z m 281 1017 l 358 1017 l 358 1049 l 351 1049 l 347 1026 l 313 1026 l 313 1074 l 339 1074 l 342 1060 l 347 1060 l 347 1094 l 342 1094 l 339 1082 l 313 1082 l 313 1128 l 346 1128 l 350 1106 l 356 1106 l 356 1136 l 281 1136 l 281 1131 l 293 1128 l 293 1025 l 281 1022 z m 432 1014 l 442 1017 l 472 1122 l 474 1122 l 481 1025 l 468 1022 l 468 1017 l 513 1017 l 513 1022 l 500 1025 l 492 1126 l 506 1131 l 506 1136 l 468 1136 l 442 1044 l 433 1072 l 413 1136 l 374 1136 l 374 1131 l 389 1126 l 382 1026 l 368 1022 l 368 1017 l 407 1017 l 407 1022 l 393 1025 l 396 1122 l 397 1122 z m 572 1022 b 543 1078 553 1022 543 1044 b 571 1131 543 1111 554 1131 b 600 1075 589 1131 600 1108 b 572 1022 600 1042 589 1022 z m 214 1024 l 199 1025 l 199 1128 l 214 1128 b 246 1076 235 1128 246 1113 b 214 1024 246 1043 235 1024 z m 57 0 l 694 0 l 694 300 l 638 300 l 594 85 l 232 74 l 699 886 l 699 944 l 97 944 l 97 674 l 153 674 l 190 868 l 532 875 l 57 56 z "},"Ż":{"ha":758,"x_min":0,"x_max":0,"o":"m 571 1014 b 621 1078 603 1014 621 1039 b 572 1139 621 1117 601 1139 b 522 1075 540 1139 522 1113 b 571 1014 522 1036 542 1014 z m 167 1017 l 214 1017 b 267 1079 249 1017 267 1039 b 214 1136 267 1122 243 1136 l 167 1136 l 167 1131 l 181 1128 l 181 1025 l 167 1022 z m 281 1017 l 358 1017 l 358 1049 l 351 1049 l 347 1026 l 313 1026 l 313 1074 l 339 1074 l 342 1060 l 347 1060 l 347 1094 l 342 1094 l 339 1082 l 313 1082 l 313 1128 l 346 1128 l 350 1106 l 356 1106 l 356 1136 l 281 1136 l 281 1131 l 293 1128 l 293 1025 l 281 1022 z m 432 1014 l 442 1017 l 472 1122 l 474 1122 l 481 1025 l 468 1022 l 468 1017 l 513 1017 l 513 1022 l 500 1025 l 492 1126 l 506 1131 l 506 1136 l 468 1136 l 442 1044 l 433 1072 l 413 1136 l 374 1136 l 374 1131 l 389 1126 l 382 1026 l 368 1022 l 368 1017 l 407 1017 l 407 1022 l 393 1025 l 396 1122 l 397 1122 z m 572 1022 b 543 1078 553 1022 543 1044 b 571 1131 543 1111 554 1131 b 600 1075 589 1131 600 1108 b 572 1022 600 1042 589 1022 z m 214 1024 l 199 1025 l 199 1128 l 214 1128 b 246 1076 235 1128 246 1113 b 214 1024 246 1043 235 1024 z m 57 0 l 694 0 l 694 300 l 638 300 l 594 85 l 232 74 l 699 886 l 699 944 l 97 944 l 97 674 l 153 674 l 190 868 l 532 875 l 57 56 z "},"a":{"ha":622,"x_min":0,"x_max":0,"o":"m 511 68 l 511 476 b 288 678 511 621 432 678 b 100 624 219 678 147 654 l 100 444 l 149 444 l 193 600 b 267 619 214 613 240 619 b 376 463 346 619 376 565 l 376 379 b 42 147 157 379 42 288 b 204 -19 42 40 108 -19 b 382 143 299 -19 364 60 l 385 143 l 396 -15 l 597 18 l 597 60 z m 249 75 b 176 169 204 75 176 113 b 376 332 176 271 247 331 b 249 75 372 176 324 75 z "},"á":{"ha":622,"x_min":0,"x_max":0,"o":"m 476 739 b 526 803 508 739 526 764 b 478 864 526 842 507 864 b 428 800 446 864 428 838 b 476 739 428 761 447 739 z m 172 804 b 119 861 172 847 149 861 l 72 861 l 72 856 l 86 853 l 86 750 l 72 747 l 72 742 l 119 742 b 172 804 154 742 172 764 z m 264 774 l 257 774 l 253 751 l 218 751 l 218 799 l 244 799 l 247 785 l 253 785 l 253 819 l 247 819 l 244 807 l 218 807 l 218 853 l 251 853 l 256 831 l 261 831 l 261 861 l 186 861 l 186 856 l 199 853 l 199 750 l 186 747 l 186 742 l 264 742 z m 313 747 l 299 750 l 301 847 l 303 847 l 338 739 l 347 742 l 378 847 l 379 847 l 386 750 l 374 747 l 374 742 l 418 742 l 418 747 l 406 750 l 397 851 l 411 856 l 411 861 l 374 861 l 347 769 l 339 797 l 318 861 l 279 861 l 279 856 l 294 851 l 288 751 l 274 747 l 274 742 l 313 742 z m 476 856 b 506 800 494 856 506 833 b 478 747 506 767 494 747 b 449 803 458 747 449 769 b 476 856 449 836 460 856 z m 104 853 l 119 853 b 151 801 140 853 151 838 b 119 749 151 768 140 749 l 104 750 z m 511 68 l 511 476 b 288 678 511 621 432 678 b 100 624 219 678 147 654 l 100 444 l 149 444 l 193 600 b 267 619 214 613 240 619 b 376 463 346 619 376 565 l 376 379 b 42 147 157 379 42 288 b 204 -19 42 40 108 -19 b 382 143 299 -19 364 60 l 385 143 l 396 -15 l 597 18 l 597 60 z m 249 75 b 176 169 204 75 176 113 b 376 332 176 271 247 331 b 249 75 372 176 324 75 z "},"ă":{"ha":622,"x_min":0,"x_max":0,"o":"m 475 739 b 525 803 507 739 525 764 b 476 864 525 842 506 864 b 426 800 444 864 426 838 b 475 739 426 761 446 739 z m 171 804 b 118 861 171 847 147 861 l 71 861 l 71 856 l 85 853 l 85 750 l 71 747 l 71 742 l 118 742 b 171 804 153 742 171 764 z m 263 774 l 256 774 l 251 751 l 217 751 l 217 799 l 243 799 l 246 785 l 251 785 l 251 819 l 246 819 l 243 807 l 217 807 l 217 853 l 250 853 l 254 831 l 260 831 l 260 861 l 185 861 l 185 856 l 197 853 l 197 750 l 185 747 l 185 742 l 263 742 z m 311 747 l 297 750 l 300 847 l 301 847 l 336 739 l 346 742 l 376 847 l 378 847 l 385 750 l 372 747 l 372 742 l 417 742 l 417 747 l 404 750 l 396 851 l 410 856 l 410 861 l 372 861 l 346 769 l 338 797 l 317 861 l 278 861 l 278 856 l 293 851 l 286 751 l 272 747 l 272 742 l 311 742 z m 475 856 b 504 800 493 856 504 833 b 476 747 504 767 493 747 b 447 803 457 747 447 769 b 475 856 447 836 458 856 z m 103 853 l 118 853 b 150 801 139 853 150 838 b 118 749 150 768 139 749 l 103 750 z m 511 68 l 511 476 b 288 678 511 621 432 678 b 100 624 219 678 147 654 l 100 444 l 149 444 l 193 600 b 267 619 214 613 240 619 b 376 463 346 619 376 565 l 376 379 b 42 147 157 379 42 288 b 204 -19 42 40 108 -19 b 382 143 299 -19 364 60 l 385 143 l 396 -15 l 597 18 l 597 60 z m 249 75 b 176 169 204 75 176 113 b 376 332 176 271 247 331 b 249 75 372 176 324 75 z "},"â":{"ha":622,"x_min":0,"x_max":0,"o":"m 476 739 b 526 803 508 739 526 764 b 478 864 526 842 507 864 b 428 800 446 864 428 838 b 476 739 428 761 447 739 z m 172 804 b 119 861 172 847 149 861 l 72 861 l 72 856 l 86 853 l 86 750 l 72 747 l 72 742 l 119 742 b 172 804 154 742 172 764 z m 264 774 l 257 774 l 253 751 l 218 751 l 218 799 l 244 799 l 247 785 l 253 785 l 253 819 l 247 819 l 244 807 l 218 807 l 218 853 l 251 853 l 256 831 l 261 831 l 261 861 l 186 861 l 186 856 l 199 853 l 199 750 l 186 747 l 186 742 l 264 742 z m 313 747 l 299 750 l 301 847 l 303 847 l 338 739 l 347 742 l 378 847 l 379 847 l 386 750 l 374 747 l 374 742 l 418 742 l 418 747 l 406 750 l 397 851 l 411 856 l 411 861 l 374 861 l 347 769 l 339 797 l 318 861 l 279 861 l 279 856 l 294 851 l 288 751 l 274 747 l 274 742 l 313 742 z m 476 856 b 506 800 494 856 506 833 b 478 747 506 767 494 747 b 449 803 458 747 449 769 b 476 856 449 836 460 856 z m 104 853 l 119 853 b 151 801 140 853 151 838 b 119 749 151 768 140 749 l 104 750 z m 511 68 l 511 476 b 288 678 511 621 432 678 b 100 624 219 678 147 654 l 100 444 l 149 444 l 193 600 b 267 619 214 613 240 619 b 376 463 346 619 376 565 l 376 379 b 42 147 157 379 42 288 b 204 -19 42 40 108 -19 b 382 143 299 -19 364 60 l 385 143 l 396 -15 l 597 18 l 597 60 z m 249 75 b 176 169 204 75 176 113 b 376 332 176 271 247 331 b 249 75 372 176 324 75 z "},"ä":{"ha":622,"x_min":0,"x_max":0,"o":"m 475 739 b 525 803 507 739 525 764 b 476 864 525 842 506 864 b 426 800 444 864 426 838 b 475 739 426 761 446 739 z m 171 804 b 118 861 171 847 147 861 l 71 861 l 71 856 l 85 853 l 85 750 l 71 747 l 71 742 l 118 742 b 171 804 153 742 171 764 z m 263 774 l 256 774 l 251 751 l 217 751 l 217 799 l 243 799 l 246 785 l 251 785 l 251 819 l 246 819 l 243 807 l 217 807 l 217 853 l 250 853 l 254 831 l 260 831 l 260 861 l 185 861 l 185 856 l 197 853 l 197 750 l 185 747 l 185 742 l 263 742 z m 311 747 l 297 750 l 300 847 l 301 847 l 336 739 l 346 742 l 376 847 l 378 847 l 385 750 l 372 747 l 372 742 l 417 742 l 417 747 l 404 750 l 396 851 l 410 856 l 410 861 l 372 861 l 346 769 l 338 797 l 317 861 l 278 861 l 278 856 l 293 851 l 286 751 l 272 747 l 272 742 l 311 742 z m 475 856 b 504 800 493 856 504 833 b 476 747 504 767 493 747 b 447 803 457 747 447 769 b 475 856 447 836 458 856 z m 103 853 l 118 853 b 150 801 139 853 150 838 b 118 749 150 768 139 749 l 103 750 z m 511 68 l 511 476 b 288 678 511 621 432 678 b 100 624 219 678 147 654 l 100 444 l 149 444 l 193 600 b 267 619 214 613 240 619 b 376 463 346 619 376 565 l 376 379 b 42 147 157 379 42 288 b 204 -19 42 40 108 -19 b 382 143 299 -19 364 60 l 385 143 l 396 -15 l 597 18 l 597 60 z m 249 75 b 176 169 204 75 176 113 b 376 332 176 271 247 331 b 249 75 372 176 324 75 z "},"à":{"ha":622,"x_min":0,"x_max":0,"o":"m 475 739 b 525 803 507 739 525 764 b 476 864 525 842 506 864 b 426 800 444 864 426 838 b 475 739 426 761 446 739 z m 171 804 b 118 861 171 847 147 861 l 71 861 l 71 856 l 85 853 l 85 750 l 71 747 l 71 742 l 118 742 b 171 804 153 742 171 764 z m 263 774 l 256 774 l 251 751 l 217 751 l 217 799 l 243 799 l 246 785 l 251 785 l 251 819 l 246 819 l 243 807 l 217 807 l 217 853 l 250 853 l 254 831 l 260 831 l 260 861 l 185 861 l 185 856 l 197 853 l 197 750 l 185 747 l 185 742 l 263 742 z m 311 747 l 297 750 l 300 847 l 301 847 l 336 739 l 346 742 l 376 847 l 378 847 l 385 750 l 372 747 l 372 742 l 417 742 l 417 747 l 404 750 l 396 851 l 410 856 l 410 861 l 372 861 l 346 769 l 338 797 l 317 861 l 278 861 l 278 856 l 293 851 l 286 751 l 272 747 l 272 742 l 311 742 z m 475 856 b 504 800 493 856 504 833 b 476 747 504 767 493 747 b 447 803 457 747 447 769 b 475 856 447 836 458 856 z m 103 853 l 118 853 b 150 801 139 853 150 838 b 118 749 150 768 139 749 l 103 750 z m 511 68 l 511 476 b 288 678 511 621 432 678 b 100 624 219 678 147 654 l 100 444 l 149 444 l 193 600 b 267 619 214 613 240 619 b 376 463 346 619 376 565 l 376 379 b 42 147 157 379 42 288 b 204 -19 42 40 108 -19 b 382 143 299 -19 364 60 l 385 143 l 396 -15 l 597 18 l 597 60 z m 249 75 b 176 169 204 75 176 113 b 376 332 176 271 247 331 b 249 75 372 176 324 75 z "},"ā":{"ha":622,"x_min":0,"x_max":0,"o":"m 475 739 b 525 803 507 739 525 764 b 476 864 525 842 506 864 b 426 800 444 864 426 838 b 475 739 426 761 446 739 z m 171 804 b 118 861 171 847 147 861 l 71 861 l 71 856 l 85 853 l 85 750 l 71 747 l 71 742 l 118 742 b 171 804 153 742 171 764 z m 263 774 l 256 774 l 251 751 l 217 751 l 217 799 l 243 799 l 246 785 l 251 785 l 251 819 l 246 819 l 243 807 l 217 807 l 217 853 l 250 853 l 254 831 l 260 831 l 260 861 l 185 861 l 185 856 l 197 853 l 197 750 l 185 747 l 185 742 l 263 742 z m 311 747 l 297 750 l 300 847 l 301 847 l 336 739 l 346 742 l 376 847 l 378 847 l 385 750 l 372 747 l 372 742 l 417 742 l 417 747 l 404 750 l 396 851 l 410 856 l 410 861 l 372 861 l 346 769 l 338 797 l 317 861 l 278 861 l 278 856 l 293 851 l 286 751 l 272 747 l 272 742 l 311 742 z m 475 856 b 504 800 493 856 504 833 b 476 747 504 767 493 747 b 447 803 457 747 447 769 b 475 856 447 836 458 856 z m 103 853 l 118 853 b 150 801 139 853 150 838 b 118 749 150 768 139 749 l 103 750 z m 511 68 l 511 476 b 288 678 511 621 432 678 b 100 624 219 678 147 654 l 100 444 l 149 444 l 193 600 b 267 619 214 613 240 619 b 376 463 346 619 376 565 l 376 379 b 42 147 157 379 42 288 b 204 -19 42 40 108 -19 b 382 143 299 -19 364 60 l 385 143 l 396 -15 l 597 18 l 597 60 z m 249 75 b 176 169 204 75 176 113 b 376 332 176 271 247 331 b 249 75 372 176 324 75 z "},"ą":{"ha":622,"x_min":0,"x_max":0,"o":"m 476 739 b 526 803 508 739 526 764 b 478 864 526 842 507 864 b 428 800 446 864 428 838 b 476 739 428 761 447 739 z m 172 804 b 119 861 172 847 149 861 l 72 861 l 72 856 l 86 853 l 86 750 l 72 747 l 72 742 l 119 742 b 172 804 154 742 172 764 z m 264 774 l 257 774 l 253 751 l 218 751 l 218 799 l 244 799 l 247 785 l 253 785 l 253 819 l 247 819 l 244 807 l 218 807 l 218 853 l 251 853 l 256 831 l 261 831 l 261 861 l 186 861 l 186 856 l 199 853 l 199 750 l 186 747 l 186 742 l 264 742 z m 313 747 l 299 750 l 301 847 l 303 847 l 338 739 l 347 742 l 378 847 l 379 847 l 386 750 l 374 747 l 374 742 l 418 742 l 418 747 l 406 750 l 397 851 l 411 856 l 411 861 l 374 861 l 347 769 l 339 797 l 318 861 l 279 861 l 279 856 l 294 851 l 288 751 l 274 747 l 274 742 l 313 742 z m 476 856 b 506 800 494 856 506 833 b 478 747 506 767 494 747 b 449 803 458 747 449 769 b 476 856 449 836 460 856 z m 104 853 l 119 853 b 151 801 140 853 151 838 b 119 749 151 768 140 749 l 104 750 z m 511 68 l 511 476 b 288 678 511 621 432 678 b 100 624 219 678 147 654 l 100 444 l 149 444 l 193 600 b 267 619 214 613 240 619 b 376 463 346 619 376 565 l 376 379 b 42 147 157 379 42 288 b 204 -19 42 40 108 -19 b 382 143 299 -19 364 60 l 385 143 l 396 -15 l 597 18 l 597 60 z m 249 75 b 176 169 204 75 176 113 b 376 332 176 271 247 331 b 249 75 372 176 324 75 z "},"å":{"ha":622,"x_min":0,"x_max":0,"o":"m 475 739 b 525 803 507 739 525 764 b 476 864 525 842 506 864 b 426 800 444 864 426 838 b 475 739 426 761 446 739 z m 171 804 b 118 861 171 847 147 861 l 71 861 l 71 856 l 85 853 l 85 750 l 71 747 l 71 742 l 118 742 b 171 804 153 742 171 764 z m 263 774 l 256 774 l 251 751 l 217 751 l 217 799 l 243 799 l 246 785 l 251 785 l 251 819 l 246 819 l 243 807 l 217 807 l 217 853 l 250 853 l 254 831 l 260 831 l 260 861 l 185 861 l 185 856 l 197 853 l 197 750 l 185 747 l 185 742 l 263 742 z m 311 747 l 297 750 l 300 847 l 301 847 l 336 739 l 346 742 l 376 847 l 378 847 l 385 750 l 372 747 l 372 742 l 417 742 l 417 747 l 404 750 l 396 851 l 410 856 l 410 861 l 372 861 l 346 769 l 338 797 l 317 861 l 278 861 l 278 856 l 293 851 l 286 751 l 272 747 l 272 742 l 311 742 z m 475 856 b 504 800 493 856 504 833 b 476 747 504 767 493 747 b 447 803 457 747 447 769 b 475 856 447 836 458 856 z m 103 853 l 118 853 b 150 801 139 853 150 838 b 118 749 150 768 139 749 l 103 750 z m 511 68 l 511 476 b 288 678 511 621 432 678 b 100 624 219 678 147 654 l 100 444 l 149 444 l 193 600 b 267 619 214 613 240 619 b 376 463 346 619 376 565 l 376 379 b 42 147 157 379 42 288 b 204 -19 42 40 108 -19 b 382 143 299 -19 364 60 l 385 143 l 396 -15 l 597 18 l 597 60 z m 249 75 b 176 169 204 75 176 113 b 376 332 176 271 247 331 b 249 75 372 176 324 75 z "},"ã":{"ha":622,"x_min":0,"x_max":0,"o":"m 475 739 b 525 803 507 739 525 764 b 476 864 525 842 506 864 b 426 800 444 864 426 838 b 475 739 426 761 446 739 z m 171 804 b 118 861 171 847 147 861 l 71 861 l 71 856 l 85 853 l 85 750 l 71 747 l 71 742 l 118 742 b 171 804 153 742 171 764 z m 263 774 l 256 774 l 251 751 l 217 751 l 217 799 l 243 799 l 246 785 l 251 785 l 251 819 l 246 819 l 243 807 l 217 807 l 217 853 l 250 853 l 254 831 l 260 831 l 260 861 l 185 861 l 185 856 l 197 853 l 197 750 l 185 747 l 185 742 l 263 742 z m 311 747 l 297 750 l 300 847 l 301 847 l 336 739 l 346 742 l 376 847 l 378 847 l 385 750 l 372 747 l 372 742 l 417 742 l 417 747 l 404 750 l 396 851 l 410 856 l 410 861 l 372 861 l 346 769 l 338 797 l 317 861 l 278 861 l 278 856 l 293 851 l 286 751 l 272 747 l 272 742 l 311 742 z m 475 856 b 504 800 493 856 504 833 b 476 747 504 767 493 747 b 447 803 457 747 447 769 b 475 856 447 836 458 856 z m 103 853 l 118 853 b 150 801 139 853 150 838 b 118 749 150 768 139 749 l 103 750 z m 511 68 l 511 476 b 288 678 511 621 432 678 b 100 624 219 678 147 654 l 100 444 l 149 444 l 193 600 b 267 619 214 613 240 619 b 376 463 346 619 376 565 l 376 379 b 42 147 157 379 42 288 b 204 -19 42 40 108 -19 b 382 143 299 -19 364 60 l 385 143 l 396 -15 l 597 18 l 597 60 z m 249 75 b 176 169 204 75 176 113 b 376 332 176 271 247 331 b 249 75 372 176 324 75 z "},"æ":{"ha":886,"x_min":0,"x_max":0,"o":"m 792 176 b 650 56 761 103 717 56 b 503 333 557 56 506 168 l 831 338 b 607 678 831 551 751 678 b 440 572 535 678 471 635 l 438 572 b 275 678 408 638 349 678 b 94 617 217 678 149 654 l 94 444 l 143 444 l 188 603 b 258 622 206 617 233 622 b 365 382 347 622 364 550 b 42 149 163 374 42 282 b 210 -19 42 40 107 -19 b 394 163 297 -19 369 44 l 399 163 b 619 -19 432 31 531 -19 b 836 151 732 -19 799 50 z m 601 622 b 696 392 661 622 696 528 l 503 383 b 601 622 510 533 549 622 z m 249 75 b 175 164 201 75 175 111 b 365 332 175 263 246 324 b 249 75 361 149 313 75 z "},"ǽ":{"ha":886,"x_min":0,"x_max":0,"o":"m 617 739 b 667 803 649 739 667 764 b 618 864 667 842 647 864 b 568 800 586 864 568 838 b 617 739 568 761 588 739 z m 313 804 b 260 861 313 847 289 861 l 213 861 l 213 856 l 226 853 l 226 750 l 213 747 l 213 742 l 260 742 b 313 804 294 742 313 764 z m 404 774 l 397 774 l 393 751 l 358 751 l 358 799 l 385 799 l 388 785 l 393 785 l 393 819 l 388 819 l 385 807 l 358 807 l 358 853 l 392 853 l 396 831 l 401 831 l 401 861 l 326 861 l 326 856 l 339 853 l 339 750 l 326 747 l 326 742 l 404 742 z m 453 747 l 439 750 l 442 847 l 443 847 l 478 739 l 488 742 l 518 847 l 519 847 l 526 750 l 514 747 l 514 742 l 558 742 l 558 747 l 546 750 l 538 851 l 551 856 l 551 861 l 514 861 l 488 769 l 479 797 l 458 861 l 419 861 l 419 856 l 435 851 l 428 751 l 414 747 l 414 742 l 453 742 z m 617 856 b 646 800 635 856 646 833 b 618 747 646 767 635 747 b 589 803 599 747 589 769 b 617 856 589 836 600 856 z m 244 853 l 260 853 b 292 801 281 853 292 838 b 260 749 292 768 281 749 l 244 750 z m 792 176 b 650 56 761 103 717 56 b 503 333 557 56 506 168 l 831 338 b 607 678 831 551 751 678 b 440 572 535 678 471 635 l 438 572 b 275 678 408 638 349 678 b 94 617 217 678 149 654 l 94 444 l 143 444 l 188 603 b 258 622 206 617 233 622 b 365 382 347 622 364 550 b 42 149 163 374 42 282 b 210 -19 42 40 107 -19 b 394 163 297 -19 369 44 l 399 163 b 619 -19 432 31 531 -19 b 836 151 732 -19 799 50 z m 601 622 b 696 392 661 622 696 528 l 503 383 b 601 622 510 533 549 622 z m 249 75 b 175 164 201 75 175 111 b 365 332 175 263 246 324 b 249 75 361 149 313 75 z "},"b":{"ha":708,"x_min":0,"x_max":0,"o":"m 433 678 b 247 544 333 678 278 617 l 246 544 l 246 1035 l 19 996 l 19 953 l 111 946 l 111 6 l 167 -8 l 190 85 b 385 -19 233 18 308 -19 b 654 349 550 -19 654 128 b 433 678 654 557 567 678 z m 378 42 b 246 263 293 42 246 133 l 246 329 b 396 608 246 476 306 608 b 514 346 475 608 514 500 b 378 42 514 153 463 42 z "},"c":{"ha":567,"x_min":0,"x_max":0,"o":"m 497 175 b 344 56 457 99 414 56 b 194 331 250 56 194 163 b 343 622 194 514 242 622 b 414 601 371 622 394 615 l 458 444 l 507 444 l 507 624 b 349 678 467 657 404 678 b 54 319 157 678 54 544 b 326 -19 54 103 160 -19 b 542 153 426 -19 492 39 z "},"ć":{"ha":567,"x_min":0,"x_max":0,"o":"m 490 739 b 540 803 522 739 540 764 b 492 864 540 842 521 864 b 442 800 460 864 442 838 b 490 739 442 761 461 739 z m 186 804 b 133 861 186 847 163 861 l 86 861 l 86 856 l 100 853 l 100 750 l 86 747 l 86 742 l 133 742 b 186 804 168 742 186 764 z m 278 774 l 271 774 l 267 751 l 232 751 l 232 799 l 258 799 l 261 785 l 267 785 l 267 819 l 261 819 l 258 807 l 232 807 l 232 853 l 265 853 l 269 831 l 275 831 l 275 861 l 200 861 l 200 856 l 213 853 l 213 750 l 200 747 l 200 742 l 278 742 z m 326 747 l 313 750 l 315 847 l 317 847 l 351 739 l 361 742 l 392 847 l 393 847 l 400 750 l 388 747 l 388 742 l 432 742 l 432 747 l 419 750 l 411 851 l 425 856 l 425 861 l 388 861 l 361 769 l 353 797 l 332 861 l 293 861 l 293 856 l 308 851 l 301 751 l 288 747 l 288 742 l 326 742 z m 490 856 b 519 800 508 856 519 833 b 492 747 519 767 508 747 b 463 803 472 747 463 769 b 490 856 463 836 474 856 z m 118 853 l 133 853 b 165 801 154 853 165 838 b 133 749 165 768 154 749 l 118 750 z m 497 175 b 344 56 457 99 414 56 b 194 331 250 56 194 163 b 343 622 194 514 242 622 b 414 600 371 622 394 615 l 458 444 l 507 444 l 507 624 b 349 678 467 657 404 678 b 54 319 157 678 54 544 b 326 -19 54 103 160 -19 b 542 153 426 -19 492 39 z "},"č":{"ha":567,"x_min":0,"x_max":0,"o":"m 489 739 b 539 803 521 739 539 764 b 490 864 539 842 519 864 b 440 800 458 864 440 838 b 489 739 440 761 460 739 z m 185 804 b 132 861 185 847 161 861 l 85 861 l 85 856 l 99 853 l 99 750 l 85 747 l 85 742 l 132 742 b 185 804 167 742 185 764 z m 276 774 l 269 774 l 265 751 l 231 751 l 231 799 l 257 799 l 260 785 l 265 785 l 265 819 l 260 819 l 257 807 l 231 807 l 231 853 l 264 853 l 268 831 l 274 831 l 274 861 l 199 861 l 199 856 l 211 853 l 211 750 l 199 747 l 199 742 l 276 742 z m 325 747 l 311 750 l 314 847 l 315 847 l 350 739 l 360 742 l 390 847 l 392 847 l 399 750 l 386 747 l 386 742 l 431 742 l 431 747 l 418 750 l 410 851 l 424 856 l 424 861 l 386 861 l 360 769 l 351 797 l 331 861 l 292 861 l 292 856 l 307 851 l 300 751 l 286 747 l 286 742 l 325 742 z m 489 856 b 518 800 507 856 518 833 b 490 747 518 767 507 747 b 461 803 471 747 461 769 b 489 856 461 836 472 856 z m 117 853 l 132 853 b 164 801 153 853 164 838 b 132 749 164 768 153 749 l 117 750 z m 497 175 b 344 56 457 99 414 56 b 194 331 250 56 194 163 b 343 622 194 514 242 622 b 414 600 371 622 394 615 l 458 444 l 507 444 l 507 624 b 349 678 467 657 404 678 b 54 319 157 678 54 544 b 326 -19 54 103 160 -19 b 542 153 426 -19 492 39 z "},"ç":{"ha":567,"x_min":0,"x_max":0,"o":"m 504 739 b 554 803 536 739 554 764 b 506 864 554 842 535 864 b 456 800 474 864 456 838 b 504 739 456 761 475 739 z m 200 804 b 147 861 200 847 176 861 l 100 861 l 100 856 l 114 853 l 114 750 l 100 747 l 100 742 l 147 742 b 200 804 182 742 200 764 z m 292 774 l 285 774 l 281 751 l 246 751 l 246 799 l 272 799 l 275 785 l 281 785 l 281 819 l 275 819 l 272 807 l 246 807 l 246 853 l 279 853 l 283 831 l 289 831 l 289 861 l 214 861 l 214 856 l 226 853 l 226 750 l 214 747 l 214 742 l 292 742 z m 340 747 l 326 750 l 329 847 l 331 847 l 365 739 l 375 742 l 406 847 l 407 847 l 414 750 l 401 747 l 401 742 l 446 742 l 446 747 l 433 750 l 425 851 l 439 856 l 439 861 l 401 861 l 375 769 l 367 797 l 346 861 l 307 861 l 307 856 l 322 851 l 315 751 l 301 747 l 301 742 l 340 742 z m 504 856 b 533 800 522 856 533 833 b 506 747 533 767 522 747 b 476 803 486 747 476 769 b 504 856 476 836 488 856 z m 132 853 l 147 853 b 179 801 168 853 179 838 b 147 749 179 768 168 749 l 132 750 z m 344 56 b 194 331 250 56 194 163 b 343 622 194 514 242 622 b 414 600 371 622 394 615 l 458 444 l 507 444 l 507 624 b 349 678 467 657 404 678 b 54 319 157 678 54 544 b 326 -19 54 103 160 -19 b 542 153 426 -19 492 39 l 497 175 b 344 56 457 99 414 56 z "},"ĉ":{"ha":567,"x_min":0,"x_max":0,"o":"m 489 739 b 539 803 521 739 539 764 b 490 864 539 842 519 864 b 440 800 458 864 440 838 b 489 739 440 761 460 739 z m 185 804 b 132 861 185 847 161 861 l 85 861 l 85 856 l 99 853 l 99 750 l 85 747 l 85 742 l 132 742 b 185 804 167 742 185 764 z m 276 774 l 269 774 l 265 751 l 231 751 l 231 799 l 257 799 l 260 785 l 265 785 l 265 819 l 260 819 l 257 807 l 231 807 l 231 853 l 264 853 l 268 831 l 274 831 l 274 861 l 199 861 l 199 856 l 211 853 l 211 750 l 199 747 l 199 742 l 276 742 z m 325 747 l 311 750 l 314 847 l 315 847 l 350 739 l 360 742 l 390 847 l 392 847 l 399 750 l 386 747 l 386 742 l 431 742 l 431 747 l 418 750 l 410 851 l 424 856 l 424 861 l 386 861 l 360 769 l 351 797 l 331 861 l 292 861 l 292 856 l 307 851 l 300 751 l 286 747 l 286 742 l 325 742 z m 489 856 b 518 800 507 856 518 833 b 490 747 518 767 507 747 b 461 803 471 747 461 769 b 489 856 461 836 472 856 z m 117 853 l 132 853 b 164 801 153 853 164 838 b 132 749 164 768 153 749 l 117 750 z m 497 175 b 344 56 457 99 414 56 b 194 331 250 56 194 163 b 343 622 194 514 242 622 b 414 600 371 622 394 615 l 458 444 l 507 444 l 507 624 b 349 678 467 657 404 678 b 54 319 157 678 54 544 b 326 -19 54 103 160 -19 b 542 153 426 -19 492 39 z "},"ċ":{"ha":567,"x_min":0,"x_max":0,"o":"m 440 800 b 490 864 440 838 458 864 b 539 803 519 864 539 842 b 489 739 539 764 521 739 b 440 800 460 739 440 761 z m 85 747 l 99 750 l 99 853 l 85 856 l 85 861 l 132 861 b 185 804 161 861 185 847 b 132 742 185 764 167 742 l 85 742 z m 276 774 l 276 742 l 199 742 l 199 747 l 211 750 l 211 853 l 199 856 l 199 861 l 274 861 l 274 831 l 268 831 l 264 853 l 231 853 l 231 807 l 257 807 l 260 819 l 265 819 l 265 785 l 260 785 l 257 799 l 231 799 l 231 751 l 265 751 l 269 774 z m 431 747 l 431 742 l 386 742 l 386 747 l 399 750 l 392 847 l 390 847 l 360 742 l 350 739 l 315 847 l 314 847 l 311 750 l 325 747 l 325 742 l 286 742 l 286 747 l 300 751 l 307 851 l 292 856 l 292 861 l 331 861 l 351 797 l 360 769 l 386 861 l 424 861 l 424 856 l 410 851 l 418 750 z m 518 800 b 489 856 518 833 507 856 b 461 803 472 856 461 836 b 490 747 461 769 471 747 b 518 800 507 747 518 767 z m 164 801 b 132 853 164 838 153 853 l 117 853 l 117 750 l 132 749 b 164 801 153 749 164 768 z m 497 175 b 344 56 457 99 414 56 b 194 331 250 56 194 163 b 343 622 194 514 242 622 b 414 601 371 622 394 615 l 458 444 l 507 444 l 507 624 b 349 678 467 657 404 678 b 54 319 157 678 54 544 b 326 -19 54 103 160 -19 b 542 153 426 -19 492 39 z "},"d":{"ha":717,"x_min":0,"x_max":0,"o":"m 601 78 l 601 1035 l 361 988 l 361 946 l 467 939 l 467 592 b 315 678 436 646 381 678 b 54 307 147 678 54 532 b 279 -19 54 97 146 -19 b 465 142 376 -19 438 58 l 467 142 l 474 -15 l 697 28 l 697 71 z m 317 61 b 194 315 236 61 194 158 b 339 608 194 504 250 608 b 467 404 411 608 467 556 l 467 339 b 317 61 467 179 399 61 z "},"ð":{"ha":732,"x_min":0,"x_max":0,"o":"m 508 910 b 363 1025 508 983 451 1025 b 224 915 274 1025 224 981 b 369 800 224 842 285 800 b 508 910 458 800 508 844 z m 489 915 b 363 847 489 869 439 847 b 243 910 288 847 243 874 b 369 978 243 951 293 978 b 489 915 444 978 489 951 z m 508 594 l 503 617 l 261 686 l 261 689 l 483 706 l 489 676 l 503 676 l 503 778 l 489 778 l 483 750 l 253 731 l 243 763 l 229 763 l 229 676 l 439 617 l 229 550 l 229 461 l 243 461 l 253 496 l 479 479 l 489 449 l 503 449 l 503 538 l 489 538 l 483 506 l 261 511 l 261 514 z m 503 249 l 503 426 l 429 426 l 429 411 l 479 401 l 479 322 l 372 322 l 372 382 l 403 388 l 403 401 l 325 401 l 325 388 l 353 382 l 353 322 l 249 322 l 249 399 l 300 408 l 300 419 l 229 419 l 229 249 l 243 249 l 249 278 l 483 278 l 489 249 z m 503 -11 l 503 97 b 360 217 503 175 451 217 b 229 97 261 217 229 164 l 229 -11 l 243 -11 l 249 21 l 483 21 l 489 -11 z m 486 97 l 483 63 l 249 63 l 249 97 b 365 169 249 144 285 169 b 486 97 442 169 486 144 z "},"ď":{"ha":732,"x_min":0,"x_max":0,"o":"m 508 910 b 363 1025 508 983 451 1025 b 224 915 274 1025 224 981 b 369 800 224 842 285 800 b 508 910 458 800 508 844 z m 489 915 b 363 847 489 869 439 847 b 243 910 288 847 243 874 b 369 978 243 951 293 978 b 489 915 444 978 489 951 z m 508 594 l 503 617 l 261 686 l 261 689 l 483 706 l 489 676 l 503 676 l 503 778 l 489 778 l 483 750 l 253 731 l 243 763 l 229 763 l 229 676 l 439 617 l 229 550 l 229 461 l 243 461 l 253 496 l 479 479 l 489 449 l 503 449 l 503 538 l 489 538 l 483 506 l 261 511 l 261 514 z m 503 249 l 503 426 l 429 426 l 429 411 l 479 401 l 479 322 l 372 322 l 372 382 l 403 388 l 403 401 l 325 401 l 325 388 l 353 382 l 353 322 l 249 322 l 249 399 l 300 408 l 300 419 l 229 419 l 229 249 l 243 249 l 249 278 l 483 278 l 489 249 z m 503 -11 l 503 97 b 360 217 503 175 451 217 b 229 97 261 217 229 164 l 229 -11 l 243 -11 l 249 21 l 483 21 l 489 -11 z m 486 97 l 483 63 l 249 63 l 249 97 b 365 169 249 144 285 169 b 486 97 442 169 486 144 z "},"đ":{"ha":732,"x_min":0,"x_max":0,"o":"m 508 910 b 363 1025 508 983 451 1025 b 224 915 274 1025 224 981 b 369 800 224 842 285 800 b 508 910 458 800 508 844 z m 489 915 b 363 847 489 869 439 847 b 243 910 288 847 243 874 b 369 978 243 951 293 978 b 489 915 444 978 489 951 z m 508 594 l 503 617 l 261 686 l 261 689 l 483 706 l 489 676 l 503 676 l 503 778 l 489 778 l 483 750 l 253 731 l 243 763 l 229 763 l 229 676 l 439 617 l 229 550 l 229 461 l 243 461 l 253 496 l 479 479 l 489 449 l 503 449 l 503 538 l 489 538 l 483 506 l 261 511 l 261 514 z m 503 249 l 503 426 l 429 426 l 429 411 l 479 401 l 479 322 l 372 322 l 372 382 l 403 388 l 403 401 l 325 401 l 325 388 l 353 382 l 353 322 l 249 322 l 249 399 l 300 408 l 300 419 l 229 419 l 229 249 l 243 249 l 249 278 l 483 278 l 489 249 z m 503 -11 l 503 97 b 360 217 503 175 451 217 b 229 97 261 217 229 164 l 229 -11 l 243 -11 l 249 21 l 483 21 l 489 -11 z m 486 97 l 483 63 l 249 63 l 249 97 b 365 169 249 144 285 169 b 486 97 442 169 486 144 z "},"e":{"ha":608,"x_min":0,"x_max":0,"o":"m 350 56 b 193 325 251 56 194 156 l 557 325 b 324 678 557 540 485 678 b 54 317 153 678 54 544 b 326 -19 54 106 154 -19 b 554 153 424 -19 506 43 l 510 176 b 350 56 468 101 413 56 z m 319 622 b 422 381 386 622 422 535 l 194 375 b 319 622 200 531 244 622 z "},"é":{"ha":608,"x_min":0,"x_max":0,"o":"m 497 739 b 547 803 529 739 547 764 b 499 864 547 842 528 864 b 449 800 467 864 449 838 b 497 739 449 761 468 739 z m 193 804 b 140 861 193 847 169 861 l 93 861 l 93 856 l 107 853 l 107 750 l 93 747 l 93 742 l 140 742 b 193 804 175 742 193 764 z m 285 774 l 278 774 l 274 751 l 239 751 l 239 799 l 265 799 l 268 785 l 274 785 l 274 819 l 268 819 l 265 807 l 239 807 l 239 853 l 272 853 l 276 831 l 282 831 l 282 861 l 207 861 l 207 856 l 219 853 l 219 750 l 207 747 l 207 742 l 285 742 z m 333 747 l 319 750 l 322 847 l 324 847 l 358 739 l 368 742 l 399 847 l 400 847 l 407 750 l 394 747 l 394 742 l 439 742 l 439 747 l 426 750 l 418 851 l 432 856 l 432 861 l 394 861 l 368 769 l 360 797 l 339 861 l 300 861 l 300 856 l 315 851 l 308 751 l 294 747 l 294 742 l 333 742 z m 497 856 b 526 800 515 856 526 833 b 499 747 526 767 515 747 b 469 803 479 747 469 769 b 497 856 469 836 481 856 z m 125 853 l 140 853 b 172 801 161 853 172 838 b 140 749 172 768 161 749 l 125 750 z m 350 56 b 193 325 251 56 194 156 l 557 325 b 324 678 557 540 485 678 b 54 317 153 678 54 544 b 326 -19 54 106 154 -19 b 554 153 424 -19 506 43 l 510 176 b 350 56 468 101 413 56 z m 319 622 b 422 381 386 622 422 535 l 194 375 b 319 622 200 531 246 622 z "},"ĕ":{"ha":608,"x_min":0,"x_max":0,"o":"m 497 739 b 547 803 529 739 547 764 b 499 864 547 842 528 864 b 449 800 467 864 449 838 b 497 739 449 761 468 739 z m 193 804 b 140 861 193 847 169 861 l 93 861 l 93 856 l 107 853 l 107 750 l 93 747 l 93 742 l 140 742 b 193 804 175 742 193 764 z m 285 774 l 278 774 l 274 751 l 239 751 l 239 799 l 265 799 l 268 785 l 274 785 l 274 819 l 268 819 l 265 807 l 239 807 l 239 853 l 272 853 l 276 831 l 282 831 l 282 861 l 207 861 l 207 856 l 219 853 l 219 750 l 207 747 l 207 742 l 285 742 z m 333 747 l 319 750 l 322 847 l 324 847 l 358 739 l 368 742 l 399 847 l 400 847 l 407 750 l 394 747 l 394 742 l 439 742 l 439 747 l 426 750 l 418 851 l 432 856 l 432 861 l 394 861 l 368 769 l 360 797 l 339 861 l 300 861 l 300 856 l 315 851 l 308 751 l 294 747 l 294 742 l 333 742 z m 497 856 b 526 800 515 856 526 833 b 499 747 526 767 515 747 b 469 803 479 747 469 769 b 497 856 469 836 481 856 z m 125 853 l 140 853 b 172 801 161 853 172 838 b 140 749 172 768 161 749 l 125 750 z m 350 56 b 193 325 251 56 194 156 l 557 325 b 324 678 557 540 485 678 b 54 317 153 678 54 544 b 326 -19 54 106 154 -19 b 554 153 424 -19 506 43 l 510 176 b 350 56 468 101 413 56 z m 319 622 b 422 381 386 622 422 535 l 194 375 b 319 622 200 531 246 622 z "},"ě":{"ha":608,"x_min":0,"x_max":0,"o":"m 496 739 b 546 803 528 739 546 764 b 497 864 546 842 526 864 b 447 800 465 864 447 838 b 496 739 447 761 467 739 z m 192 804 b 139 861 192 847 168 861 l 92 861 l 92 856 l 106 853 l 106 750 l 92 747 l 92 742 l 139 742 b 192 804 174 742 192 764 z m 283 774 l 276 774 l 272 751 l 238 751 l 238 799 l 264 799 l 267 785 l 272 785 l 272 819 l 267 819 l 264 807 l 238 807 l 238 853 l 271 853 l 275 831 l 281 831 l 281 861 l 206 861 l 206 856 l 218 853 l 218 750 l 206 747 l 206 742 l 283 742 z m 332 747 l 318 750 l 321 847 l 322 847 l 357 739 l 367 742 l 397 847 l 399 847 l 406 750 l 393 747 l 393 742 l 438 742 l 438 747 l 425 750 l 417 851 l 431 856 l 431 861 l 393 861 l 367 769 l 358 797 l 338 861 l 299 861 l 299 856 l 314 851 l 307 751 l 293 747 l 293 742 l 332 742 z m 496 856 b 525 800 514 856 525 833 b 497 747 525 767 514 747 b 468 803 478 747 468 769 b 496 856 468 836 479 856 z m 124 853 l 139 853 b 171 801 160 853 171 838 b 139 749 171 768 160 749 l 124 750 z m 350 56 b 193 325 251 56 194 156 l 557 325 b 324 678 557 540 485 678 b 54 317 153 678 54 544 b 326 -19 54 106 154 -19 b 554 153 424 -19 506 43 l 510 176 b 350 56 468 101 413 56 z m 319 622 b 422 381 386 622 422 535 l 194 375 b 319 622 200 531 246 622 z "},"ê":{"ha":608,"x_min":0,"x_max":0,"o":"m 496 739 b 546 803 528 739 546 764 b 497 864 546 842 526 864 b 447 800 465 864 447 838 b 496 739 447 761 467 739 z m 192 804 b 139 861 192 847 168 861 l 92 861 l 92 856 l 106 853 l 106 750 l 92 747 l 92 742 l 139 742 b 192 804 174 742 192 764 z m 283 774 l 276 774 l 272 751 l 238 751 l 238 799 l 264 799 l 267 785 l 272 785 l 272 819 l 267 819 l 264 807 l 238 807 l 238 853 l 271 853 l 275 831 l 281 831 l 281 861 l 206 861 l 206 856 l 218 853 l 218 750 l 206 747 l 206 742 l 283 742 z m 332 747 l 318 750 l 321 847 l 322 847 l 357 739 l 367 742 l 397 847 l 399 847 l 406 750 l 393 747 l 393 742 l 438 742 l 438 747 l 425 750 l 417 851 l 431 856 l 431 861 l 393 861 l 367 769 l 358 797 l 338 861 l 299 861 l 299 856 l 314 851 l 307 751 l 293 747 l 293 742 l 332 742 z m 496 856 b 525 800 514 856 525 833 b 497 747 525 767 514 747 b 468 803 478 747 468 769 b 496 856 468 836 479 856 z m 124 853 l 139 853 b 171 801 160 853 171 838 b 139 749 171 768 160 749 l 124 750 z m 350 56 b 193 325 251 56 194 156 l 557 325 b 324 678 557 540 485 678 b 54 317 153 678 54 544 b 326 -19 54 106 154 -19 b 554 153 424 -19 506 43 l 510 176 b 350 56 468 101 413 56 z m 319 622 b 422 381 386 622 422 535 l 194 375 b 319 622 200 531 246 622 z "},"ë":{"ha":608,"x_min":0,"x_max":0,"o":"m 496 739 b 546 803 528 739 546 764 b 497 864 546 842 526 864 b 447 800 465 864 447 838 b 496 739 447 761 467 739 z m 192 804 b 139 861 192 847 168 861 l 92 861 l 92 856 l 106 853 l 106 750 l 92 747 l 92 742 l 139 742 b 192 804 174 742 192 764 z m 283 774 l 276 774 l 272 751 l 238 751 l 238 799 l 264 799 l 267 785 l 272 785 l 272 819 l 267 819 l 264 807 l 238 807 l 238 853 l 271 853 l 275 831 l 281 831 l 281 861 l 206 861 l 206 856 l 218 853 l 218 750 l 206 747 l 206 742 l 283 742 z m 332 747 l 318 750 l 321 847 l 322 847 l 357 739 l 367 742 l 397 847 l 399 847 l 406 750 l 393 747 l 393 742 l 438 742 l 438 747 l 425 750 l 417 851 l 431 856 l 431 861 l 393 861 l 367 769 l 358 797 l 338 861 l 299 861 l 299 856 l 314 851 l 307 751 l 293 747 l 293 742 l 332 742 z m 496 856 b 525 800 514 856 525 833 b 497 747 525 767 514 747 b 468 803 478 747 468 769 b 496 856 468 836 479 856 z m 124 853 l 139 853 b 171 801 160 853 171 838 b 139 749 171 768 160 749 l 124 750 z m 350 56 b 193 325 251 56 194 156 l 557 325 b 324 678 557 540 485 678 b 54 317 153 678 54 544 b 326 -19 54 106 154 -19 b 554 153 424 -19 506 43 l 510 176 b 350 56 468 101 413 56 z m 319 622 b 422 381 386 622 422 535 l 194 375 b 319 622 200 531 246 622 z "},"ė":{"ha":608,"x_min":0,"x_max":0,"o":"m 447 800 b 497 864 447 838 465 864 b 546 803 526 864 546 842 b 496 739 546 764 528 739 b 447 800 467 739 447 761 z m 92 747 l 106 750 l 106 853 l 92 856 l 92 861 l 139 861 b 192 804 168 861 192 847 b 139 742 192 764 174 742 l 92 742 z m 283 774 l 283 742 l 206 742 l 206 747 l 218 750 l 218 853 l 206 856 l 206 861 l 281 861 l 281 831 l 275 831 l 271 853 l 238 853 l 238 807 l 264 807 l 267 819 l 272 819 l 272 785 l 267 785 l 264 799 l 238 799 l 238 751 l 272 751 l 276 774 z m 438 747 l 438 742 l 393 742 l 393 747 l 406 750 l 399 847 l 397 847 l 367 742 l 357 739 l 322 847 l 321 847 l 318 750 l 332 747 l 332 742 l 293 742 l 293 747 l 307 751 l 314 851 l 299 856 l 299 861 l 338 861 l 358 797 l 367 769 l 393 861 l 431 861 l 431 856 l 417 851 l 425 750 z m 525 800 b 496 856 525 833 514 856 b 468 803 479 856 468 836 b 497 747 468 769 478 747 b 525 800 514 747 525 767 z m 171 801 b 139 853 171 838 160 853 l 124 853 l 124 750 l 139 749 b 171 801 160 749 171 768 z m 350 56 b 193 325 251 56 194 156 l 557 325 b 324 678 557 540 485 678 b 54 317 153 678 54 544 b 326 -19 54 106 154 -19 b 554 153 424 -19 506 43 l 510 176 b 350 56 468 101 413 56 z m 319 622 b 422 381 386 622 422 535 l 194 375 b 319 622 200 531 244 622 z "},"è":{"ha":608,"x_min":0,"x_max":0,"o":"m 447 800 b 497 864 447 838 465 864 b 546 803 526 864 546 842 b 496 739 546 764 528 739 b 447 800 467 739 447 761 z m 92 747 l 106 750 l 106 853 l 92 856 l 92 861 l 139 861 b 192 804 168 861 192 847 b 139 742 192 764 174 742 l 92 742 z m 283 774 l 283 742 l 206 742 l 206 747 l 218 750 l 218 853 l 206 856 l 206 861 l 281 861 l 281 831 l 275 831 l 271 853 l 238 853 l 238 807 l 264 807 l 267 819 l 272 819 l 272 785 l 267 785 l 264 799 l 238 799 l 238 751 l 272 751 l 276 774 z m 438 747 l 438 742 l 393 742 l 393 747 l 406 750 l 399 847 l 397 847 l 367 742 l 357 739 l 322 847 l 321 847 l 318 750 l 332 747 l 332 742 l 293 742 l 293 747 l 307 751 l 314 851 l 299 856 l 299 861 l 338 861 l 358 797 l 367 769 l 393 861 l 431 861 l 431 856 l 417 851 l 425 750 z m 525 800 b 496 856 525 833 514 856 b 468 803 479 856 468 836 b 497 747 468 769 478 747 b 525 800 514 747 525 767 z m 171 801 b 139 853 171 838 160 853 l 124 853 l 124 750 l 139 749 b 171 801 160 749 171 768 z m 350 56 b 193 325 251 56 194 156 l 557 325 b 324 678 557 540 485 678 b 54 317 153 678 54 544 b 326 -19 54 106 154 -19 b 554 153 424 -19 506 43 l 510 176 b 350 56 468 101 413 56 z m 319 622 b 422 381 386 622 422 535 l 194 375 b 319 622 200 531 244 622 z "},"ē":{"ha":608,"x_min":0,"x_max":0,"o":"m 497 739 b 547 803 529 739 547 764 b 499 864 547 842 528 864 b 449 800 467 864 449 838 b 497 739 449 761 468 739 z m 193 804 b 140 861 193 847 169 861 l 93 861 l 93 856 l 107 853 l 107 750 l 93 747 l 93 742 l 140 742 b 193 804 175 742 193 764 z m 285 774 l 278 774 l 274 751 l 239 751 l 239 799 l 265 799 l 268 785 l 274 785 l 274 819 l 268 819 l 265 807 l 239 807 l 239 853 l 272 853 l 276 831 l 282 831 l 282 861 l 207 861 l 207 856 l 219 853 l 219 750 l 207 747 l 207 742 l 285 742 z m 333 747 l 319 750 l 322 847 l 324 847 l 358 739 l 368 742 l 399 847 l 400 847 l 407 750 l 394 747 l 394 742 l 439 742 l 439 747 l 426 750 l 418 851 l 432 856 l 432 861 l 394 861 l 368 769 l 360 797 l 339 861 l 300 861 l 300 856 l 315 851 l 308 751 l 294 747 l 294 742 l 333 742 z m 497 856 b 526 800 515 856 526 833 b 499 747 526 767 515 747 b 469 803 479 747 469 769 b 497 856 469 836 481 856 z m 125 853 l 140 853 b 172 801 161 853 172 838 b 140 749 172 768 161 749 l 125 750 z m 350 56 b 193 325 251 56 194 156 l 557 325 b 324 678 557 540 485 678 b 54 317 153 678 54 544 b 326 -19 54 106 154 -19 b 554 153 424 -19 506 43 l 510 176 b 350 56 468 101 413 56 z m 319 622 b 422 381 386 622 422 535 l 194 375 b 319 622 200 531 246 622 z "},"ę":{"ha":608,"x_min":0,"x_max":0,"o":"m 497 739 b 547 803 529 739 547 764 b 499 864 547 842 528 864 b 449 800 467 864 449 838 b 497 739 449 761 468 739 z m 193 804 b 140 861 193 847 169 861 l 93 861 l 93 856 l 107 853 l 107 750 l 93 747 l 93 742 l 140 742 b 193 804 175 742 193 764 z m 285 774 l 278 774 l 274 751 l 239 751 l 239 799 l 265 799 l 268 785 l 274 785 l 274 819 l 268 819 l 265 807 l 239 807 l 239 853 l 272 853 l 276 831 l 282 831 l 282 861 l 207 861 l 207 856 l 219 853 l 219 750 l 207 747 l 207 742 l 285 742 z m 333 747 l 319 750 l 322 847 l 324 847 l 358 739 l 368 742 l 399 847 l 400 847 l 407 750 l 394 747 l 394 742 l 439 742 l 439 747 l 426 750 l 418 851 l 432 856 l 432 861 l 394 861 l 368 769 l 360 797 l 339 861 l 300 861 l 300 856 l 315 851 l 308 751 l 294 747 l 294 742 l 333 742 z m 497 856 b 526 800 515 856 526 833 b 499 747 526 767 515 747 b 469 803 479 747 469 769 b 497 856 469 836 481 856 z m 125 853 l 140 853 b 172 801 161 853 172 838 b 140 749 172 768 161 749 l 125 750 z m 350 56 b 193 325 251 56 194 156 l 557 325 b 324 678 557 540 485 678 b 54 317 153 678 54 544 b 326 -19 54 106 154 -19 b 554 153 424 -19 506 43 l 510 176 b 350 56 468 101 413 56 z m 319 622 b 422 381 386 622 422 535 l 194 375 b 319 622 200 531 246 622 z "},"f":{"ha":486,"x_min":0,"x_max":0,"o":"m 363 1035 b 140 760 215 1035 140 951 l 140 657 l 28 636 l 28 594 l 140 594 l 140 68 l 28 42 l 28 0 l 404 0 l 404 42 l 275 69 l 275 594 l 458 594 l 458 657 l 275 657 l 275 760 b 372 979 275 925 303 979 b 421 964 392 979 410 974 l 458 804 l 507 804 l 507 985 b 363 1035 471 1014 414 1035 z "},"g":{"ha":636,"x_min":0,"x_max":0,"o":"m 615 669 l 446 633 b 296 678 407 663 356 678 b 67 451 150 678 67 586 b 201 244 67 342 118 269 l 74 164 b 144 33 74 106 96 63 b 35 -118 89 3 35 -51 b 307 -304 35 -219 133 -304 b 576 -81 476 -304 576 -197 b 356 107 576 36 492 93 b 200 158 250 118 200 128 b 276 233 200 176 218 192 b 524 460 435 233 524 325 b 485 593 524 514 510 558 l 615 593 z m 290 286 b 200 460 233 286 200 356 b 296 628 200 568 239 628 b 389 451 356 628 389 557 b 290 286 389 346 350 286 z m 475 -110 b 307 -240 475 -185 407 -240 b 133 -107 196 -240 133 -175 b 196 10 133 -67 153 -24 b 308 -11 226 0 264 -7 b 475 -110 432 -22 475 -50 z "},"ğ":{"ha":636,"x_min":0,"x_max":0,"o":"m 474 739 b 524 803 506 739 524 764 b 475 864 524 842 504 864 b 425 800 443 864 425 838 b 474 739 425 761 444 739 z m 169 804 b 117 861 169 847 146 861 l 69 861 l 69 856 l 83 853 l 83 750 l 69 747 l 69 742 l 117 742 b 169 804 151 742 169 764 z m 261 774 l 254 774 l 250 751 l 215 751 l 215 799 l 242 799 l 244 785 l 250 785 l 250 819 l 244 819 l 242 807 l 215 807 l 215 853 l 249 853 l 253 831 l 258 831 l 258 861 l 183 861 l 183 856 l 196 853 l 196 750 l 183 747 l 183 742 l 261 742 z m 310 747 l 296 750 l 299 847 l 300 847 l 335 739 l 344 742 l 375 847 l 376 847 l 383 750 l 371 747 l 371 742 l 415 742 l 415 747 l 403 750 l 394 851 l 408 856 l 408 861 l 371 861 l 344 769 l 336 797 l 315 861 l 276 861 l 276 856 l 292 851 l 285 751 l 271 747 l 271 742 l 310 742 z m 474 856 b 503 800 492 856 503 833 b 475 747 503 767 492 747 b 446 803 456 747 446 769 b 474 856 446 836 457 856 z m 101 853 l 117 853 b 149 801 138 853 149 838 b 117 749 149 768 138 749 l 101 750 z m 615 669 l 446 633 b 296 678 407 663 356 678 b 67 451 150 678 67 586 b 201 244 67 342 118 269 l 74 164 b 144 33 74 106 96 63 b 35 -118 89 3 35 -51 b 307 -304 35 -219 133 -304 b 576 -81 476 -304 576 -197 b 356 107 576 36 492 93 b 200 158 250 118 200 128 b 276 233 200 176 218 192 b 524 460 435 233 524 325 b 485 593 524 514 510 558 l 615 593 z m 290 286 b 200 460 233 286 200 356 b 296 628 200 568 239 628 b 389 451 356 628 389 557 b 290 286 389 346 350 286 z m 475 -110 b 307 -240 475 -185 407 -240 b 133 -107 196 -240 133 -175 b 196 10 133 -67 153 -24 b 308 -11 226 0 264 -7 b 475 -110 432 -22 475 -50 z "},"ĝ":{"ha":636,"x_min":0,"x_max":0,"o":"m 474 739 b 524 803 506 739 524 764 b 475 864 524 842 504 864 b 425 800 443 864 425 838 b 474 739 425 761 444 739 z m 169 804 b 117 861 169 847 146 861 l 69 861 l 69 856 l 83 853 l 83 750 l 69 747 l 69 742 l 117 742 b 169 804 151 742 169 764 z m 261 774 l 254 774 l 250 751 l 215 751 l 215 799 l 242 799 l 244 785 l 250 785 l 250 819 l 244 819 l 242 807 l 215 807 l 215 853 l 249 853 l 253 831 l 258 831 l 258 861 l 183 861 l 183 856 l 196 853 l 196 750 l 183 747 l 183 742 l 261 742 z m 310 747 l 296 750 l 299 847 l 300 847 l 335 739 l 344 742 l 375 847 l 376 847 l 383 750 l 371 747 l 371 742 l 415 742 l 415 747 l 403 750 l 394 851 l 408 856 l 408 861 l 371 861 l 344 769 l 336 797 l 315 861 l 276 861 l 276 856 l 292 851 l 285 751 l 271 747 l 271 742 l 310 742 z m 474 856 b 503 800 492 856 503 833 b 475 747 503 767 492 747 b 446 803 456 747 446 769 b 474 856 446 836 457 856 z m 101 853 l 117 853 b 149 801 138 853 149 838 b 117 749 149 768 138 749 l 101 750 z m 615 669 l 446 633 b 296 678 407 663 356 678 b 67 451 150 678 67 586 b 201 244 67 342 118 269 l 74 164 b 144 33 74 106 96 63 b 35 -118 89 3 35 -51 b 307 -304 35 -219 133 -304 b 576 -81 476 -304 576 -197 b 356 107 576 36 492 93 b 200 158 250 118 200 128 b 276 233 200 176 218 192 b 524 460 435 233 524 325 b 485 593 524 514 510 558 l 615 593 z m 290 286 b 200 460 233 286 200 356 b 296 628 200 568 239 628 b 389 451 356 628 389 557 b 290 286 389 346 350 286 z m 475 -110 b 307 -240 475 -185 407 -240 b 133 -107 196 -240 133 -175 b 196 10 133 -67 153 -24 b 308 -11 226 0 264 -7 b 475 -110 432 -22 475 -50 z "},"ģ":{"ha":636,"x_min":0,"x_max":0,"o":"m 474 739 b 524 803 506 739 524 764 b 475 864 524 842 504 864 b 425 800 443 864 425 838 b 474 739 425 761 444 739 z m 169 804 b 117 861 169 847 146 861 l 69 861 l 69 856 l 83 853 l 83 750 l 69 747 l 69 742 l 117 742 b 169 804 151 742 169 764 z m 261 774 l 254 774 l 250 751 l 215 751 l 215 799 l 242 799 l 244 785 l 250 785 l 250 819 l 244 819 l 242 807 l 215 807 l 215 853 l 249 853 l 253 831 l 258 831 l 258 861 l 183 861 l 183 856 l 196 853 l 196 750 l 183 747 l 183 742 l 261 742 z m 310 747 l 296 750 l 299 847 l 300 847 l 335 739 l 344 742 l 375 847 l 376 847 l 383 750 l 371 747 l 371 742 l 415 742 l 415 747 l 403 750 l 394 851 l 408 856 l 408 861 l 371 861 l 344 769 l 336 797 l 315 861 l 276 861 l 276 856 l 292 851 l 285 751 l 271 747 l 271 742 l 310 742 z m 474 856 b 503 800 492 856 503 833 b 475 747 503 767 492 747 b 446 803 456 747 446 769 b 474 856 446 836 457 856 z m 101 853 l 117 853 b 149 801 138 853 149 838 b 117 749 149 768 138 749 l 101 750 z m 615 669 l 446 633 b 296 678 407 663 356 678 b 67 451 150 678 67 586 b 201 244 67 342 118 269 l 74 164 b 144 33 74 106 96 63 b 35 -118 89 3 35 -51 b 307 -304 35 -219 133 -304 b 576 -81 476 -304 576 -197 b 356 107 576 36 492 93 b 200 158 250 118 200 128 b 276 233 200 176 218 192 b 524 460 435 233 524 325 b 485 593 524 514 510 558 l 615 593 z m 290 286 b 200 460 233 286 200 356 b 296 628 200 568 239 628 b 389 451 356 628 389 557 b 290 286 389 346 350 286 z m 475 -110 b 307 -240 475 -185 407 -240 b 133 -107 196 -240 133 -175 b 196 10 133 -67 153 -24 b 308 -11 226 0 264 -7 b 475 -110 432 -22 475 -50 z "},"ġ":{"ha":636,"x_min":0,"x_max":0,"o":"m 474 739 b 524 803 506 739 524 764 b 475 864 524 842 504 864 b 425 800 443 864 425 838 b 474 739 425 761 444 739 z m 169 804 b 117 861 169 847 146 861 l 69 861 l 69 856 l 83 853 l 83 750 l 69 747 l 69 742 l 117 742 b 169 804 151 742 169 764 z m 261 774 l 254 774 l 250 751 l 215 751 l 215 799 l 242 799 l 244 785 l 250 785 l 250 819 l 244 819 l 242 807 l 215 807 l 215 853 l 249 853 l 253 831 l 258 831 l 258 861 l 183 861 l 183 856 l 196 853 l 196 750 l 183 747 l 183 742 l 261 742 z m 310 747 l 296 750 l 299 847 l 300 847 l 335 739 l 344 742 l 375 847 l 376 847 l 383 750 l 371 747 l 371 742 l 415 742 l 415 747 l 403 750 l 394 851 l 408 856 l 408 861 l 371 861 l 344 769 l 336 797 l 315 861 l 276 861 l 276 856 l 292 851 l 285 751 l 271 747 l 271 742 l 310 742 z m 474 856 b 503 800 492 856 503 833 b 475 747 503 767 492 747 b 446 803 456 747 446 769 b 474 856 446 836 457 856 z m 101 853 l 117 853 b 149 801 138 853 149 838 b 117 749 149 768 138 749 l 101 750 z m 615 669 l 446 633 b 296 678 407 663 356 678 b 67 451 150 678 67 586 b 201 244 67 342 118 269 l 74 164 b 144 33 74 106 96 63 b 35 -118 89 3 35 -51 b 307 -304 35 -219 133 -304 b 576 -81 476 -304 576 -197 b 356 107 576 36 492 93 b 200 158 250 118 200 128 b 276 233 200 176 218 192 b 524 460 435 233 524 325 b 485 593 524 514 510 558 l 615 593 z m 290 286 b 200 460 233 286 200 356 b 296 628 200 568 239 628 b 389 451 356 628 389 557 b 290 286 389 346 350 286 z m 475 -110 b 307 -240 475 -185 407 -240 b 133 -107 196 -240 133 -175 b 196 10 133 -67 153 -24 b 308 -11 226 0 264 -7 b 475 -110 432 -22 475 -50 z "},"h":{"ha":740,"x_min":0,"x_max":0,"o":"m 624 71 l 624 482 b 468 678 624 610 564 678 b 263 501 383 678 299 621 l 258 501 l 258 1035 l 28 997 l 28 957 l 124 949 l 124 67 l 28 42 l 28 0 l 344 0 l 344 42 l 258 64 l 258 271 b 418 601 258 447 336 601 b 490 468 467 601 490 561 l 490 0 l 719 0 l 719 43 z "},"ħ":{"ha":740,"x_min":0,"x_max":0,"o":"m 363 1069 b 413 1133 394 1069 413 1094 b 364 1194 413 1172 393 1194 b 314 1131 332 1194 314 1168 b 363 1069 314 1092 333 1069 z m 58 1135 b 6 1192 58 1178 35 1192 l -42 1192 l -42 1186 l -28 1183 l -28 1081 l -42 1078 l -42 1072 l 6 1072 b 58 1135 40 1072 58 1094 z m 150 1104 l 143 1104 l 139 1082 l 104 1082 l 104 1129 l 131 1129 l 133 1115 l 139 1115 l 139 1150 l 133 1150 l 131 1138 l 104 1138 l 104 1183 l 138 1183 l 142 1161 l 147 1161 l 147 1192 l 72 1192 l 72 1186 l 85 1183 l 85 1081 l 72 1078 l 72 1072 l 150 1072 z m 199 1078 l 185 1081 l 188 1178 l 189 1178 l 224 1069 l 233 1072 l 264 1178 l 265 1178 l 272 1081 l 260 1078 l 260 1072 l 304 1072 l 304 1078 l 292 1081 l 283 1182 l 297 1186 l 297 1192 l 260 1192 l 233 1100 l 225 1128 l 204 1192 l 165 1192 l 165 1186 l 181 1182 l 174 1082 l 160 1078 l 160 1072 l 199 1072 z m 363 1186 b 392 1131 381 1186 392 1164 b 364 1078 392 1097 381 1078 b 335 1133 344 1078 335 1100 b 363 1186 335 1167 346 1186 z m 6 1079 l -10 1081 l -10 1183 l 6 1183 b 38 1132 26 1183 38 1168 b 6 1079 38 1099 26 1079 z m 624 71 l 624 482 b 468 678 624 610 564 678 b 263 501 383 678 299 621 l 258 501 l 258 1035 l 28 997 l 28 957 l 124 949 l 124 67 l 28 42 l 28 0 l 344 0 l 344 42 l 258 64 l 258 271 b 418 601 258 447 336 601 b 490 468 467 601 490 561 l 490 0 l 719 0 l 719 43 z "},"ĥ":{"ha":740,"x_min":0,"x_max":0,"o":"m 363 1069 b 413 1133 394 1069 413 1094 b 364 1194 413 1172 393 1194 b 314 1131 332 1194 314 1168 b 363 1069 314 1092 333 1069 z m 58 1135 b 6 1192 58 1178 35 1192 l -42 1192 l -42 1186 l -28 1183 l -28 1081 l -42 1078 l -42 1072 l 6 1072 b 58 1135 40 1072 58 1094 z m 150 1104 l 143 1104 l 139 1082 l 104 1082 l 104 1129 l 131 1129 l 133 1115 l 139 1115 l 139 1150 l 133 1150 l 131 1138 l 104 1138 l 104 1183 l 138 1183 l 142 1161 l 147 1161 l 147 1192 l 72 1192 l 72 1186 l 85 1183 l 85 1081 l 72 1078 l 72 1072 l 150 1072 z m 199 1078 l 185 1081 l 188 1178 l 189 1178 l 224 1069 l 233 1072 l 264 1178 l 265 1178 l 272 1081 l 260 1078 l 260 1072 l 304 1072 l 304 1078 l 292 1081 l 283 1182 l 297 1186 l 297 1192 l 260 1192 l 233 1100 l 225 1128 l 204 1192 l 165 1192 l 165 1186 l 181 1182 l 174 1082 l 160 1078 l 160 1072 l 199 1072 z m 363 1186 b 392 1131 381 1186 392 1164 b 364 1078 392 1097 381 1078 b 335 1133 344 1078 335 1100 b 363 1186 335 1167 346 1186 z m 6 1079 l -10 1081 l -10 1183 l 6 1183 b 38 1132 26 1183 38 1168 b 6 1079 38 1099 26 1079 z m 624 71 l 624 482 b 468 678 624 610 564 678 b 263 501 383 678 299 621 l 258 501 l 258 1035 l 28 997 l 28 957 l 124 949 l 124 67 l 28 42 l 28 0 l 344 0 l 344 42 l 258 64 l 258 271 b 418 601 258 447 336 601 b 490 468 467 601 490 561 l 490 0 l 719 0 l 719 43 z "},"i":{"ha":382,"x_min":0,"x_max":0,"o":"m 197 761 b 271 839 244 761 271 794 b 197 919 271 886 244 919 b 125 839 153 919 125 886 b 197 761 125 794 153 761 z m 268 67 l 268 671 l 38 636 l 38 594 l 133 585 l 133 67 l 38 42 l 38 0 l 364 0 l 364 42 z "},"ı":{"ha":382,"x_min":0,"x_max":0,"o":"m 268 68 l 268 671 l 38 636 l 38 594 l 133 585 l 133 67 l 38 42 l 38 0 l 364 0 l 364 42 z "},"í":{"ha":382,"x_min":0,"x_max":0,"o":"m 379 864 b 329 800 347 864 329 838 b 378 739 329 761 349 739 b 428 803 410 739 428 764 b 379 864 428 842 408 864 z m 74 804 b 21 861 74 847 50 861 l -26 861 l -26 856 l -12 853 l -12 750 l -26 747 l -26 742 l 21 742 b 74 804 56 742 74 764 z m 165 774 l 158 774 l 154 751 l 119 751 l 119 799 l 146 799 l 149 785 l 154 785 l 154 819 l 149 819 l 146 807 l 119 807 l 119 853 l 153 853 l 157 831 l 163 831 l 163 861 l 88 861 l 88 856 l 100 853 l 100 750 l 88 747 l 88 742 l 165 742 z m 214 747 l 200 750 l 203 847 l 204 847 l 239 739 l 249 742 l 279 847 l 281 847 l 288 750 l 275 747 l 275 742 l 319 742 l 319 747 l 307 750 l 299 851 l 313 856 l 313 861 l 275 861 l 249 769 l 240 797 l 219 861 l 181 861 l 181 856 l 196 851 l 189 751 l 175 747 l 175 742 l 214 742 z m 379 747 b 350 803 360 747 350 769 b 378 856 350 836 361 856 b 407 800 396 856 407 833 b 379 747 407 767 396 747 z m 21 749 l 6 750 l 6 853 l 21 853 b 53 801 42 853 53 838 b 21 749 53 768 42 749 z m 268 67 l 268 671 l 38 636 l 38 594 l 133 585 l 133 67 l 38 42 l 38 0 l 364 0 l 364 42 z "},"ĭ":{"ha":382,"x_min":0,"x_max":0,"o":"m 379 864 b 329 800 347 864 329 838 b 378 739 329 761 349 739 b 428 803 410 739 428 764 b 379 864 428 842 408 864 z m 74 804 b 21 861 74 847 50 861 l -26 861 l -26 856 l -12 853 l -12 750 l -26 747 l -26 742 l 21 742 b 74 804 56 742 74 764 z m 165 774 l 158 774 l 154 751 l 119 751 l 119 799 l 146 799 l 149 785 l 154 785 l 154 819 l 149 819 l 146 807 l 119 807 l 119 853 l 153 853 l 157 831 l 163 831 l 163 861 l 88 861 l 88 856 l 100 853 l 100 750 l 88 747 l 88 742 l 165 742 z m 214 747 l 200 750 l 203 847 l 204 847 l 239 739 l 249 742 l 279 847 l 281 847 l 288 750 l 275 747 l 275 742 l 319 742 l 319 747 l 307 750 l 299 851 l 313 856 l 313 861 l 275 861 l 249 769 l 240 797 l 219 861 l 181 861 l 181 856 l 196 851 l 189 751 l 175 747 l 175 742 l 214 742 z m 379 747 b 350 803 360 747 350 769 b 378 856 350 836 361 856 b 407 800 396 856 407 833 b 379 747 407 767 396 747 z m 21 749 l 6 750 l 6 853 l 21 853 b 53 801 42 853 53 838 b 21 749 53 768 42 749 z m 268 67 l 268 671 l 38 636 l 38 594 l 133 585 l 133 67 l 38 42 l 38 0 l 364 0 l 364 42 z "},"î":{"ha":382,"x_min":0,"x_max":0,"o":"m 378 864 b 328 800 346 864 328 838 b 376 739 328 761 347 739 b 426 803 408 739 426 764 b 378 864 426 842 407 864 z m 72 804 b 19 861 72 847 49 861 l -28 861 l -28 856 l -14 853 l -14 750 l -28 747 l -28 742 l 19 742 b 72 804 54 742 72 764 z m 164 774 l 157 774 l 153 751 l 118 751 l 118 799 l 144 799 l 147 785 l 153 785 l 153 819 l 147 819 l 144 807 l 118 807 l 118 853 l 151 853 l 156 831 l 161 831 l 161 861 l 86 861 l 86 856 l 99 853 l 99 750 l 86 747 l 86 742 l 164 742 z m 213 747 l 199 750 l 201 847 l 203 847 l 238 739 l 247 742 l 278 847 l 279 847 l 286 750 l 274 747 l 274 742 l 318 742 l 318 747 l 306 750 l 297 851 l 311 856 l 311 861 l 274 861 l 247 769 l 239 797 l 218 861 l 179 861 l 179 856 l 194 851 l 188 751 l 174 747 l 174 742 l 213 742 z m 378 747 b 349 803 358 747 349 769 b 376 856 349 836 360 856 b 406 800 394 856 406 833 b 378 747 406 767 394 747 z m 19 749 l 4 750 l 4 853 l 19 853 b 51 801 40 853 51 838 b 19 749 51 768 40 749 z m 268 67 l 268 671 l 38 636 l 38 594 l 133 585 l 133 67 l 38 42 l 38 0 l 364 0 l 364 42 z "},"ï":{"ha":382,"x_min":0,"x_max":0,"o":"m 379 864 b 329 800 347 864 329 838 b 378 739 329 761 349 739 b 428 803 410 739 428 764 b 379 864 428 842 408 864 z m 74 804 b 21 861 74 847 50 861 l -26 861 l -26 856 l -12 853 l -12 750 l -26 747 l -26 742 l 21 742 b 74 804 56 742 74 764 z m 165 774 l 158 774 l 154 751 l 119 751 l 119 799 l 146 799 l 149 785 l 154 785 l 154 819 l 149 819 l 146 807 l 119 807 l 119 853 l 153 853 l 157 831 l 163 831 l 163 861 l 88 861 l 88 856 l 100 853 l 100 750 l 88 747 l 88 742 l 165 742 z m 214 747 l 200 750 l 203 847 l 204 847 l 239 739 l 249 742 l 279 847 l 281 847 l 288 750 l 275 747 l 275 742 l 319 742 l 319 747 l 307 750 l 299 851 l 313 856 l 313 861 l 275 861 l 249 769 l 240 797 l 219 861 l 181 861 l 181 856 l 196 851 l 189 751 l 175 747 l 175 742 l 214 742 z m 379 747 b 350 803 360 747 350 769 b 378 856 350 836 361 856 b 407 800 396 856 407 833 b 379 747 407 767 396 747 z m 21 749 l 6 750 l 6 853 l 21 853 b 53 801 42 853 53 838 b 21 749 53 768 42 749 z m 268 67 l 268 671 l 38 636 l 38 594 l 133 585 l 133 67 l 38 42 l 38 0 l 364 0 l 364 42 z "},"ì":{"ha":382,"x_min":0,"x_max":0,"o":"m 379 864 b 329 800 347 864 329 838 b 378 739 329 761 349 739 b 428 803 410 739 428 764 b 379 864 428 842 408 864 z m 74 804 b 21 861 74 847 50 861 l -26 861 l -26 856 l -12 853 l -12 750 l -26 747 l -26 742 l 21 742 b 74 804 56 742 74 764 z m 165 774 l 158 774 l 154 751 l 119 751 l 119 799 l 146 799 l 149 785 l 154 785 l 154 819 l 149 819 l 146 807 l 119 807 l 119 853 l 153 853 l 157 831 l 163 831 l 163 861 l 88 861 l 88 856 l 100 853 l 100 750 l 88 747 l 88 742 l 165 742 z m 214 747 l 200 750 l 203 847 l 204 847 l 239 739 l 249 742 l 279 847 l 281 847 l 288 750 l 275 747 l 275 742 l 319 742 l 319 747 l 307 750 l 299 851 l 313 856 l 313 861 l 275 861 l 249 769 l 240 797 l 219 861 l 181 861 l 181 856 l 196 851 l 189 751 l 175 747 l 175 742 l 214 742 z m 379 747 b 350 803 360 747 350 769 b 378 856 350 836 361 856 b 407 800 396 856 407 833 b 379 747 407 767 396 747 z m 21 749 l 6 750 l 6 853 l 21 853 b 53 801 42 853 53 838 b 21 749 53 768 42 749 z m 268 67 l 268 671 l 38 636 l 38 594 l 133 585 l 133 67 l 38 42 l 38 0 l 364 0 l 364 42 z "},"ĳ":{"ha":732,"x_min":0,"x_max":0,"o":"m 508 910 b 363 1025 508 983 451 1025 b 224 915 274 1025 224 981 b 369 800 224 842 285 800 b 508 910 458 800 508 844 z m 489 915 b 363 847 489 869 439 847 b 243 910 288 847 243 874 b 369 978 243 951 293 978 b 489 915 444 978 489 951 z m 508 594 l 503 617 l 261 686 l 261 689 l 483 706 l 489 676 l 503 676 l 503 778 l 489 778 l 483 750 l 253 731 l 243 763 l 229 763 l 229 676 l 439 617 l 229 550 l 229 461 l 243 461 l 253 496 l 479 479 l 489 449 l 503 449 l 503 538 l 489 538 l 483 506 l 261 511 l 261 514 z m 503 249 l 503 426 l 429 426 l 429 411 l 479 401 l 479 322 l 372 322 l 372 382 l 403 388 l 403 401 l 325 401 l 325 388 l 353 382 l 353 322 l 249 322 l 249 399 l 300 408 l 300 419 l 229 419 l 229 249 l 243 249 l 249 278 l 483 278 l 489 249 z m 503 -11 l 503 97 b 360 217 503 175 451 217 b 229 97 261 217 229 164 l 229 -11 l 243 -11 l 249 21 l 483 21 l 489 -11 z m 486 97 l 483 63 l 249 63 l 249 97 b 365 169 249 144 285 169 b 486 97 442 169 486 144 z "},"ī":{"ha":382,"x_min":0,"x_max":0,"o":"m 379 864 b 329 800 347 864 329 838 b 378 739 329 761 349 739 b 428 803 410 739 428 764 b 379 864 428 842 408 864 z m 74 804 b 21 861 74 847 50 861 l -26 861 l -26 856 l -12 853 l -12 750 l -26 747 l -26 742 l 21 742 b 74 804 56 742 74 764 z m 165 774 l 158 774 l 154 751 l 119 751 l 119 799 l 146 799 l 149 785 l 154 785 l 154 819 l 149 819 l 146 807 l 119 807 l 119 853 l 153 853 l 157 831 l 163 831 l 163 861 l 88 861 l 88 856 l 100 853 l 100 750 l 88 747 l 88 742 l 165 742 z m 214 747 l 200 750 l 203 847 l 204 847 l 239 739 l 249 742 l 279 847 l 281 847 l 288 750 l 275 747 l 275 742 l 319 742 l 319 747 l 307 750 l 299 851 l 313 856 l 313 861 l 275 861 l 249 769 l 240 797 l 219 861 l 181 861 l 181 856 l 196 851 l 189 751 l 175 747 l 175 742 l 214 742 z m 379 747 b 350 803 360 747 350 769 b 378 856 350 836 361 856 b 407 800 396 856 407 833 b 379 747 407 767 396 747 z m 21 749 l 6 750 l 6 853 l 21 853 b 53 801 42 853 53 838 b 21 749 53 768 42 749 z m 268 67 l 268 671 l 38 636 l 38 594 l 133 585 l 133 67 l 38 42 l 38 0 l 364 0 l 364 42 z "}}}
